<svg xmlns="http://www.w3.org/2000/svg" width="52" height="52">
  <circle fill="#135777" r="24" transform="translate(26 26)"/>
  <circle fill="#135777" r=".5" transform="translate(26 26)"/>
  <path fill="#FFF" d="M27.98 21.44h5.75v-2.3h-5.75v2.3zm2.9 3.46c-.95 0-1.78.46-2.3 1.16h4.58c-.53-.7-1.35-1.16-2.3-1.16zm5.18 2.9c0 .2-.04.37-.06.57h-7.96c.27 1.3 1.43 2.3 2.83 2.3.88 0 1.66-.4 2.2-1.03l2.35.6c-.87 1.62-2.57 2.74-4.55 2.74-2.87 0-5.2-2.32-5.2-5.2 0-.28.03-.57.08-.85.4-2.46 2.54-4.33 5.12-4.33 2.86 0 5.2 2.32 5.2 5.2zM19.9 21.43h-2.3v2.3h2.3c.64 0 1.16-.5 1.16-1.14 0-.65-.52-1.17-1.16-1.17zm0 5.77h-2.3v3.47h2.3c.96 0 1.74-.77 1.74-1.73 0-.95-.78-1.73-1.74-1.73zm4.62-4.6c0 1.07-.5 2.02-1.26 2.65 1.42.63 2.4 2.04 2.4 3.7 0 2.22-1.8 4.03-4.02 4.03h-7.5V19.14h6.92c1.9 0 3.46 1.55 3.46 3.46zm0 0"/>
</svg>
