<svg xmlns="http://www.w3.org/2000/svg" width="35" height="35">
	<circle stroke="#FFF" stroke-width="2" fill="none" cx="17.5" cy="17.5" r="15.5"/>
	<circle class="circle-hover" fill="#FFF" cx="-0" cy=".01" r=".5" transform="translate(17.5 17.49)"/>
	<g fill="#FFF">
	    <path d="M24.6 19.67h-5.14c.18.85.93 1.5 1.83 1.5.5 0 1-.27 1.4-.68l1.5.3c-.6 1.04-1.7 1.8-3 1.8-1.86 0-3.36-1.5-3.36-3.38 0-1.86 1.5-3.36 3.35-3.36s3.34 1.5 3.34 3.34c0 .13 0 .25-.04.37l.06.06zm-3.3-2.23c-.62 0-1.15.3-1.5.74h2.97c-.34-.45-.87-.74-1.48-.74zm0 0"/>
	    <path d="M15.33 22.65h-4.85V13.7h4.47c1.24 0 2.24 1 2.24 2.25 0 .7-.4 1.3-.9 1.7.9.42 1.55 1.33 1.55 2.4 0 1.44-1.17 2.6-2.6 2.6h.02zm-1.12-3.72h-1.4v2.23h1.5c.6 0 1.1-.5 1.1-1.1 0-.63-.5-1.13-1.1-1.13h-.03zm.8-2.98c0-.4-.3-.75-.7-.75h-1.5v1.5h1.5c.4 0 .73-.34.73-.75zm4.5-2.25h3.7v1.5h-3.7"/>
	</g>
</svg>