<svg xmlns="http://www.w3.org/2000/svg" class="blog-svg" viewBox="0 0 543 331">
  <defs>
    <filter id="a" width="200%" height="200%" x="-50%" y="-50%" filterUnits="objectBoundingBox">
      <feOffset dy="3" in="SourceAlpha" result="shadowOffsetOuter1"/>
      <feGaussianBlur in="shadowOffsetOuter1" result="shadowBlurOuter1" stdDeviation="3.5"/>
      <feColorMatrix in="shadowBlurOuter1" result="shadowMatrixOuter1" values="0 0 0 0 0.298947704 0 0 0 0 0.298947704 0 0 0 0 0.298947704 0 0 0 0.5 0"/>
      <feMerge>
        <feMergeNode in="shadowMatrixOuter1"/>
        <feMergeNode in="SourceGraphic"/>
      </feMerge>
    </filter>
    <filter id="b" width="200%" height="200%" x="-50%" y="-50%" filterUnits="objectBoundingBox">
      <feOffset dy="3" in="SourceAlpha" result="shadowOffsetOuter1"/>
      <feGaussianBlur in="shadowOffsetOuter1" result="shadowBlurOuter1" stdDeviation="3.5"/>
      <feColorMatrix in="shadowBlurOuter1" result="shadowMatrixOuter1" values="0 0 0 0 0.298947704 0 0 0 0 0.298947704 0 0 0 0 0.298947704 0 0 0 0.5 0"/>
      <feMerge>
        <feMergeNode in="shadowMatrixOuter1"/>
        <feMergeNode in="SourceGraphic"/>
      </feMerge>
    </filter>
    <filter id="c" width="200%" height="200%" x="-50%" y="-50%" filterUnits="objectBoundingBox">
      <feOffset dy="5" in="SourceAlpha" result="shadowOffsetOuter1"/>
      <feGaussianBlur in="shadowOffsetOuter1" result="shadowBlurOuter1" stdDeviation="7.5"/>
      <feColorMatrix in="shadowBlurOuter1" result="shadowMatrixOuter1" values="0 0 0 0 0.298947704 0 0 0 0 0.298947704 0 0 0 0 0.298947704 0 0 0 0.5 0"/>
      <feMerge>
        <feMergeNode in="shadowMatrixOuter1"/>
        <feMergeNode in="SourceGraphic"/>
      </feMerge>
    </filter>
  </defs>
  <g fill="none" fill-rule="evenodd">
    <g filter="url(#a)" class="page-gauche" transform="translate(7 47)">
      <path fill="#FFF" d="M0 5a5 5 0 0 1 5-5h164a5 5 0 0 1 5 5v265.74H0V5z"/>
      <path fill="#D8D8D8" d="M0 5a5 5 0 0 1 5-5h164a5 5 0 0 1 5 5v8.8H0V5z"/>
      <g transform="translate(9.158 4.596)">
        <ellipse cx="2.8" cy="2.81" fill="#E65336" rx="2.8" ry="2.81"/>
        <ellipse cx="11.9" cy="2.81" fill="#F7C819" rx="2.8" ry="2.81"/>
        <ellipse cx="21.01" cy="2.81" fill="#00B69A" rx="2.8" ry="2.81"/>
      </g>
      <rect width="70.75" height="5.52" x="91.58" y="4.6" fill="#FFF" rx="2.76"/>
      <path fill="#FFAF00" fill-rule="nonzero" d="M12.82 32.17v29.57l13.23-12.2c.18-.2.43-.3.68-.33.37 0 .73.1 1 .4l11.92 11.9 7.7-8.2a1.22 1.22 0 0 1 1.75 0l8.9 8.9v-30H12.83zm26.26 6.1c2.7 0 4.88 2.17 4.88 4.85 0 2.7-2.18 4.87-4.88 4.87s-4.9-2.2-4.9-4.9 2.2-4.9 4.9-4.9zM26.83 52.1l-14 12.93v8.5H58v-8l-9.72-9.7-7.7 8.2a1.22 1.22 0 0 1-1.75.02l-12-11.95z"/>
      <path fill="#2C3E50" fill-rule="nonzero" d="M64.1 32.17v29.57l13.23-12.2c.2-.2.43-.3.7-.33.35 0 .72.1.98.4l12 11.9 7.7-8.2a1.22 1.22 0 0 1 1.8 0l8.9 8.9v-30H64.1zm26.26 6.1c2.7 0 4.9 2.17 4.9 4.85 0 2.7-2.2 4.87-4.9 4.87s-4.88-2.2-4.88-4.9 2.2-4.9 4.88-4.9zM78.1 52.1l-14 12.93v8.5h45.2v-8l-9.74-9.7-7.7 8.2a1.22 1.22 0 0 1-1.75.03l-12-11.96z"/>
      <path fill="#F1C40F" fill-rule="nonzero" d="M115.4 32.17v29.57l13.2-12.2c.2-.2.44-.3.7-.33.37 0 .73.1 1 .4l11.92 11.9 7.7-8.2a1.22 1.22 0 0 1 1.75 0l8.9 8.9v-30H115.4zm26.25 6.1c2.7 0 4.88 2.17 4.88 4.85 0 2.7-2.18 4.87-4.88 4.87s-4.9-2.2-4.9-4.9 2.2-4.9 4.9-4.9zM129.4 52.1l-14 12.93v8.5h45.18v-8l-9.73-9.7-7.7 8.2a1.22 1.22 0 0 1-1.75.02l-12-11.95z"/>
      <path fill="#C0C1C5" d="M12.82 78.14h38.46v4.6H12.82zm102.58 0h42.1v4.6h-42.1zm-51.3 0h27.5v4.6H64.1z"/>
      <path fill="#1ABC9C" fill-rule="nonzero" d="M12.82 91.93v29.56l13.23-12.2c.18-.2.43-.3.68-.4.37-.1.73.1 1 .3l11.92 11.9 7.7-8.2a1.22 1.22 0 0 1 1.75-.07l8.9 8.87V91.9H12.83zM39.08 98c2.7 0 4.88 2.2 4.88 4.88 0 2.7-2.18 4.87-4.88 4.87s-4.9-2.18-4.9-4.87c0-2.7 2.2-4.87 4.9-4.87zm-12.25 13.85l-14 12.93v8.52H58v-8.03l-9.72-9.7-7.7 8.2a1.22 1.22 0 0 1-1.75.04l-12-11.9z"/>
      <path fill="#E67E22" fill-rule="nonzero" d="M64.1 91.93v29.56l13.23-12.2c.2-.2.43-.3.7-.4.35-.1.72.1.98.3l12 11.9 7.7-8.2a1.22 1.22 0 0 1 1.8-.06l8.9 8.87V91.9H64.1zM90.37 98c2.7 0 4.9 2.2 4.9 4.88 0 2.7-2.2 4.87-4.9 4.87s-4.88-2.18-4.88-4.87c0-2.7 2.2-4.87 4.8-4.87zM78.1 111.86l-14 12.93v8.5h45.2v-8.1l-9.74-9.7-7.7 8.2a1.22 1.22 0 0 1-1.75 0l-12-11.95z"/>
      <path fill="#3498DB" fill-rule="nonzero" d="M115.4 91.93v29.56l13.2-12.2c.2-.2.44-.3.7-.4.37-.1.73.1 1 .3l11.92 11.9 7.7-8.2a1.22 1.22 0 0 1 1.75-.07l8.9 8.87V91.9H115.4zM141.64 98c2.7 0 4.88 2.2 4.88 4.88 0 2.7-2.18 4.87-4.88 4.87s-4.9-2.18-4.9-4.87c0-2.7 2.2-4.87 4.9-4.87zm-12.25 13.85l-14 12.93v8.52h45.1v-8.03l-9.78-9.7-7.7 8.2a1.22 1.22 0 0 1-1.75.04l-12-11.9z"/>
      <path fill="#C0C1C5" d="M12.82 137.9H40.3v4.6H12.82zm102.58 0H152v4.6h-36.6zm-51.3 0h11v4.6h-11z"/>
      <path fill="#95A5A6" fill-rule="nonzero" d="M12.82 151.68v29.57l13.23-12.2c.18-.2.43-.3.68-.33.37-.04.73.08 1 .34l11.92 11.88 7.7-8.2a1.22 1.22 0 0 1 1.75-.03l8.9 8.9v-29.9H12.83zm26.26 6.1c2.7 0 4.88 2.17 4.88 4.85 0 2.7-2.18 4.87-4.88 4.87s-4.9-2.18-4.9-4.87c0-2.68 2.2-4.86 4.9-4.86zM26.83 171.6l-14 12.93v8.52H58v-8.02l-9.72-9.7-7.7 8.2a1.22 1.22 0 0 1-1.75.03l-12-11.95z"/>
      <path fill="#FFAF00" fill-rule="nonzero" d="M64.1 151.68v29.57l13.23-12.2c.2-.2.43-.3.7-.33.35-.04.72.08.98.34l12 11.88 7.7-8.2a1.22 1.22 0 0 1 1.8-.03l8.9 8.9v-29.9H64.1zm26.26 6.1c2.7 0 4.9 2.17 4.9 4.85 0 2.7-2.2 4.87-4.9 4.87s-4.88-2.18-4.88-4.87c0-2.68 2.2-4.86 4.88-4.86zM78.1 171.6l-14 12.93v8.52h45.2v-8.02l-9.74-9.7-7.7 8.2a1.22 1.22 0 0 1-1.75.03l-12-11.95z"/>
      <path fill="#2C3E50" fill-rule="nonzero" d="M115.4 151.68v29.57l13.2-12.2c.2-.2.44-.3.7-.33.37-.04.73.08 1 .34l11.92 11.88 7.7-8.2a1.22 1.22 0 0 1 1.75-.03l8.9 8.9v-29.9H115.4zm26.25 6.1c2.7 0 4.88 2.17 4.88 4.85 0 2.7-2.18 4.87-4.88 4.87s-4.9-2.18-4.9-4.87c0-2.68 2.2-4.86 4.9-4.86zM129.4 171.6l-14 12.93v8.52h45.18v-8.02l-9.73-9.7-7.7 8.2a1.22 1.22 0 0 1-1.75.03l-12-11.95z"/>
      <path fill="#C0C1C5" d="M12.82 197.65h40.3v4.6h-40.3zm102.58 0h18.3v4.6h-18.3zm-51.3 0h32.06v4.6H64.1z"/>
      <path fill="#FFAF00" fill-rule="nonzero" d="M12.82 211.44V241l13.23-12.2c.18-.18.43-.3.68-.33.37-.04.73.1 1 .34l11.92 11.9 7.7-8.2a1.22 1.22 0 0 1 1.75 0l8.9 8.9v-29.9H12.83zm26.26 6.08c2.7 0 4.88 2.18 4.88 4.87 0 2.6-2.18 4.8-4.88 4.8s-4.9-2.2-4.9-4.9 2.2-4.9 4.9-4.9zm-12.25 13.84l-14 12.93v8.5H58v-8.1l-9.72-9.7-7.7 8.2a1.22 1.22 0 0 1-1.75 0l-12-11.97z"/>
      <path fill="#1ABC9C" fill-rule="nonzero" d="M64.1 211.44V241l13.23-12.2c.2-.18.43-.3.7-.33.35-.04.72.1.98.34l12 11.9 7.7-8.2a1.22 1.22 0 0 1 1.8 0l8.9 8.9v-29.9H64.1zm26.26 6.08c2.7 0 4.9 2.18 4.9 4.87 0 2.6-2.2 4.8-4.9 4.8s-4.88-2.2-4.88-4.9 2.2-4.9 4.88-4.9zM78.1 231.36l-14 12.93v8.5h45.2v-8.1l-9.74-9.7-7.7 8.2a1.22 1.22 0 0 1-1.75 0l-12-11.97z"/>
      <path fill="#E74C3C" fill-rule="nonzero" d="M115.4 211.44V241l13.2-12.2c.2-.18.44-.3.7-.33.37-.04.73.1 1 .34l11.92 11.9 7.7-8.2a1.22 1.22 0 0 1 1.75 0l8.9 8.9v-29.9H115.4zm26.25 6.08c2.7 0 4.88 2.18 4.88 4.87 0 2.6-2.18 4.8-4.88 4.8s-4.9-2.2-4.9-4.9 2.2-4.9 4.9-4.9zm-12.25 13.84l-14 12.93v8.5h45.18v-8.1l-9.73-9.7-7.7 8.2a1.22 1.22 0 0 1-1.75 0l-12-11.97z"/>
      <path fill="#C0C1C5" d="M12.82 257.4h38.46v4.6H12.82zm102.58 0h42.1v4.6h-42.1zm-51.3 0h27.5v4.6H64.1z"/>
    </g>
    <g filter="url(#b)" class="page-droite" transform="translate(362 77)">
      <path fill="#FFF" d="M0 22.93c0-2.76 2.23-5.23 4.97-5.52L169.03.5C171.77.24 174 2.24 174 5v238.4H0V22.94z"/>
      <path fill="#D8D8D8" d="M0 5a5 5 0 0 1 5-5h164a5 5 0 0 1 5 5v8.77H0V5z"/>
      <g transform="translate(9.158 4.59)">
        <ellipse cx="2.8" cy="2.81" fill="#E65336" rx="2.8" ry="2.81"/>
        <ellipse cx="11.9" cy="2.81" fill="#F7C819" rx="2.8" ry="2.81"/>
        <ellipse cx="21.01" cy="2.81" fill="#00B69A" rx="2.8" ry="2.81"/>
      </g>
      <rect width="70.75" height="5.51" x="91.58" y="4.59" fill="#FFF" rx="2.75"/>
      <path fill="#46AFFF" d="M16.48 26.62h141.04v9.18H16.48zm0 154.22h141.04v9.18H16.48z"/>
      <path fill="#C0C1C5" d="M16.48 99.14h141.04v9.18H16.48z"/>
      <path fill="#C6C6C6" d="M18.32 50.5h57.7v39.46H18.3zm-1.84 81.7h64.1v39.46H16.5zm76.92 0h64.1v39.46H93.4z"/>
      <path fill="#C0C1C5" d="M87 50.5h70.52V56H87zm0 10.1h73.26v5.5H87zm0 10.08h59.53v5.5H87zm0 10.1h68.68v5.5H87zM16.48 199.2h36.64v5.5H16.48zm0 10.1h54.95v5.5H16.48zm0 10.1h45.8v5.5h-45.8zm0 10.1h60.45v5.5H16.48zm76.92-30.3h54.96v5.5H93.4zm0 10.1h64.1v5.5H93.4zm0 10.1h45.8v5.5H93.4zm0 10.1h54.96v5.5H93.4z"/>
      <path fill="#46AFFF" d="M18.32 117.5H87v5.5H18.32z"/>
    </g>
    <g filter="url(#c)" class="page-centre" transform="translate(141 10)">
      <path fill="#FFF" d="M0 5c0-2.76 2.25-5 5-5h250a5 5 0 0 1 5 5v284H0V5z"/>
      <path fill="#D8D8D8" d="M0 5c0-2.76 2.25-5 5-5h250a5 5 0 0 1 5 5v13.35H0V5z"/>
      <g transform="translate(9.187 5.505)">
        <ellipse cx="3.67" cy="3.67" fill="#E65336" rx="3.67" ry="3.67"/>
        <ellipse cx="15.62" cy="3.67" fill="#F7C819" rx="3.67" ry="3.67"/>
        <ellipse cx="27.56" cy="3.67" fill="#00B69A" rx="3.67" ry="3.67"/>
      </g>
      <rect width="94.63" height="7.34" x="156.18" y="5.5" fill="#FFF" rx="3.67"/>
      <path fill="#46AFFF" d="M21.13 39.45h217.74v11H21.13zm0 131.2h217.74v32.1H21.13z"/>
      <path fill="#FFAF00" fill-rule="nonzero" d="M21.13 70.02v58.6l26.35-24.2a2.44 2.44 0 0 1 1.37-.64 2.45 2.45 0 0 1 1.97.68L74.6 128l15.3-16.23a2.44 2.44 0 0 1 3.5-.08l17.77 17.6V70H21.13zm52.32 12.05c5.37 0 9.73 4.32 9.73 9.65s-4.36 9.65-9.73 9.65-9.74-4.32-9.74-9.65 4.4-9.65 9.8-9.65zm-24.4 27.44l-27.92 25.7V152h90.03v-15.9l-19.4-19.2-15.3 16.23a2.44 2.44 0 0 1-3.5.08l-23.92-23.7z"/>
      <path fill="#C0C1C5" d="M126.78 69.73h112.1v7.34h-112.1zm0 13.77H226v7.33h-99.2zm0 13.75h107.5v7.34h-107.5zm0 13.75h94.63v7.35h-94.6zm-.9 13.78h99.2v7.34h-99.22zm.9 13.76h47.78v7.34h-47.78zM21.13 219.27h94.63v7.34H21.13zm0 11.93h83.6v7.34h-83.6zm0 11.93h78.1v7.34h-78.1zm0 11.92h87.28v7.34H21.2zm118.52-35.78h82.68v7.34h-82.68zm0 11.93H226v7.34h-86.35zm0 11.93h69.82v7.34h-69.82zm0 11.92h55.12v7.34h-55.12z"/>
      <path d="M139.65 219.27h82.68v7.34h-82.68zm0 11.93H226v7.34h-86.35zm0 11.93h69.82v7.34h-69.82zm0 11.92h55.12v7.34h-55.12z" fill="#C0C1C5"/>
    </g>
  </g>
</svg>
