<svg xmlns="http://www.w3.org/2000/svg" width="48" height="48">
  <circle fill="#135777" r="24" transform="translate(24 24)"/>
  <circle fill="#135777" r="1" transform="translate(24 24)"/>
  <path fill="#FFF" d="M24 14.2c-.7 0-1.42.08-2.13.24.52.68 2.08 2.86 3.56 5.55 3.17-1.26 4.62-3.01 4.95-3.45-1.8-1.51-4.05-2.34-6.38-2.34zm7.67 3.73c-.4.5-2.05 2.4-5.37 3.8.23.44.44.86.6 1.28l.2.47c.68-.1 1.42-.13 2.2-.13 2.13.02 3.9.33 4.5.45-.06-2.14-.8-4.2-2.13-5.87zm-11.95-2.75c-.31.15-.6.31-.89.49-2.2 1.38-3.81 3.61-4.39 6.16 1.05 0 4.65-.08 8.78-1.17-.5-.95-1.04-1.84-1.54-2.62-.92-1.43-1.68-2.49-1.96-2.86zm4.49 7.26c-4.7 1.4-9.2 1.4-10 1.4V24c0 2.36.88 4.63 2.4 6.4.5-.8 3.26-4.88 8.05-6.44.1-.02.25-.06.25-.06-.2-.46-.4-.95-.7-1.46zm5.47 2.67c-.65 0-1.29.08-1.89.17 1.16 3.21 1.69 5.88 1.84 6.74 2.13-1.5 3.6-3.8 4.03-6.36-.44-.13-2-.55-3.98-.55zm-4 .67c-5.3 1.87-7.3 5.4-7.62 6.02 1.72 1.32 3.78 2.02 5.94 2.02 1.3 0 2.55-.25 3.73-.74-.16-.95-.73-3.85-2.05-7.3zm10.07-1.77c0 6.49-5.26 11.75-11.75 11.75S12.25 30.5 12.25 24.01c0-4.8 2.88-8.93 7-10.75 1.45-.64 3.06-1 4.75-1 6.49 0 11.75 5.26 11.75 11.75zm0 0"/>
</svg>