<svg xmlns="http://www.w3.org/2000/svg" width="35" height="35">
    <circle stroke="#FFF" stroke-width="2" fill="none" cx="17.5" cy="17.5" r="15.5"/>
    <circle class="circle-hover" fill="#FFF" cy=".01" r=".5" transform="translate(17.5 17.5)"/>
    <path fill="#FFF" d="M18.56 21.17c-1-.07-1.4-.57-2.2-1.04-.42 2.25-.94 4.4-2.5 5.53-.47-3.4.7-5.95 1.26-8.65-.93-1.56.1-4.72 2.08-3.95 2.43.97-2.1 5.86.94 6.47 3.18.64 4.47-5.5 2.5-7.5-2.84-2.88-8.27-.06-7.6 4.07.16 1 1.2 1.3.4 2.7-1.8-.4-2.35-1.84-2.28-3.76.1-3.13 2.8-5.32 5.52-5.62 3.43-.38 6.65 1.25 7.1 4.48.5 3.64-1.56 7.58-5.22 7.3zm0 0"/>
</svg>