<svg xmlns="http://www.w3.org/2000/svg" width="52" height="52">
  <circle fill="#135777" r="24" transform="translate(26 26)"/>
  <circle fill="#135777" r=".5" transform="translate(26 26)"/>
  <path fill="#FFF" d="M26 16.2c-.7 0-1.42.08-2.13.24.52.68 2.08 2.86 3.56 5.55 3.17-1.3 4.62-3.07 4.95-3.5-1.8-1.5-4.05-2.35-6.38-2.35zm7.67 3.73c-.4.5-2.05 2.4-5.37 3.8.23.44.44.86.6 1.28l.2.5c.68-.1 1.42-.1 2.2-.1 2.13 0 3.9.33 4.5.45-.06-2.13-.8-4.2-2.13-5.86zm-11.95-2.75c-.3.15-.6.3-.9.5-2.2 1.37-3.8 3.6-4.38 6.15 1.05 0 4.65-.08 8.78-1.17-.5-.95-1.04-1.84-1.54-2.62-.92-1.43-1.68-2.5-1.96-2.86zm4.5 7.26c-4.7 1.4-9.2 1.4-10 1.4V26c0 2.36.87 4.63 2.4 6.4.5-.8 3.25-4.88 8.04-6.44l.25-.06c-.2-.46-.4-.95-.7-1.46zm5.46 2.67c-.65 0-1.3.1-1.9.2 1.17 3.2 1.7 5.9 1.85 6.77 2.13-1.5 3.6-3.8 4.03-6.36-.44-.13-2-.55-3.98-.55zm-4 .7c-5.3 1.9-7.3 5.4-7.62 6 1.72 1.37 3.78 2.07 5.94 2.07 1.3 0 2.55-.25 3.73-.74-.16-.95-.73-3.85-2.05-7.3zM37.75 26c0 6.5-5.26 11.76-11.75 11.76-6.5 0-11.75-5.26-11.75-11.75 0-4.8 2.88-8.9 7-10.7 1.45-.63 3.06-1 4.75-1 6.5 0 11.75 5.27 11.75 11.76zm0 0"/>
</svg>
