<svg width="29" height="45" xmlns="http://www.w3.org/2000/svg"><g transform="translate(1 1)" stroke-width="2" stroke="#FFF" fill="none" fill-rule="evenodd" stroke-linecap="round" stroke-linejoin="round"><path d="M11.22 33.65V43h-2.8m6.54-10.28V43h2.8m-2.8-3.74s2-.95 4-2.88"/><path d="M23.47 18.9c.97-1.18 1.55-2.7 1.55-4.35 0-3.33-2.36-6.1-5.5-6.74.07-.4.1-.8.1-1.24 0-3.6-2.7-6.54-6.03-6.54-3.37 0-6.07 2.94-6.07 6.55 0 .43.04.84.1 1.24-3.23.55-5.7 3.36-5.7 6.77 0 1.6.54 3.06 1.46 4.23-2 1.5-3.34 3.87-3.34 6.57 0 4.52 3.65 8.17 8.14 8.17 1.98 0 3.76-.7 5.17-1.83 1.4 1.16 3.2 1.85 5.14 1.85 4.5 0 8.16-3.65 8.16-8.17 0-2.63-1.25-4.96-3.17-6.46zM8.83 29.95c-2.57 0-4.65-2.08-4.65-4.65"/><circle cx="17.24" cy="13.17" r=".76"/></g></svg>