<svg width="35" height="45" xmlns="http://www.w3.org/2000/svg"><g transform="translate(1 1)" stroke-width="2" stroke="#FFF" fill="none" fill-rule="evenodd" stroke-linecap="round" stroke-linejoin="round"><path d="M20.9 5.73c.13-.64.14-1.32-.02-2.02-.4-1.8-1.9-3.25-3.75-3.6-3.03-.54-5.68 1.77-5.68 4.7 0 .3.04.65.1.96H1.9C.85 5.76 0 6.6 0 7.66v33.4c0 1.05.85 1.9 1.9 1.9h28.64c1.06 0 1.9-.85 1.9-1.9V7.65c0-1.08-.84-1.93-1.9-1.93H20.9z"/><ellipse cx="16.23" cy="4.77" rx=".95" ry=".95"/><path d="M21 5.73l1.9 5.72H9.55l1.9-5.72"/><path d="M22.9 9.54h4.78v29.6H4.78V9.54h4.76m.96 8.6h5.73M10.5 22.9h11.45M10.5 27.68h11.45M10.5 32.45h11.45"/></g></svg>