<svg class="anim-front" width="609" height="381" viewBox="661 476 609 381" xmlns="http://www.w3.org/2000/svg">
  <g fill="none" fill-rule="evenodd">
    <path fill="#353B45" d="M661 496h608.4v361H661z"/>
    <g id="logojs" class="logojs">
      <ellipse fill="#F0A000" cx="50" cy="49.97" rx="50" ry="49.97" style="transform: scale(0)"/>
      <path stroke="#FFF" stroke-width="9" d="M65.66 38.97v-9.84H35.9L34.4 47.4h31.26l-1.78 18.64-14.1 3.88-15.52-3.88V55.58" style="stroke-dashoffset: 447px"/>
    </g>
    <g class="line-code" id="line-code" stroke="#FFF" stroke-width="7" stroke-linecap="round">
      <path d="M720.5 521.5H785" stroke="none"/>
      <path d="M757.5 541.5H787" stroke="none"/>
      <path d="M808.5 541.5H911" stroke="none"/>
      <path d="M808.5 561.5H971" stroke="none"/>
      <path d="M808.5 581.5H944" stroke="none"/>
      <path d="M723.5 615.5H783" stroke="none"/>
      <path d="M804.5 615.5H900" stroke="none"/>
      <path d="M921.5 615.5H994" stroke="none"/>
      <path d="M804.5 635.5H966" stroke="none"/>
      <path d="M987.5 635.67h164.8" stroke="none"/>
      <path d="M723.5 658.5H840" stroke="none"/>
      <path d="M861.5 658.5H939" stroke="none"/>
      <path d="M960.5 658.5h26.58" stroke="none"/>
      <path d="M723.5 678.5H754" stroke="none"/>
      <path d="M775.5 678.5H898" stroke="none"/>
      <path d="M723.5 712.5h136.6" stroke="none"/>
      <path d="M882.5 712.5h99.55" stroke="none"/>
      <path d="M722.5 732.5H936" stroke="none"/>
      <path d="M957.5 731.5h99.55" stroke="none"/>
      <path d="M1079.5 731.5H1214" stroke="none"/>
      <path d="M723.5 752.5H754" stroke="none"/>
      <path d="M775.5 752.5H797" stroke="none"/>
      <path d="M818.5 752.5H857" stroke="none"/>
      <path d="M878.5 752.5H1007" stroke="none"/>
      <path d="M723.5 786.5H837" stroke="none"/>
      <path d="M858.5 786.5H880" stroke="none"/>
      <path d="M723.5 806.5H764" stroke="none"/>
      <path d="M785.5 806.5h168.53" stroke="none"/>
      <path d="M723.5 826.5h223" stroke="none"/>
      <path d="M966.5 826.5h44.5" stroke="none"/>
      <path d="M723.5 846.5h112" stroke="none"/>
      <path d="M723.5 846.5h112" stroke="none"/>
      <path d="M855.5 846.5h266" stroke="none"/>
    </g>
    <path fill="#E1E0E1" d="M661 476h608.4v20H661z"/>
    <g transform="translate(671 482)">
      <ellipse fill="#FF312F" cx="4" cy="4" rx="4" ry="4"/>
      <ellipse fill="#FFBC00" cx="17" cy="4" rx="4" ry="4"/>
      <ellipse fill="#00D82F" cx="30" cy="4" rx="4" ry="4"/>
    </g>
  </g>
</svg>
