<svg xmlns="http://www.w3.org/2000/svg" viewBox="0 0 33 28">
  <path fill="#FFF" d="M12.692 19.09c0 .531-.082 1.075-.248 1.632a3.918 3.918 0 0 1-.852 1.511c-.404.45-.883.676-1.438.676-.555 0-1.035-.225-1.438-.676a3.918 3.918 0 0 1-.853-1.511 5.716 5.716 0 0 1-.248-1.631c0-.53.083-1.074.248-1.63.166-.558.45-1.061.853-1.512.403-.45.883-.676 1.438-.676.555 0 1.034.225 1.438.676.403.45.687.954.852 1.511.166.557.248 1.1.248 1.63zm12.693 0c0 .531-.083 1.075-.248 1.632a3.918 3.918 0 0 1-.853 1.511c-.403.45-.883.676-1.438.676-.555 0-1.034-.225-1.438-.676a3.918 3.918 0 0 1-.852-1.511 5.716 5.716 0 0 1-.248-1.631c0-.53.082-1.074.248-1.63.165-.558.45-1.061.852-1.512.404-.45.883-.676 1.438-.676.555 0 1.035.225 1.438.676.403.45.687.954.853 1.511.165.557.248 1.1.248 1.63zm3.173 0c0-1.59-.456-2.942-1.369-4.056-.912-1.114-2.148-1.67-3.708-1.67-.542 0-1.831.139-3.867.417-.94.146-1.977.219-3.114.219-1.137 0-2.175-.073-3.114-.219-2.01-.278-3.298-.417-3.867-.417-1.56 0-2.796.556-3.708 1.67-.913 1.114-1.369 2.466-1.369 4.057 0 1.167.212 2.184.635 3.052.423.869.958 1.552 1.606 2.049.648.497 1.455.895 2.42 1.193.965.298 1.89.494 2.776.587.886.092 1.871.139 2.955.139h3.332c1.084 0 2.069-.047 2.955-.14a14.557 14.557 0 0 0 2.776-.586c.965-.298 1.772-.696 2.42-1.193.648-.497 1.183-1.18 1.606-2.049.423-.868.635-1.885.635-3.052zM33 15.59c0 2.745-.403 4.94-1.21 6.583a8.01 8.01 0 0 1-2.092 2.645c-.892.743-1.825 1.313-2.796 1.71-.972.398-2.096.713-3.372.945-1.275.232-2.41.378-3.4.438-.992.06-2.096.089-3.313.089-1.03 0-1.97-.02-2.816-.06a44.671 44.671 0 0 1-2.925-.248 17.587 17.587 0 0 1-3.024-.597 20.852 20.852 0 0 1-2.717-1.024 8.77 8.77 0 0 1-2.4-1.61 8.262 8.262 0 0 1-1.705-2.288C.41 20.543 0 18.348 0 15.591c0-3.142.899-5.767 2.697-7.875a10.767 10.767 0 0 1-.535-3.38c0-1.539.337-2.984 1.011-4.336 1.428 0 2.684.262 3.768.786 1.084.523 2.334 1.342 3.748 2.455 1.944-.464 3.986-.696 6.128-.696 1.957 0 3.808.213 5.553.637 1.388-1.087 2.625-1.89 3.709-2.406C27.163.259 28.412 0 29.827 0a9.584 9.584 0 0 1 1.011 4.335c0 1.154-.178 2.267-.535 3.341C32.1 9.797 33 12.436 33 15.591z"/>
</svg>
