<svg class="inline-play-button" viewBox="0 0 107 107" xmlns="http://www.w3.org/2000/svg">
    <g fill="none" fill-rule="evenodd">
    <path class="circle"
          d="M96.2 28.7C82.57 5.1 52.35-3 28.7 10.64 5.1 24.27-3 54.5 10.64 78.14c13.64 23.62 43.86 31.7 67.5 18.07 23.63-13.6 31.73-43.82 18.08-67.5z"
          stroke="#ECECEC" stroke-width="8"/>
    <g class="play">
        <path d="M75.73 50.14L44.18 31.72c-2.88-1.68-5.2-.33-5.18 3l.16 36.55c.02 3.33 2.36 4.68 5.25 3.02l31.36-18.1c2.88-1.7 2.9-4.4 0-6.1z" fill="#EDEDED"/>
        <path d="M50.5 52.2c.75.25 1.36.65 1.82 1.23.47.58.7 1.27.7 2.1 0 1.26-.42 2.25-1.26 2.94-.83.7-1.87 1.03-3.1 1.03-1 0-1.86-.22-2.62-.68-.77-.45-1.32-1.12-1.66-2l2.65-1.5c.25.82.8 1.23 1.63 1.23.43 0 .76-.1 1-.3.22-.2.34-.48.34-.82 0-.34-.12-.6-.35-.8-.23-.2-.56-.3-1-.3H48l-1.15-1.73 1.9-2.33h-3.98v-2.9h7.72v2.4l-2 2.44zm7.96-4.83c1.64 0 3.02.57 4.12 1.7 1.1 1.14 1.65 2.56 1.65 4.24 0 1.7-.55 3.1-1.65 4.28-1.1 1.14-2.48 1.7-4.12 1.7h-4.83v-11.9h4.83zm0 8.94c.83 0 1.5-.22 2.02-.8s.78-1.24.78-2.2c0-.9-.26-1.6-.78-2.13-.52-.55-1.2-.82-2.02-.82h-1.7v6h1.7z" fill="#136A8A"/>
    </g>
    </g>
</svg>
