<?xml version="1.0" encoding="UTF-8"?>
<svg width="33px" height="33px" viewBox="0 0 33 33" version="1.1" xmlns="http://www.w3.org/2000/svg" xmlns:xlink="http://www.w3.org/1999/xlink">
    <!-- Generator: Sketch 42 (36781) - http://www.bohemiancoding.com/sketch -->
    <title>pinterest-circle</title>
    <desc>Created with Sketch.</desc>
    <defs></defs>
    <g id="Home-v2-Copy" stroke="none" stroke-width="1" fill="none" fill-rule="evenodd">
        <g id="Home-v2-Copy-8" transform="translate(-1086.000000, -1663.000000)">
            <g id="situation" transform="translate(288.000000, 1462.000000)">
                <g id="Group-49" transform="translate(718.000000, 201.000000)">
                    <g id="pinterest-circle" transform="translate(81.000000, 1.000000)">
                        <path d="M15.5,0 C6.93947917,0 0,6.93947917 0,15.5 C0,24.0605208 6.93947917,31 15.5,31 C24.0605208,31 31,24.0605208 31,15.5 C31,6.93947917 24.0605208,0 15.5,0 Z" id="Shape" stroke="#FFFFFF" stroke-width="2"></path>
                        <path d="M16.5607813,19.1731771 C15.5661979,19.0972917 15.1496354,18.6048437 14.3714063,18.1333854 C13.9435417,20.3792708 13.4204167,22.533125 11.8704167,23.6584896 C11.3908854,20.2614062 12.5711458,17.7135937 13.1201042,15.0059375 C12.1852604,13.4317187 13.2315104,10.2655208 15.2045313,11.04375 C17.63125,12.0060417 13.1023438,16.8966146 16.1426042,17.5085417 C19.316875,18.1446875 20.6133854,11.9995833 18.6452083,10.0039583 C15.8003125,7.11869792 10.3672396,9.93776042 11.0356771,14.0678646 C11.1971354,15.0769792 12.2417708,15.38375 11.4522396,16.7771354 C9.63260417,16.3734896 9.08848958,14.938125 9.15953125,13.0248437 C9.2709375,9.89255208 11.97375,7.69833333 14.6830208,7.39640625 C18.1107813,7.01536458 21.3270313,8.65416667 21.7726563,11.8801042 C22.2715625,15.519375 20.2242708,19.4573437 16.5607813,19.1731771 Z" id="Path" fill="#FFFFFF"></path>
                    </g>
                </g>
            </g>
        </g>
    </g>
</svg>