<svg xmlns="http://www.w3.org/2000/svg" width="48" height="48">
  <circle fill="#135777" cx=".02" r="24" transform="translate(24 24)"/>
  <circle fill="#135777" cx=".02" r="1" transform="translate(24 24)"/>
  <path fill="#FFF" d="M25.64 29.7c-1.54-.13-2.18-.9-3.4-1.62-.65 3.48-1.46 6.8-3.86 8.55-.74-5.26 1.1-9.2 1.94-13.4-1.45-2.43.17-7.34 3.22-6.13 3.76 1.5-3.25 9.06 1.45 10 4.9 1 6.9-8.52 3.83-11.6-4.4-4.48-12.82-.1-11.78 6.28.24 1.56 1.86 2.04.63 4.2-2.8-.63-3.66-2.85-3.55-5.8.17-4.86 4.36-8.26 8.55-8.73 5.3-.6 10.3 1.95 11 6.95.8 5.63-2.4 11.73-8.06 11.3zm0 0"/>
</svg>