<svg width="40" height="40" xmlns="http://www.w3.org/2000/svg">
  <path d="M20 0C8.9 0 0 8.9 0 20s8.9 20 20 20 20-8.9 20-20S31.1 0 20 0zm1.82 30.9c0 .55-.37.92-.9.92H19.1c-.56 0-.93-.37-.93-.9V29.1c0-.56.37-.93.9-.93h1.83c.55 0 .92.37.92.9v1.83zm2.45-8.08c-1.27 1.1-2.18 1.82-2.45 2.82-.1.45-.46.72-.9.72H19.1c-.56 0-1-.45-.93-1 .37-2.63 2.27-4.1 3.82-5.36 1.62-1.27 2.53-2.1 2.53-3.64 0-2.54-2-4.54-4.55-4.54s-4.56 2-4.56 4.54v.55c.1.48-.18.94-.63 1l-1.73.57c-.55.2-1.1-.18-1.2-.72-.08-.46-.08-.9-.08-1.37 0-4.54 3.62-8.18 8.17-8.18s8.18 3.63 8.18 8.17c0 3.37-2.18 5.1-3.9 6.46z" fill="#61A4DE"/>
</svg>
