<svg width="43" height="45" xmlns="http://www.w3.org/2000/svg">
  <g stroke-width="2" stroke="#FFF" fill="none" fill-rule="evenodd" stroke-linejoin="round">
    <path d="M21.13 26.26c3.45 0 5.74-4.66 6.08-5.85.1 0 .6-.3.6-.4 1.9-3.3-.1-3.7-.1-3.7s.1-1.74-.33-3.4c0 0-.3-4.12-6.15-4.12C15.3 8.7 15 12.8 15 12.8c-.44 1.67-.35 3.44-.35 3.44s-2.03.38-.17 3.74c.04.08.56.35.58.43.34 1.2 2.63 5.9 6.07 5.9zM7.3 36c0-5.07 3.3-7.47 6.86-8.6 2.5-.82 3.8-2.14 3.8-2.14m6.34 0s.73.74 2.14 1.44M38.88 44h-8.2c-1.12 0-2.04-.92-2.04-2.05V35.8h12.3v6.15c0 1.13-.93 2.05-2.06 2.05z" stroke-linecap="round"/>
    <path d="M29.15 34.53c0-3.1 2.53-5.63 5.64-5.63 3.1 0 5.6 2.52 5.6 5.63" stroke-linecap="square"/>
    <path d="M21.48 41.95C10.18 41.95 1 32.78 1 21.48 1 10.18 10.17 1 21.48 1c11.3 0 20.47 9.17 20.47 20.48 0 1.35-.13 2.67-.38 3.95" stroke-linecap="round"/>
  </g>
</svg>
