<svg width="81" height="66" xmlns="http://www.w3.org/2000/svg">
  <g fill="#F5F5FA">
    <path d="M21.7 19.2V66H35V50.6h11V66h13.3V19.2L40.5 6.7 21.7 19.2zM34 48.4h-6.7v-6.6H34v6.6zm0-10h-6.7V32H34v6.5zm0-9.8h-6.7V22H34v6.6zM47 22h7v6.6h-7V22zm0 10h7v6.5h-7V32zm0 9.8h7v6.6h-7v-6.6zm-3 6.6h-6.6v-6.6H44v6.6zm0-10h-6.6V32H44v6.5zm0-9.8h-6.6V22H44v6.6z"/>
    <path d="M40 4.5h1l19.5 13h6.2L40.5 0 14.3 17.4h6.2m58.8 21h-17V66h17V38.3zm-5 20h-6.7v-6.8h6.6v6.6zm0-10h-6.7V42h6.6v6.6zM62.3 34H81v2H62.4zm-43.7 4.3h-17V66h17V38.3zm-5.2 20H6.8v-6.7h6.6v6.6zm0-10H6.8V42h6.6v6.6zM0 34h18.6v2H0z"/>
  </g>
</svg>
