<svg width="120" height="33" xmlns="http://www.w3.org/2000/svg">
  <g fill="#F5F5FA">
    <path d="M92.4 23.85l-3.5-4.3h1.55c.22 0 .43-.13.52-.33.1-.2.07-.44-.07-.6l-3.7-4.76h1.1c.2 0 .4-.12.5-.32.1-.2.1-.43-.04-.6l-4.86-6.7c-.1-.15-.28-.24-.46-.24-.2 0-.36.1-.47.24l-4.86 6.7c-.1.17-.1.4 0 .6.1.2.3.32.5.32h1.1l-.8 1.1 1 1.4c.1.17.2.37.27.57.06.3.03.63-.1.92-.1.18-.23.34-.4.47l1.9 2.4c.33.43.4 1.03.16 1.52l-.2.3c-.12.13-.24.24-.4.32l1.57 1.92c.36.43.43 1.02.2 1.52-.24.5-.74.82-1.3.82H81v3.66c0 .32.25.58.57.58h3.75c.33 0 .6-.26.6-.58V24.8h6.04c.23 0 .43-.13.52-.33.1-.2.07-.45-.07-.62z"/>
    <path d="M81.76 26.2c.1-.2.06-.44-.08-.62l-2.52-3.12h.93c.2 0 .4-.13.5-.33.1-.2 0-.44-.1-.6l-2.7-3.5h.6c.2 0 .4-.1.5-.3.1-.2.1-.43-.1-.6L75.1 12c0-.08-.12-.13-.22-.13s-.2.05-.26.14l-3.7 5.2c-.13.2-.15.4-.06.6.1.2.3.3.52.3h.6l-2.8 3.5c-.15.2-.18.4-.08.6.1.2.3.37.52.37h.9l-2.5 3.1c-.15.2-.18.4-.08.6s.3.37.5.37H73v4.5c0 .33.26.6.58.6h2.65c.32 0 .58-.27.58-.6v-4.5h4.5c.2 0 .4-.13.5-.33zm-62.62 3.64c1.58 0 2.86-1.28 2.86-2.85 0-1.2-.75-2.3-1.83-2.7.07-.3.1-.5.1-.8 0-1.6-1.28-2.88-2.85-2.88-1.33 0-2.44.9-2.76 2.12l-.24-.1c.13-.37.2-.75.2-1.15 0-2-1.64-3.6-3.64-3.6s-3.64 1.6-3.64 3.6c0 .4.07.8.2 1.2l-.3.13c-.28-1.27-1.42-2.2-2.78-2.2-1.56 0-2.86 1.3-2.86 2.85 0 .26.08.53.16.8C.7 24.82 0 25.82 0 26.94c0 1.6 1.28 2.9 2.86 2.9.35 0 .7-.1 1.03-.2V31H1.5c-.34 0-.63.28-.63.63s.3.63.64.63h19c.4 0 .7-.28.7-.63s-.3-.63-.6-.63h-2.4v-1.4c.37.14.7.22 1.07.22zM7 31.02H5.15v-1.4c.32.14.67.22 1.03.22.43 0 .84-.1 1.2-.28.44.18.9.28 1.4.28.57 0 1.12-.14 1.62-.38v1.56H7zm8.13 0H11.7v-1.56c.5.24 1.04.38 1.6.38.47 0 .92-.1 1.34-.26.35.16.75.26 1.17.26.4 0 .8-.08 1.1-.2V31h-1.7zM118.25 9.44c.54-.93.85-2 .85-3.16 0-3.47-2.78-6.28-6.2-6.28-2.2 0-4.12 1.15-5.22 2.88-.57-.2-1.18-.3-1.8-.3-3.1 0-5.6 2.53-5.6 5.64 0 .6.1 1.18.27 1.72-.76.97-1.22 2.2-1.22 3.53 0 3.12 2.5 5.65 5.58 5.65 1.2 0 2.3-.37 3.2-.98l-1.1 12.8h5.3l-1.1-12.8c.9.62 2 .98 3.2.98 3.1 0 5.6-2.53 5.6-5.65 0-1.58-.62-3-1.7-4.03z"/>
  </g>
</svg>
