<svg width="112" height="34" xmlns="http://www.w3.org/2000/svg">
  <g fill="#F5F5FA">
    <path d="M29.27 21.28l-4.17-5.12h1.84c.27 0 .5-.16.63-.4.1-.23.08-.52-.08-.73L23 9.37h1.33c.26 0 .5-.14.6-.38.13-.3.1-.6-.05-.8l-5.82-8c-.1-.2-.32-.3-.54-.3-.22 0-.42.1-.55.24l-5.84 8c-.15.2-.17.5-.06.7.12.25.36.4.62.4H14l-1 1.3 1.2 1.66c.16.2.24.45.3.7.06.36.02.74-.15 1.1-.1.2-.27.4-.45.54l2.26 2.9c.4.5.48 1.2.2 1.8-.07.13-.16.25-.26.36-.13.16-.27.3-.44.38l1.86 2.3c.42.5.5 1.2.22 1.8-.28.6-.88.95-1.54.95h-.62v4.36c0 .4.3.7.7.7h4.5c.38 0 .7-.3.7-.7v-7.1h7.25c.27 0 .5-.17.63-.4.1-.26.08-.5-.1-.75z"/>
    <path d="M16.5 24.08c.12-.24.1-.52-.08-.73l-3.03-3.73h1.1c.2 0 .5-.15.6-.4.1-.23.1-.5-.1-.72l-3.3-4.14h.7c.23 0 .5-.15.6-.38.1-.23.1-.5-.08-.72l-4.4-6.1c-.07-.1-.2-.16-.3-.16-.16 0-.3.06-.36.17l-4.45 6.1c-.15.2-.17.48-.05.7.12.24.35.4.6.4h.74L1.5 18.5c-.16.2-.2.5-.08.73.12.24.36.4.62.4H3.2l-3.05 3.7c-.17.2-.2.5-.1.74.12.24.36.4.63.4H6v5.4c0 .37.3.7.7.7h3.18c.38 0 .7-.33.7-.7v-5.4h5.3c.27 0 .5-.15.63-.4zm92.64 6.76c1.58 0 2.86-1.28 2.86-2.85 0-1.2-.75-2.3-1.83-2.7.07-.3.1-.5.1-.8 0-1.6-1.28-2.9-2.85-2.9-1.33 0-2.44.9-2.76 2.12l-.24-.1c.13-.37.2-.75.2-1.15 0-2-1.64-3.6-3.64-3.6s-3.64 1.6-3.64 3.6c0 .4.07.8.2 1.2l-.3.13c-.28-1.26-1.42-2.2-2.78-2.2-1.57 0-2.85 1.27-2.85 2.84 0 .27.1.54.2.8-1 .44-1.7 1.45-1.7 2.6 0 1.6 1.3 2.86 2.9 2.86.36 0 .7-.08 1.04-.2V32h-2.4c-.34 0-.63.28-.63.63s.3.63.6.63h19c.37 0 .65-.28.65-.63s-.3-.63-.63-.63h-2.4v-1.4c.35.14.7.22 1.05.22zM97 32.02h-1.84v-1.4c.32.14.67.22 1.03.22.4 0 .8-.1 1.2-.28.4.18.9.28 1.4.28.5 0 1.1-.14 1.6-.38v1.56H97zm8.13 0h-3.44v-1.56c.5.24 1 .38 1.6.38.4 0 .9-.1 1.3-.26.3.16.7.26 1.1.26.33 0 .7-.08 1-.2V32H105z"/>
  </g>
</svg>
