<svg xmlns="http://www.w3.org/2000/svg" width="52" height="52">
  <circle fill="#135777" r="24" transform="translate(26 26)"/>
  <circle fill="#135777" r=".5" transform="translate(26 26)"/>
  <path fill="#FFF" d="M34.76 21.66v.6c0 6.26-4.74 13.46-13.43 13.46-2.67 0-5.16-.78-7.25-2.12.37.04.75.06 1.13.06 2.26 0 4.3-.75 5.9-2.02-2.05-.04-3.8-1.4-4.4-3.28.3.05.6.08.9.08.4 0 .84-.06 1.24-.17-2.16-.43-3.8-2.34-3.8-4.63v-.06c.65.35 1.38.57 2.16.6-1.28-.86-2.1-2.3-2.1-3.94 0-.87.22-1.68.63-2.38 2.32 2.86 5.8 4.74 9.73 4.94-.08-.35-.12-.7-.12-1.08 0-2.6 2.13-4.73 4.74-4.73 1.36 0 2.6.53 3.45 1.5 1.07-.27 2.1-.66 3-1.2-.36 1.1-1.1 2.03-2.08 2.62.96-.12 1.87-.37 2.72-.75-.63.95-1.43 1.8-2.36 2.45l-.03.03zm0 0"/>
</svg>
