<svg xmlns="http://www.w3.org/2000/svg" width="35" height="35">
    <circle stroke="#FFF" stroke-width="2" fill="none" cx="17.5" cy="17.5" r="15.5"/>
    <circle class="circle-hover" fill="#FFF" r=".5" transform="translate(17.5 17.5)"/>
    <path fill="#FFF" d="M23.8 14.7v.4c0 4.03-3.06 8.68-8.67 8.68-1.73 0-3.33-.5-4.68-1.37.24.05.48.06.73.06 1.43 0 2.74-.5 3.8-1.3-1.35-.03-2.47-.92-2.86-2.13.18.04.37.06.57.06.26 0 .53-.05.8-.1-1.4-.3-2.47-1.54-2.47-3v-.05c.42.23.9.37 1.4.38-.83-.55-1.37-1.48-1.37-2.54 0-.57.15-1.1.4-1.55 1.52 1.85 3.77 3.06 6.3 3.2-.05-.23-.07-.46-.07-.7 0-1.7 1.35-3.06 3.04-3.06.88 0 1.67.37 2.23.96.7-.14 1.35-.4 1.94-.74-.22.72-.7 1.32-1.34 1.7.62-.08 1.2-.24 1.76-.48-.4.6-.93 1.15-1.53 1.58zm0 0"/>
</svg>