<svg width="30" height="30" xmlns="http://www.w3.org/2000/svg" xmlns:xlink="http://www.w3.org/1999/xlink">
  <defs>
    <circle id="a" cx="13" cy="13" r="13"/>
    <mask id="b" x="-2" y="-2" width="30" height="30">
      <path fill="#fff" d="M-2-2h30v30H-2z"/>
      <use xlink:href="#a"/>
    </mask>
  </defs>
  <g transform="translate(2 2)" fill="none" fill-rule="evenodd">
    <mask id="c" fill="#fff">
      <use xlink:href="#a"/>
    </mask>
    <use fill="#81D4FA" xlink:href="#a"/>
    <use stroke="#317BB8" mask="url(#b)" stroke-width="4" xlink:href="#a"/>
    <g mask="url(#c)">
      <path fill="#BBDEFB" d="M2.68 2.763l8.09-4.433L19.983.3l5.097 5.85 1.49 8.88"/>
      <path fill="#B2EBF2" d="M1.565 4.328l13.36 22.194-10.388-1.186L-1.77 12.82l.926-5.434"/>
      <path d="M23.122 6.053c.118.302.127.568.027.797-.06.174-.22.366-.49.577-.26.192-.54.44-.86.742-.48.54-.51 1.08-.08 1.64.24.36.53.72.87 1.06.32.37.36.73.11 1.08-.18.3-.3.5-.38.61-.18.18-.4.24-.69.19l-1.2-.24c-.93-.18-1.5.18-1.73 1.07-.06.42-.11.74-.15.95-.05.3-.13.51-.23.64-.13.19-.35.3-.64.34-.4.02-.67.01-.79-.01-.28-.07-.46-.27-.56-.58l-.04-.1c-.56-.97-.98-1.5-1.28-1.59-.29-.1-.92.11-1.88.64-.3.14-.55.21-.75.19-.22 0-.45-.11-.69-.34-.25-.24-.39-.47-.44-.69-.04-.21.02-.46.18-.75.08-.13.21-.45.4-.95.33-.82.1-1.41-.68-1.76l-.9-.37c-.29-.15-.49-.27-.6-.37-.15-.17-.22-.4-.19-.7.05-.38.12-.66.2-.83.12-.23.36-.36.7-.38.17-.03.51-.12 1.01-.26.85-.29 1.16-.88.94-1.79-.07-.19-.15-.49-.26-.91-.12-.32-.12-.59.01-.81.1-.2.29-.4.58-.61.252-.17.492-.23.72-.18.144.05.344.16.6.35.125.12.402.33.83.63.7.45 1.295.37 1.794-.26.29-.33.48-.59.6-.77.17-.3.36-.49.55-.59.243-.09.53-.08.86.02.33.1.552.27.68.49.12.2.17.47.15.8-.01.1 0 .39.03.87.05.87.513 1.303 1.384 1.303.53 0 .84-.007.94-.016.33-.048.59-.007.79.12.21.13.38.36.506.69zm-6.627 4.41c.535.018.998-.16 1.388-.536.362-.357.544-.802.544-1.333.018-.53-.163-.99-.544-1.373-.372-.39-.82-.59-1.348-.59-.526 0-.975.2-1.347.59-.38.39-.57.85-.57 1.38.008.52.194.96.557 1.32.363.37.803.55 1.32.55z" fill="#0288D1"/>
      <path d="M22.78 20.16c.165-.174.264-.312.3-.412.055-.156.05-.32-.013-.495-.163-.403-.472-.59-.925-.563-.635.018-1.034-.046-1.198-.192-.136-.128-.226-.508-.272-1.14-.01-.257-.05-.458-.122-.605-.118-.183-.29-.31-.517-.384-.227-.06-.427-.04-.6.06-.08.07-.208.21-.38.42-.372.47-.658.73-.857.75-.21.02-.558-.13-1.048-.46-.263-.19-.427-.3-.49-.33-.182-.06-.363-.01-.544.14-.218.14-.34.32-.368.52-.045.14-.036.33.027.59.127.62.132 1.01.014 1.17-.1.17-.454.35-1.06.54-.455.12-.704.36-.75.71-.045.38.145.66.572.87.62.32.98.58 1.07.76.06.17-.04.56-.3 1.18-.09.23-.13.41-.11.55 0 .16.08.33.23.49.27.25.61.29 1 .09.65-.3 1.06-.43 1.24-.39.16.04.41.37.76.97.33.56.75.69 1.28.39.12-.086.22-.22.3-.416.02-.057.04-.226.08-.51.12-.807.56-1.118 1.33-.935l.58.14c.16.03.31-.01.43-.11.03-.03.13-.15.3-.37.11-.17.14-.34.11-.493-.05-.1-.14-.24-.26-.42-.45-.597-.66-.977-.64-1.14.01-.19.27-.53.8-1.018z" fill="#039BE5"/>
      <path d="M17.787 20.022c.263-.256.563-.375.898-.357.345.01.63.13.858.357.227.248.34.536.34.866.018.348-.104.65-.367.906-.236.257-.527.38-.87.37-.328 0-.614-.132-.86-.397-.235-.238-.352-.517-.352-.838 0-.34.117-.65.353-.91z" fill="#81D4FA"/>
      <path d="M20.373 14.748c.127-.366.104-.687-.068-.962-.227-.375-.53-.55-.912-.52-.172.017-.286.1-.34.246 0 .027-.036.17-.11.426-.044.274-.08.476-.108.604-.11.485-.172.742-.19.77-.127.274-.363.44-.708.494-.526.073-.903.082-1.13.027-.353-.1-.607-.375-.76-.824-.02-.03-.142-.26-.37-.69-.325-.63-.752-.89-1.278-.76-.3.07-.5.22-.6.45-.08.15-.13.4-.15.75-.08 1.33-.69 2.35-1.83 3.03-1.15.7-2.35.78-3.59.23-.94-.42-1.6-1.08-2-2.01-.4-.93-.44-1.87-.11-2.83.34-1 .96-1.73 1.85-2.2.87-.48 1.82-.59 2.84-.33.08.02.23.08.45.18.17.03.29-.04.35-.22.1-.28-.09-.53-.57-.76-.51-.26-.9-.45-1.18-.57-.55-.2-.78-.58-.67-1.14.06-.19.11-.48.15-.88.1-.31.34-.5.74-.58.17-.03.44-.08.81-.15.33-.1.61-.29.83-.56-.56.07-1.01-.04-1.37-.35-.25-.2-.5-.55-.78-1.06-.146-.28-.33-.48-.56-.6-.21-.11-.485-.14-.83-.08-.31.03-.544.14-.71.34-.11.13-.2.34-.27.64l-.31.99c-.134.37-.356.632-.665.78-.3.135-.63.14-.98.012-.356-.11-.67-.255-.94-.43-.27-.146-.52-.22-.75-.22-.245.02-.485.128-.72.33-.47.41-.595.884-.368 1.415.11.28.2.62.27 1.01.1.407.05.75-.15 1.03-.18.307-.47.5-.87.58-.44.066-.78.1-1.02.11-.58.05-.97.4-1.17 1.06-.08.274-.06.517.04.73.07.13.22.3.46.52.36.26.64.5.84.73.26.276.393.57.393.88 0 .34-.122.64-.38.894-.37.33-.65.58-.83.756-.24.21-.4.38-.472.5-.126.21-.144.456-.054.73.11.35.23.6.38.76.18.18.44.273.79.273.08 0 .44.064 1.09.19.38.09.65.276.83.55.18.284.22.62.12 1-.08.46-.17.8-.27 1.02-.15.31-.18.59-.088.84.082.204.27.44.56.717.28.24.57.317.87.234.13-.03.38-.16.76-.387.623-.39 1.16-.49 1.616-.29.476.207.78.7.93 1.5.055.186.09.32.11.4.126.55.49.86 1.09.936.51.074.9-.127 1.183-.604.267-.478.5-.84.71-1.08.445-.54.985-.62 1.62-.24.145.1.45.36.925.783.23.2.42.33.57.384.21.08.45.06.71-.07.31-.13.53-.285.653-.468.14-.196.202-.448.19-.76 0-.2-.01-.48-.02-.84-.07-.292-.27-.49-.6-.59-.48-.155-.687-.54-.624-1.153.044-.45.32-.748.815-.894.58-.166.92-.32 1.02-.468.09-.144.075-.5-.05-1.07-.07-.3-.067-.55.015-.754.09-.19.27-.38.52-.56.21-.176.42-.236.64-.18.13.035.31.145.56.33.38.31.615.346.696.11.143-.38.42-.675.82-.895.23-.13.58-.29 1.06-.49.29-.167.49-.43.6-.8z" fill="#1565C0"/>
    </g>
  </g>
</svg>
