<svg viewBox="0 0 40 40" xmlns="http://www.w3.org/2000/svg"><g fill="none" fill-rule="evenodd"><path d="M37.5 13.45h-35c-1.4 0-2.5-1.12-2.5-2.5v-8.1C0 1.44 1.1.32 2.5.32h35c1.4 0 2.5 1.13 2.5 2.5v8.13c0 1.37-1.1 2.5-2.5 2.5z" fill="#556080"/><path d="M37.5 26.55h-35c-1.4 0-2.5-1.1-2.5-2.5v-8.1c0-1.4 1.1-2.5 2.5-2.5h35c1.4 0 2.5 1.1 2.5 2.5v8.1c0 1.4-1.1 2.5-2.5 2.5z" fill="#424A60"/><path d="M37.5 39.66h-35c-1.4 0-2.5-1.12-2.5-2.5v-8.12c0-1.37 1.1-2.5 2.5-2.5h35c1.4 0 2.5 1.13 2.5 2.5v8.13c0 1.37-1.1 2.5-2.5 2.5z" fill="#556080"/><circle fill="#7383BF" cx="6.55" cy="6.9" r="2.41"/><ellipse fill="#7383BF" cx="33.79" cy="5.86" rx=".69" ry=".69"/><ellipse fill="#7383BF" cx="31.03" cy="5.86" rx=".69" ry=".69"/><circle fill="#7383BF" cx="35.17" cy="7.93" r=".69"/><circle fill="#7383BF" cx="32.41" cy="7.93" r=".69"/><ellipse fill="#7383BF" cx="28.28" cy="5.86" rx=".69" ry=".69"/><circle fill="#7383BF" cx="29.66" cy="7.93" r=".69"/><ellipse fill="#7383BF" cx="25.52" cy="5.86" rx=".69" ry=".69"/><circle fill="#7383BF" cx="26.9" cy="7.93" r=".69"/><ellipse fill="#7383BF" cx="22.76" cy="5.86" rx=".69" ry=".69"/><circle fill="#7383BF" cx="24.14" cy="7.93" r=".69"/><ellipse fill="#7383BF" cx="6.55" cy="20" rx="2.41" ry="2.41"/><circle fill="#7383BF" cx="33.79" cy="18.97" r=".69"/><circle fill="#7383BF" cx="31.03" cy="18.97" r=".69"/><circle fill="#7383BF" cx="35.17" cy="21.03" r=".69"/><circle fill="#7383BF" cx="32.41" cy="21.03" r=".69"/><circle fill="#7383BF" cx="28.28" cy="18.97" r=".69"/><circle fill="#7383BF" cx="29.66" cy="21.03" r=".69"/><ellipse fill="#7383BF" cx="25.52" cy="18.97" rx=".69" ry=".69"/><circle fill="#7383BF" cx="26.9" cy="21.03" r=".69"/><circle fill="#7383BF" cx="22.76" cy="18.97" r=".69"/><circle fill="#7383BF" cx="24.14" cy="21.03" r=".69"/><ellipse fill="#7383BF" cx="6.55" cy="33.1" rx="2.41" ry="2.41"/><circle fill="#7383BF" cx="33.79" cy="32.07" r=".69"/><circle fill="#7383BF" cx="31.03" cy="32.07" r=".69"/><circle fill="#7383BF" cx="35.17" cy="34.14" r=".69"/><circle fill="#7383BF" cx="32.41" cy="34.14" r=".69"/><circle fill="#7383BF" cx="28.28" cy="32.07" r=".69"/><circle fill="#7383BF" cx="29.66" cy="34.14" r=".69"/><ellipse fill="#7383BF" cx="25.52" cy="32.07" rx=".69" ry=".69"/><circle fill="#7383BF" cx="26.9" cy="34.14" r=".69"/><circle fill="#7383BF" cx="22.76" cy="32.07" r=".69"/><circle fill="#7383BF" cx="24.14" cy="34.14" r=".69"/></g></svg>