<svg viewBox="0 0 38 43" xmlns="http://www.w3.org/2000/svg"><path d="M36.23 0H1.4C.55 0-.08.7 0 1.55L3.2 37.4c.06.82.78 1.7 1.6 1.93l12.53 3.5c.8.23 2.13.23 2.94 0l12.56-3.5c.8-.22 1.53-1.1 1.6-1.93L37.6 1.55C37.7.7 37.07 0 36.24 0zm-6.05 12.94h-.02L20.33 17c-.14.05-.2.2-.2.34.04.15.17.26.32.26h7.65c.4 0 .8.17 1.06.48.28.3.4.7.36 1.1l-1.2 11.28c-.05.55-.42 1.02-.94 1.2l-8.1 2.87c-.32.1-.65.1-.96 0l-8.07-2.8c-.53-.2-.9-.66-.96-1.22l-.55-5.1c-.03-.25.06-.52.24-.72.17-.2.42-.32.7-.32h2.24c.48 0 .88.37.93.85l.34 3.15 5.6 1.95 5.6-1.97.7-6.5H9.22c-.48 0-.9-.37-.94-.85l-.3-2.75c-.05-.42.2-.82.58-.98l10.16-4.22c.12-.04.18-.17.16-.3-.03-.1-.13-.2-.26-.2H7.92c-.32 0-.6-.25-.62-.57L7 9c-.03-.18.02-.36.14-.5.12-.12.3-.2.47-.2H30c.18 0 .35.08.47.2.12.15.18.33.16.5l-.45 3.94z" fill="#3A7DCC" fill-rule="evenodd"/></svg>