<svg viewBox="0 0 38 29" xmlns="http://www.w3.org/2000/svg"><path d="M23.32.4L22.05.04a.591.591 0 0 0-.48.06c-.16.1-.26.22-.32.4l-7.62 26.4c-.05.17-.04.34.05.5.1.15.22.26.4.3l1.27.36c.16.06.32.04.48-.05.15-.08.26-.2.3-.4l7.64-26.4c.05-.16.04-.33-.05-.5a.675.675 0 0 0-.4-.3zM11.9 5.55a.65.65 0 0 0-.2-.47l-1.03-1.02c-.14-.14-.3-.2-.47-.2-.18 0-.34.06-.47.2L.2 13.58c-.13.14-.2.3-.2.47 0 .18.07.34.2.48l9.53 9.52c.13.14.3.2.47.2.18 0 .33-.06.47-.2l1.02-1.02c.13-.13.2-.3.2-.47 0-.18-.07-.33-.2-.47l-8.04-8.05 8.03-8.03c.13-.14.2-.3.2-.47zm25.3 8.03l-9.53-9.52c-.14-.14-.3-.2-.47-.2-.18 0-.33.06-.47.2L25.7 5.08c-.13.13-.2.3-.2.47 0 .18.07.33.2.47l8.04 8.03-8.03 8.04c-.13.13-.2.28-.2.46s.07.34.2.47l1.03 1.02c.14.14.3.2.47.2.18 0 .33-.06.47-.2l9.52-9.52c.13-.14.2-.3.2-.48 0-.17-.07-.33-.2-.47z" fill="#16A085" fill-rule="evenodd"/></svg>