<svg viewBox="0 0 54 40" xmlns="http://www.w3.org/2000/svg"><g fill="none" fill-rule="evenodd"><path fill="#CEE2F2" d="M.17 5.98h53.78v33.9H.17z"/><path fill="#FFF" d="M2.92 8.78H51.2v28.35H2.9z"/><path fill="#0575A5" d="M.17.12h53.78v5.9H.17z"/><path d="M51.2 3.07c0 .46-.38.84-.83.84h-31c-.46 0-.83-.3-.83-.8 0-.4.37-.8.84-.8h31c.44 0 .8.4.8.8zm-44.05 0c0 .46-.37.84-.83.84-.45 0-.82-.3-.82-.8 0-.4.37-.8.82-.8.46 0 .83.4.83.9zm4.57 0c0 .46-.37.84-.83.84-.5 0-.9-.3-.9-.8 0-.4.3-.8.8-.8.4 0 .8.4.8.9zm4.58 0c0 .46-.38.84-.84.84-.46 0-.83-.3-.83-.8 0-.4.37-.8.83-.8.46 0 .83.4.83.9z" fill="#FFF"/><g fill="#FF8E31"><path d="M29.43 27.22c-.54-1.3-2.03-1.93-3.34-1.4-1.3.54-2 2.03-1.4 3.33.5 1.3 2 1.93 3.3 1.4 1.3-.53 1.9-2.03 1.4-3.33zm-3.3 1.35c-.23-.52.03-1.12.54-1.33.53-.2 1.12.04 1.34.56.3.52 0 1.12-.5 1.33-.5.2-1.1-.03-1.3-.56z"/><path d="M35.5 25.18l-7.35 1.34.85 2.1"/><path d="M14.06 32.82l-1.7 1.93 1.38 2.38h6.65c-2.8-2.04-4.5-5.28-4.5-8.94C15.9 22 20.9 17 27 17s11.2 5 11.2 11.13c0 3.65-1.76 6.9-4.5 8.93h6.67l1.37-2.4-1.7-1.92c.25-.7.45-1.4.58-2.16l2.43-.84v-3.3l-2.43-.84c-.13-.74-.33-1.45-.57-2.15l1.7-1.92-1.67-2.87-2.53.5c-.25-.3-.5-.57-.76-.83l-.8-.75.5-2.5-2.9-1.67-2 1.7c-.7-.2-1.4-.4-2.2-.6l-.8-2.4h-3.3l-.9 2.4-2.16.6-1.9-1.7-2.9 1.7.5 2.5c-.3.3-.56.5-.8.8-.3.3-.54.6-.78.9l-2.5-.5-1.67 2.9 1.8 1.8c-.25.7-.45 1.4-.6 2.14l-2.4.8v3.3l2.4.86c.15.7.35 1.4.6 2.1z"/></g></g></svg>