<svg viewBox="0 0 38 27" xmlns="http://www.w3.org/2000/svg"><g fill="none" fill-rule="evenodd"><path d="M0 21.5c0 2.56 2.1 4.65 4.66 4.65H32.6c2.6 0 4.67-2.1 4.67-4.66 0-2.6-2.08-4.7-4.66-4.7H4.7c-2.6.03-4.7 2.13-4.7 4.7zM0 4.72C0 7.3 2.1 9.38 4.66 9.38H32.6c2.6 0 4.67-2.1 4.67-4.66 0-2.58-2.08-4.66-4.66-4.66H4.7C2.1.06 0 2.14 0 4.72z" fill="#F8F8F9"/><path d="M32.6 16.83H18.65v9.32H32.6c2.6 0 4.67-2.1 4.67-4.66 0-2.6-2.08-4.7-4.66-4.7zm4.67-12.1c0-2.6-2.08-4.67-4.66-4.67H18.68v9.32H32.6c2.6 0 4.67-2.1 4.67-4.66z" fill="#EDEDED"/><ellipse fill="#D8D8DA" cx="4.66" cy="4.72" rx="4.66" ry="4.66"/><ellipse fill="#80CB93" cx="32.61" cy="21.49" rx="4.66" ry="4.66"/></g></svg>