<svg viewBox="0 0 60 40" xmlns="http://www.w3.org/2000/svg"><g fill="none" fill-rule="evenodd"><path d="M59.9 13c-.04-.4-.53-.7-.96-.7-1.37 0-2.6-.8-3.1-2.02-.53-1.24-.2-2.7.83-3.62.33-.28.37-.76.1-1.1-.7-.87-1.5-1.66-2.38-2.34-.4-.27-.9-.23-1.2.1-.9.96-2.5 1.3-3.8.8-1.3-.52-2.1-1.8-2.1-3.17 0-.43-.3-.8-.8-.85-1.2-.13-2.3-.13-3.4 0-.5.04-.8.4-.8.83 0 1.35-.8 2.6-2.1 3.12-1.3.5-2.9.13-3.7-.83-.3-.3-.8-.35-1.2-.1-.9.7-1.8 1.5-2.5 2.35-.3.34-.3.82.1 1.1 1 .94 1.3 2.4.8 3.66-.6 1.2-1.8 1.98-3.3 1.98-.5 0-.8.3-.9.8-.18 1.1-.18 2.2 0 3.4 0 .4.5.7 1 .7 1.3 0 2.5.8 3.1 2 .5 1.3.2 2.7-.9 3.6-.3.3-.4.8-.1 1.1.7.9 1.5 1.7 2.4 2.4.3.3.8.3 1.1-.1.9-.9 2.5-1.3 3.8-.8 1.3.6 2.1 1.8 2.02 3.2 0 .5.3.8.73.9.6.1 1.2.1 1.76.1.6 0 1.1 0 1.7-.1.4 0 .74-.4.7-.8 0-1.3.8-2.6 2.1-3.1s2.8-.1 3.7.8c.3.3.76.4 1.1.1.9-.7 1.7-1.5 2.44-2.3.24-.3.2-.8-.1-1.1-1.07-.9-1.4-2.4-.86-3.6.5-1.2 1.73-2 3.06-2h.18c.4.1.8-.3.9-.7.13-1.1.13-2.2 0-3.3zm-14.88 6.55c-2.76 0-5-2.2-5-4.88 0-2.7 2.24-4.9 5-4.9s5 2.2 5 4.9-2.24 4.88-5 4.88z" fill="#C2913F"/><path d="M44.34 31.93c-1.04-7.87-5.4-16.44-5.56-16.82-.07-.1-.2-.2-.35-.3l-.66-.2-.2-.7s-.04-.1-.08-.1c-.1-.1-.5-.9-1.8-1.4-1.2-.4-4.1-1.4-5.8-1.4-.6 0-1.1.1-1.4.3-.3.1-1.3 1.1-2.3 1.1h-8.3c-1 0-2.1-.9-2.3-1-.4-.2-.8-.3-1.4-.3-1.8 0-4.6 1-5.8 1.5-1.3.5-1.7 1.3-1.8 1.4-.1 0-.1.1-.1.2l-.2.8-.5.3c-.2.1-.3.2-.3.3-.2.4-4.6 9-5.6 16.8-.4 3 0 5.2 1.2 6.5 1.3 1.3 2.9 1.5 3.5 1.5h.5c.9 0 2.2-.6 6.4-5.1l.9-.9c.6-.6 1.9-.8 2.8-.8h13.3c.9 0 2.2.2 2.8.8l.93.9c4.24 4.5 5.52 5.1 6.43 5.1h.5c.6 0 2.26-.1 3.47-1.5 1.2-1.4 1.6-3.6 1.2-6.5z" fill="#324D5B"/><path d="M38.78 15.1c-.07-.12-.2-.26-.35-.33l-.66-.27-.2-.74c0-.07-.04-.1-.08-.17-.1-.1-.5-1-1.8-1.4-1.2-.5-4.1-1.5-5.8-1.5-.6 0-1.1.1-1.4.3-.3.1-1.3 1-2.3 1h-8.3c-1 0-2.1-.9-2.3-1.1-.4-.2-.8-.3-1.4-.3-1.8 0-4.6 1-5.8 1.4-1.3.5-1.7 1.3-1.8 1.4-.1 0-.1.1-.1.1l-.2.8-.5.2c-.2.1-.3.2-.3.3-.1.1-.5.8-.9 1.9L8 15.4c4.57-2.12 6.2-.9 6.34-.8.1.14.73.95 2.23 2.38 1.43 1.4 2.1 1.6 2.37 1.6h6.12c.3 0 .95-.25 2.3-1.6 1.47-1.43 2.1-2.2 2.2-2.38.17-.13 1.87-1.4 6.7 1-.07-.08 2.05.97 3.48 1.68-.57-1.25-.95-2.06-1.02-2.17z" fill="#1D323D"/><path d="M32.84 22.3c-.66 0-1.22.54-1.22 1.2 0 .63.56 1.17 1.22 1.17.66 0 1.2-.54 1.2-1.18 0-.7-.54-1.2-1.2-1.2zm2.78-2.7c-.66 0-1.22.53-1.22 1.18 0 .64.56 1.18 1.22 1.18.66 0 1.2-.54 1.2-1.18 0-.65-.54-1.2-1.2-1.2zm-5.56 0c-.66 0-1.22.53-1.22 1.18 0 .64.56 1.18 1.22 1.18.66 0 1.2-.54 1.2-1.18 0-.65-.54-1.2-1.2-1.2zm2.78-2.72c-.66 0-1.22.54-1.22 1.18 0 .65.56 1.2 1.22 1.2.66 0 1.2-.55 1.2-1.2 0-.64-.54-1.18-1.2-1.18z" fill="#597583"/><path d="M22.24 14.16c.76 0 1.4.6 1.4 1.36 0 .75-.64 1.36-1.4 1.36-.77 0-1.4-.6-1.4-1.36 0-.75.63-1.36 1.4-1.36z" fill="#B8C4CB"/><path d="M19.67 27.73h-1.25v1.25c0 .27-.2.47-.5.47h-1.1c-.28 0-.5-.2-.5-.47v-1.25H15.1c-.28 0-.5-.2-.5-.48v-1.08c0-.28.22-.48.5-.48h1.25v-1.3c0-.3.2-.5.5-.5h1.1c.28 0 .5.2.5.4v1.2h1.24c.2 0 .4.2.4.4V27c0 .27-.2.5-.5.5z" fill="#4F6B79"/><path d="M26.4 23.32c1.92 0 3.48 1.52 3.48 3.4 0 1.85-1.56 3.38-3.47 3.38-1.9 0-3.4-1.53-3.4-3.4 0-1.86 1.6-3.38 3.5-3.38z" fill="#2D4552"/><path d="M26.4 24.34c1.36 0 2.44 1.05 2.44 2.37 0 1.4-1.08 2.4-2.43 2.4s-2.4-1-2.4-2.4c0-1.2 1.1-2.3 2.5-2.3z" fill="#4F6B79"/><path d="M11.12 17.22c1.9 0 3.47 1.52 3.47 3.4 0 1.85-1.6 3.38-3.5 3.38s-3.5-1.53-3.5-3.4c0-1.86 1.5-3.38 3.4-3.38z" fill="#2D4552"/><path d="M11.12 18.23c1.35 0 2.43 1.05 2.43 2.38 0 1.4-1.08 2.4-2.43 2.4-1.36 0-2.42-1-2.42-2.3 0-1.3 1-2.3 2.4-2.3z" fill="#4F6B79"/><path d="M26.4 25.35c.77 0 1.4.6 1.4 1.36 0 .8-.63 1.4-1.4 1.4-.76 0-1.38-.6-1.38-1.3 0-.7.62-1.3 1.4-1.3zm-15.28-6.1c.76 0 1.4.6 1.4 1.36 0 .8-.64 1.4-1.4 1.4-.77 0-1.4-.6-1.4-1.3 0-.7.63-1.3 1.4-1.3z" fill="#3F5966"/></g></svg>