<svg viewBox="0 0 39 40" xmlns="http://www.w3.org/2000/svg"><g fill="none" fill-rule="evenodd"><path d="M34 5.6C33.5 2.5 26.16 0 17.2 0 8.2 0 .9 2.48.37 5.6H.35v26h.03c.5 3.13 7.84 5.6 16.8 5.6S33.5 34.72 34 31.6h.03v-26H34z" fill="#545E73"/><g fill="#38454F"><path d="M17.2 28.77C7.9 28.77.34 26.1.34 22.8v8.78h.03c.52 3.13 7.85 5.6 16.8 5.6S33.5 34.72 34 31.6h.04v-8.8c0 3.3-7.55 5.97-16.85 5.97zM.34 22.47v.34c0-.1 0-.2.03-.3H.35z"/><path d="M34 22.46c.02.1.03.23.03.35v-.3H34z"/></g><path d="M17.2 20.35C7.9 20.35.34 17.68.34 14.4v8.76h.03c.5 3.13 7.84 5.6 16.8 5.6S33.5 26.3 34 23.16h.04V14.4c0 3.28-7.55 5.95-16.85 5.95zM.34 14.03v.36c0-.2 0-.3.03-.4H.35zm33.65 0v.36-.4z" fill="#556080"/><ellipse fill="#91BAE1" cx="17.19" cy="5.96" rx="16.84" ry="5.96"/><path d="M17.2 11.93C7.9 11.93.34 9.26.34 5.97v8.77h.03c.5 3.13 7.84 5.6 16.8 5.6s16.3-2.47 16.82-5.6V5.96c0 3.3-7.6 5.97-16.9 5.97zM.34 5.6v.36c0-.1 0-.23.03-.35H.35zM34 5.6l.03.36V5.6H34z" fill="#8697CB"/><path d="M38.25 30.77l-1.02-.2a2.08 2.08 0 0 1-1.28-3.28l.63-.9L35.2 25l-.82.58c-1.26.87-3 .1-3.23-1.4L31 23.14h-1.95l-.26 1.3a2.08 2.08 0 0 1-3.2 1.34l-1.2-.76L23 26.4l.62.86a2.08 2.08 0 0 1-1.3 3.27l-1 .2v1.94l1.06.17a2.08 2.08 0 0 1 1.4 3.23l-.6.86 1.4 1.37.84-.63a2.08 2.08 0 0 1 3.27 1.3l.2 1h1.95l.1-.75c.25-1.54 2.05-2.3 3.3-1.36l.62.43 1.35-1.4-.6-.9c-.86-1.3-.1-3 1.4-3.2l1.07-.2v-1.8z" fill="#BDC3C7"/><path d="M29.82 35.1a3.5 3.5 0 0 1-3.5-3.52 3.5 3.5 0 0 1 3.5-3.5 3.5 3.5 0 0 1 3.5 3.5 3.5 3.5 0 0 1-3.5 3.5zm0-5.63c-1.16 0-2.1.95-2.1 2.1 0 1.17.94 2.1 2.1 2.1 1.17 0 2.1-.93 2.1-2.1 0-1.15-.93-2.1-2.1-2.1z" fill="#ECF0F1"/></g></svg>