<svg viewBox="0 0 41 40" xmlns="http://www.w3.org/2000/svg"><g fill="none" fill-rule="evenodd"><path d="M16.8 18.25H1.4c-.77 0-1.4-.63-1.4-1.4V1.43C0 .66.63.03 1.4.03h15.4c.8 0 1.42.63 1.42 1.4v15.42c0 .77-.63 1.4-1.4 1.4" fill="#48A0DC"/><path d="M37.13 20.35c-.38 0-.7-.3-.7-.7 0-.45-.02-.9-.05-1.35-.03-.38.26-.72.65-.75.38-.03.72.26.75.65.03.47.05.96.05 1.45 0 .4-.3.7-.7.7m-1.73-7.6c-.27 0-.52-.16-.64-.4-.23-.46-.5-.9-.76-1.34-.2-.3-.12-.7.2-.9.33-.2.77-.1.97.2.3.5.6 1 .84 1.5.2.4.1.8-.3 1-.1.1-.2.1-.3.1m1.4 3.8c-.3 0-.6-.2-.7-.5-.1-.5-.2-1-.4-1.5-.1-.3.1-.7.5-.9.4-.1.8.1.9.5.2.5.4 1.1.5 1.6.1.4-.1.8-.5.9H37M26.4 5.1h-.22c-.5-.1-1-.3-1.5-.4-.38-.1-.62-.4-.54-.8.1-.4.46-.7.84-.6.55.1 1.1.2 1.63.4.4.1.6.5.5.9-.1.3-.3.5-.6.5m3.7 1.7c-.1 0-.2 0-.4-.1-.4-.3-.9-.6-1.3-.8-.3-.2-.5-.6-.3-.9.2-.4.6-.5 1-.3.5.2 1 .5 1.5.8.4.2.4.6.2.9-.1.2-.3.34-.6.34m3.1 2.6c-.2 0-.4-.1-.5-.2-.33-.4-.7-.7-1.1-1.1-.3-.2-.3-.7-.03-.94.24-.3.7-.34 1-.1l1.2 1.2c.2.3.2.75-.1 1-.16.1-.3.2-.5.2m-10.66-5c-.5-.07-.9-.08-1.4-.08-.4 0-.7-.3-.7-.7 0-.4.3-.7.7-.7h1.5c.4 0 .66.3.63.7 0 .32-.3.6-.7.6m-19 18.9c-.4 0-.7-.3-.7-.6-.05-.4-.07-.9-.07-1.4 0-.4.35-.7.7-.7.4 0 .7.3.7.7 0 .4.05.9.1 1.3s-.28.77-.66.8m.75 3.96c-.3 0-.54-.2-.64-.5-.15-.6-.3-1.1-.42-1.7-.1-.4.16-.8.54-.8.3-.1.7.1.8.5.1.5.2 1 .4 1.5.1.35-.1.75-.5.9h-.2m1.7 3.62c-.2 0-.4-.1-.6-.35-.3-.47-.6-.97-.8-1.47-.1-.36 0-.8.3-.96.4-.2.8-.06 1 .3.2.44.5.9.8 1.32.2.3.1.74-.2.95-.13.1-.26.1-.4.1m2.6 3.1c-.13 0-.3-.1-.43-.2l-1.2-1.2c-.25-.3-.23-.7.06-1 .3-.3.7-.2 1 0 .3.4.7.73 1.06 1.1.3.23.3.7.04 1-.15.2-.34.24-.54.24m3.1 2.4c-.1 0-.2 0-.3-.08-.5-.26-1-.54-1.48-.84-.3-.2-.4-.6-.2-.93.2-.3.63-.4 1-.2.4.3.83.5 1.3.8.34.2.5.6.3.94-.12.27-.36.4-.62.4m3.8 1.35h-.15c-.6-.15-1.1-.3-1.62-.47-.4-.1-.6-.5-.5-.87.1-.4.5-.6.9-.48.4.2 1 .3 1.5.4.3.1.6.5.5.85-.1.34-.4.56-.7.56m3.8.4c-.5 0-1 0-1.5-.1-.4 0-.7-.3-.68-.7.04-.4.4-.7.76-.6.4.1.9.1 1.3.1s.7.3.7.7c0 .4-.3.7-.7.7" fill="#B0B6BB"/><path d="M40.63 25.25c0 1.17-4.07 2.1-9.1 2.1-5.03 0-9.1-.93-9.1-2.1 0-1.16 4.07-2.1 9.1-2.1 5.03 0 9.1.94 9.1 2.1" fill="#ED7161"/><path d="M31.53 27.36c-5.03 0-9.1-.94-9.1-2.1v4.2c0 1.16 4.07 2.1 9.1 2.1 5.03 0 9.1-.94 9.1-2.1v-4.2c0 1.16-4.07 2.1-9.1 2.1" fill="#C9554C"/><path d="M31.53 31.56c-5.03 0-9.1-.94-9.1-2.1v4.2c0 1.16 4.07 2.1 9.1 2.1 5.03 0 9.1-.94 9.1-2.1v-4.2c0 1.16-4.07 2.1-9.1 2.1" fill="#ECBA16"/><path d="M31.53 35.76c-5.03 0-9.1-.94-9.1-2.1v4.2c0 1.17 4.07 2.1 9.1 2.1 5.03 0 9.1-.93 9.1-2.1v-4.2c0 1.16-4.07 2.1-9.1 2.1" fill="#25AE88"/><path d="M9.8 4.24h-7c-.38 0-.7-.32-.7-.7 0-.4.32-.7.7-.7h7c.4 0 .7.3.7.7 0 .38-.3.7-.7.7m2.8 2.8H4.9c-.38 0-.7-.3-.7-.7 0-.4.32-.7.7-.7h7.7c.4 0 .7.3.7.7 0 .4-.3.7-.7.7m-2.8 2.8h-7c-.38 0-.7-.3-.7-.7 0-.4.32-.7.7-.7h7c.4 0 .7.3.7.7 0 .4-.3.7-.7.7m-4.2 2.8H2.8c-.38 0-.7-.3-.7-.7 0-.38.32-.7.7-.7h2.8c.4 0 .7.32.7.7 0 .4-.3.7-.7.7m4.2 2.8H4.2c-.38 0-.7-.3-.7-.7 0-.4.32-.7.7-.7h5.6c.4 0 .7.3.7.7 0 .4-.3.7-.7.7" fill="#FFF"/></g></svg>