<?xml version="1.0" encoding="UTF-8"?>
<svg width="45px" height="45px" viewBox="0 0 45 45" version="1.1" xmlns="http://www.w3.org/2000/svg" xmlns:xlink="http://www.w3.org/1999/xlink">
    <!-- Generator: Sketch 42 (36781) - http://www.bohemiancoding.com/sketch -->
    <title>browser-check</title>
    <desc>Created with Sketch.</desc>
    <defs></defs>
    <g id="Métiers-du-web---Formation-Test" stroke="none" stroke-width="1" fill="none" fill-rule="evenodd">
        <g id="Métiers-du-web---Formation" transform="translate(-1013.000000, -1091.000000)" fill-rule="nonzero" fill="#FFFFFF">
            <g id="web-critères" transform="translate(184.000000, 868.000000)">
                <g id="Group-7" transform="translate(106.000000, 223.000000)">
                    <g id="Agréables" transform="translate(630.000000, 0.000000)">
                        <g id="userinterface-browser-check" transform="translate(93.000000, 0.000000)">
                            <g id="browser-check">
                                <path d="M24.4545455,33.2272727 L2.95454545,33.2272727 C2.4318302,33.2272727 2,32.7954425 2,32.2727273 L2,2.95454545 C2,2.4318302 2.4318302,2 2.95454545,2 L32.2727273,2 C32.7954425,2 33.2272727,2.4318302 33.2272727,2.95454545 L33.2272727,24.4545455 L35.2272727,24.4545455 L35.2272727,2.95454545 C35.2272727,1.3272607 33.900012,0 32.2727273,0 L2.95454545,0 C1.3272607,0 0,1.3272607 0,2.95454545 L0,32.2727273 C0,33.900012 1.3272607,35.2272727 2.95454545,35.2272727 L24.4545455,35.2272727 L24.4545455,33.2272727 Z" id="Shape"></path>
                                <path d="M4.90909091,6.39772727 C4.08693975,6.39772727 3.42045455,5.73124207 3.42045455,4.90909091 C3.42045455,4.08693975 4.08693975,3.42045455 4.90909091,3.42045455 C5.73124207,3.42045455 6.39772727,4.08693975 6.39772727,4.90909091 C6.39772727,5.73124207 5.73124207,6.39772727 4.90909091,6.39772727 Z M4.90909091,4.39772727 C4.62667257,4.39772727 4.39772727,4.62667257 4.39772727,4.90909091 C4.39772727,5.19150925 4.62667257,5.42045455 4.90909091,5.42045455 C5.19150925,5.42045455 5.42045455,5.19150925 5.42045455,4.90909091 C5.42045455,4.62667257 5.19150925,4.39772727 4.90909091,4.39772727 Z" id="Oval"></path>
                                <path d="M8.81818182,6.39772727 C7.99603066,6.39772727 7.32954545,5.73124207 7.32954545,4.90909091 C7.32954545,4.08693975 7.99603066,3.42045455 8.81818182,3.42045455 C9.64033298,3.42045455 10.3068182,4.08693975 10.3068182,4.90909091 C10.3068182,5.73124207 9.64033298,6.39772727 8.81818182,6.39772727 Z M8.81818182,4.39772727 C8.53576348,4.39772727 8.30681818,4.62667257 8.30681818,4.90909091 C8.30681818,5.19150925 8.53576348,5.42045455 8.81818182,5.42045455 C9.10060016,5.42045455 9.32954545,5.19150925 9.32954545,4.90909091 C9.32954545,4.62667257 9.10060016,4.39772727 8.81818182,4.39772727 Z" id="Oval"></path>
                                <path d="M12.7272727,6.39772727 C11.9051216,6.39772727 11.2386364,5.73124207 11.2386364,4.90909091 C11.2386364,4.08693975 11.9051216,3.42045455 12.7272727,3.42045455 C13.5494239,3.42045455 14.2159091,4.08693975 14.2159091,4.90909091 C14.2159091,5.73124207 13.5494239,6.39772727 12.7272727,6.39772727 Z M12.7272727,4.39772727 C12.4448544,4.39772727 12.2159091,4.62667257 12.2159091,4.90909091 C12.2159091,5.19150925 12.4448544,5.42045455 12.7272727,5.42045455 C13.0096911,5.42045455 13.2386364,5.19150925 13.2386364,4.90909091 C13.2386364,4.62667257 13.0096911,4.39772727 12.7272727,4.39772727 Z" id="Oval"></path>
                                <polygon id="Shape" points="1 9.81818182 34.2272727 9.81818182 34.2272727 7.81818182 1 7.81818182"></polygon>
                                <path d="M34.2272727,45 C28.2776597,45 23.4545455,40.1768857 23.4545455,34.2272727 C23.4545455,28.2776597 28.2776597,23.4545455 34.2272727,23.4545455 C40.1768857,23.4545455 45,28.2776597 45,34.2272727 C45,40.1768857 40.1768857,45 34.2272727,45 Z M34.2272727,43 C39.0723162,43 43,39.0723162 43,34.2272727 C43,29.3822292 39.0723162,25.4545455 34.2272727,25.4545455 C29.3822292,25.4545455 25.4545455,29.3822292 25.4545455,34.2272727 C25.4545455,39.0723162 29.3822292,43 34.2272727,43 Z" id="Oval"></path>
                                <path d="M30.0480159,33.5201659 C29.6574916,33.1296417 29.0243266,33.1296417 28.6338023,33.5201659 C28.243278,33.9106902 28.243278,34.5438552 28.6338023,34.9343795 L31.5656205,37.8661977 C31.9351095,38.2356867 32.5267795,38.2584096 32.9235186,37.9183475 L39.7644277,32.0547111 C40.1837536,31.695289 40.2323151,31.063989 39.872893,30.6446632 C39.5134708,30.2253373 38.8821708,30.1767758 38.462845,30.5361979 L32.3250312,35.7971812 L30.0480159,33.5201659 Z" id="Shape"></path>
                                <path d="M5.88636364,18.6136364 L12.7272727,18.6136364 C13.2795575,18.6136364 13.7272727,18.1659211 13.7272727,17.6136364 C13.7272727,17.0613516 13.2795575,16.6136364 12.7272727,16.6136364 L5.88636364,16.6136364 C5.33407889,16.6136364 4.88636364,17.0613516 4.88636364,17.6136364 C4.88636364,18.1659211 5.33407889,18.6136364 5.88636364,18.6136364 Z" id="Shape"></path>
                                <path d="M5.88636364,22.5227273 L24.4545455,22.5227273 C25.0068302,22.5227273 25.4545455,22.075012 25.4545455,21.5227273 C25.4545455,20.9704425 25.0068302,20.5227273 24.4545455,20.5227273 L5.88636364,20.5227273 C5.33407889,20.5227273 4.88636364,20.9704425 4.88636364,21.5227273 C4.88636364,22.075012 5.33407889,22.5227273 5.88636364,22.5227273 Z" id="Shape"></path>
                            </g>
                        </g>
                    </g>
                </g>
            </g>
        </g>
    </g>
</svg>