<?xml version="1.0" encoding="UTF-8"?>
<svg width="39px" height="47px" viewBox="0 0 39 47" version="1.1" xmlns="http://www.w3.org/2000/svg" xmlns:xlink="http://www.w3.org/1999/xlink">
    <!-- Generator: Sketch 42 (36781) - http://www.bohemiancoding.com/sketch -->
    <title>Group</title>
    <desc>Created with Sketch.</desc>
    <defs></defs>
    <g id="Métiers-du-web---Programme-des-cours-2" stroke="none" stroke-width="1" fill="none" fill-rule="evenodd">
        <g id="Métiers-du-web---Programme-des-cours" transform="translate(-317.000000, -463.000000)" fill-rule="nonzero" fill="#000000">
            <g id="TITLE-BLOCS" transform="translate(100.000000, 231.000000)">
                <g id="choix-bloc" transform="translate(85.000000, 154.000000)">
                    <g id="bloc1">
                        <g id="control-navigation-top-arrow-41" transform="translate(151.500000, 101.500000) rotate(-180.000000) translate(-151.500000, -101.500000) translate(132.000000, 78.000000)">
                            <g id="top-arrow-1" transform="translate(0.000000, -0.000000)">
                                <g id="Group" transform="translate(0.000000, 0.000000)">
                                    <path d="M36.4709808,19.5913823 C37.0737356,20.1596939 38.0230725,20.1317722 38.5913842,19.5290173 C39.1596958,18.9262625 39.1317741,17.9769256 38.5290192,17.4086139 L21.0290192,0.908615832 C20.4628035,0.374755293 19.5823507,0.362570169 19.0015778,0.880556829 L0.501579152,17.3805549 C-0.11667224,17.9319683 -0.170855153,18.880169 0.380558229,19.4984203 C0.93197161,20.1166717 1.88017226,20.1708547 2.49842365,19.6194413 L19.9718357,4.03504732 L36.4709808,19.5913823 Z" id="Shape"></path>
                                    <path d="M18.5,2 L18.5,45 C18.5,45.8284271 19.1715729,46.5 20,46.5 C20.8284271,46.5 21.5,45.8284271 21.5,45 L21.5,2 C21.5,1.17157288 20.8284271,0.5 20,0.5 C19.1715729,0.5 18.5,1.17157288 18.5,2 Z" id="Shape"></path>
                                </g>
                            </g>
                        </g>
                    </g>
                </g>
            </g>
        </g>
    </g>
</svg>