<?xml-stylesheet type="text/css" href="svg.css" ?>
<svg xmlns="http://www.w3.org/2000/svg" width="49" height="50">
  <path fill="#136A8A" d="M17.34 24.01c.22-.24.51-.36.86-.36h7.17l-2.98-2.82c-.26-.24-.39-.54-.39-.88 0-.34.13-.63.39-.87l.76-.71c.26-.25.57-.37.92-.37.36 0 .67.12.92.37l6.63 6.25c.25.25.38.54.38.88 0 .34-.13.63-.38.86l-6.63 6.28c-.26.24-.57.36-.92.36-.36 0-.67-.12-.92-.36l-.76-.73c-.26-.23-.39-.52-.39-.87s.13-.63.39-.86l2.98-2.83H18.2c-.35 0-.64-.12-.86-.37-.22-.24-.33-.53-.33-.87v-1.23c0-.34.11-.63.33-.87zm0 0"/>
  <ellipse stroke="#136A8A" stroke-width="2" fill="none" cx="24.5" cy="25" rx="23.5" ry="24"/>
  <circle fill="#136A8A" r=".5" transform="translate(24.5 25.5)"/>
</svg>