<?xml version="1.0" encoding="UTF-8"?>
<svg width="11px" height="12px" viewBox="0 0 11 12" version="1.1" xmlns="http://www.w3.org/2000/svg" xmlns:xlink="http://www.w3.org/1999/xlink">
    <!-- Generator: Sketch 42 (36781) - http://www.bohemiancoding.com/sketch -->
    <title>Shape Copy 2</title>
    <desc>Created with Sketch.</desc>
    <defs></defs>
    <g id="Home-v2" stroke="none" stroke-width="1" fill="none" fill-rule="evenodd">
        <g id="Home-v2-Copy-4" transform="translate(-152.000000, -2977.000000)" fill="#FFFFFF">
            <g id="arrow-2" transform="translate(135.000000, 2895.000000)">
                <g id="Group-46" transform="translate(0.000000, 65.000000)">
                    <path d="M27.7382209,21.808036 C27.5764869,21.6155236 27.3664418,21.5193079 27.1078504,21.5193079 L21.856304,21.5193079 L24.0419857,19.2634697 C24.2309976,19.0685303 24.3254252,18.8349483 24.3254252,18.5628584 C24.3254252,18.2909034 24.2310238,18.0573213 24.0419857,17.8623011 L23.4825012,17.2925303 C23.2935677,17.097591 23.069753,17 22.8111615,17 C22.5475534,17 22.3212043,17.0974831 22.132323,17.2925303 L17.276019,22.2969348 C17.0919976,22.4971056 17,22.7306607 17,22.9975461 C17,23.269609 17.0919976,23.5005753 17.276019,23.690391 L22.132323,28.7102202 C22.326247,28.9001438 22.5525439,28.995173 22.8111615,28.995173 C23.0746651,28.995173 23.2984537,28.9001438 23.4824751,28.7102202 L24.0419596,28.1252404 C24.2309715,27.9404944 24.325399,27.7094202 24.325399,27.4323955 C24.325399,27.1550742 24.2309976,26.924 24.0419596,26.7393618 L21.8562779,24.4758382 L27.1078242,24.4758382 C27.3663895,24.4758382 27.5764608,24.3795955 27.7381948,24.1871101 C27.899772,23.9945978 27.9805083,23.762418 27.9805083,23.4903551 L27.9805083,22.5048719 C27.9806128,22.232809 27.899772,22.0005483 27.7382209,21.808036 Z" id="Shape-Copy-2"></path>
                </g>
            </g>
        </g>
    </g>
</svg>