<?xml version="1.0" encoding="UTF-8"?>
<svg width="11px" height="12px" viewBox="0 0 11 12" version="1.1" xmlns="http://www.w3.org/2000/svg" xmlns:xlink="http://www.w3.org/1999/xlink">
    <!-- Generator: Sketch 42 (36781) - http://www.bohemiancoding.com/sketch -->
    <title>Shape</title>
    <desc>Created with Sketch.</desc>
    <defs></defs>
    <g id="Home-v2" stroke="none" stroke-width="1" fill="none" fill-rule="evenodd">
        <g id="Home-v2-Copy-4" transform="translate(-369.000000, -2155.000000)" fill="#FFFFFF">
            <g id="Group-39" transform="translate(135.000000, 1784.000000)">
                <g id="button" transform="translate(23.000000, 353.000000)">
                    <g id="Group-38" transform="translate(72.000000, 17.000000)">
                        <g id="Group-43">
                            <g id="arrow-right" transform="translate(139.000000, 1.000000)">
                                <g id="arrow-pointing-to-left" transform="translate(5.500000, 6.000000) scale(-1, 1) translate(-5.500000, -6.000000) ">
                                    <g id="Capa_1">
                                        <path d="M10.7456413,4.80803596 C10.5839074,4.6155236 10.3738622,4.51930787 10.1152708,4.51930787 L4.86372447,4.51930787 L7.04940618,2.26346966 C7.23841805,2.06853034 7.33284561,1.83494831 7.33284561,1.56285843 C7.33284561,1.29090337 7.23844418,1.05732135 7.04940618,0.862301124 L6.48992162,0.292530337 C6.30098812,0.0975910112 6.0771734,0 5.81858195,0 C5.55497387,0 5.3286247,0.0974831461 5.13974347,0.292530337 L0.28343943,5.29693483 C0.0994180523,5.49710562 0.00742042755,5.73066067 0.00742042755,5.99754607 C0.00742042755,6.26960899 0.0994180523,6.50057528 0.28343943,6.69039101 L5.13974347,11.7102202 C5.33366746,11.9001438 5.55996437,11.995173 5.81858195,11.995173 C6.08208551,11.995173 6.30587411,11.9001438 6.48989549,11.7102202 L7.04938005,11.1252404 C7.23839192,10.9404944 7.33281948,10.7094202 7.33281948,10.4323955 C7.33281948,10.1550742 7.23841805,9.924 7.04938005,9.7393618 L4.86369834,7.4758382 L10.1152447,7.4758382 C10.37381,7.4758382 10.5838812,7.37959551 10.7456152,7.18711011 C10.9071924,6.99459775 10.9879287,6.76241798 10.9879287,6.49035506 L10.9879287,5.50487191 C10.9880333,5.23280899 10.9071924,5.00054831 10.7456413,4.80803596 Z" id="Shape"></path>
                                    </g>
                                </g>
                            </g>
                        </g>
                    </g>
                </g>
            </g>
        </g>
    </g>
</svg>