<?xml version="1.0" encoding="UTF-8"?>
<svg width="44px" height="40px" viewBox="0 0 44 40" version="1.1" xmlns="http://www.w3.org/2000/svg" xmlns:xlink="http://www.w3.org/1999/xlink">
    <!-- Generator: Sketch 42 (36781) - http://www.bohemiancoding.com/sketch -->
    <title>Shape</title>
    <desc>Created with Sketch.</desc>
    <defs></defs>
    <g id="Vue-articles-blog/tuto" stroke="none" stroke-width="1" fill="none" fill-rule="evenodd">
        <g transform="translate(-220.000000, -964.000000)" id="warning" fill="#214166">
            <g transform="translate(200.000000, 925.000000)">
                <g transform="translate(20.000000, 39.000000)" id="Capa_1">
                    <g>
                        <path d="M43.1036132,30.0423529 L27.6945597,3.36361991 C25.1776872,-1.04361991 18.8130782,-1.04361991 16.3052593,3.36361991 L0.887152263,30.0423529 C-1.62972016,34.4495928 1.50279012,39.9247059 6.58180247,39.9247059 L37.354642,39.9247059 C42.4336543,39.9247059 45.6204856,34.3952941 43.1036132,30.0423529 Z M21.990856,34.0061538 C20.6509383,34.0061538 19.537358,32.8930317 19.537358,31.5536652 C19.537358,30.2142986 20.6509383,29.1011765 21.990856,29.1011765 C23.3307737,29.1011765 24.4443539,30.2142986 24.3900329,31.6170136 C24.4534074,32.8930317 23.2764527,34.0061538 21.990856,34.0061538 Z M24.22707,18.1509502 C24.118428,20.0514027 24.0007325,21.9428054 23.8920905,23.8432579 C23.8377695,24.4586425 23.8377695,25.0197285 23.8377695,25.6260633 C23.7834486,26.6305882 22.9957942,27.4088688 21.990856,27.4088688 C20.9859177,27.4088688 20.2073169,26.6848869 20.1439424,25.680362 C19.9809794,22.721086 19.808963,19.8161086 19.646,16.8568326 C19.591679,16.078552 19.537358,15.2912217 19.4739835,14.5129412 C19.4739835,13.2278733 20.1982634,12.1690498 21.3752181,11.8342081 C22.5521728,11.5536652 23.7200741,12.1147511 24.22707,13.2278733 C24.3990864,13.6170136 24.4534074,14.0061538 24.4534074,14.4586425 C24.3990864,15.6984615 24.2813909,16.9292308 24.22707,18.1509502 Z" id="Shape"></path>
                    </g>
                </g>
            </g>
        </g>
    </g>
</svg>