<svg xmlns="http://www.w3.org/2000/svg" viewBox="0 0 18 12">
  <path d="M6.919 5.057S8.54 4.931 8.54 2.95C8.54.965 7.214 0 5.532 0H0v11.08h5.532s3.378.11 3.378-3.271c0-.001.147-2.752-1.991-2.752zM2.438 1.968h3.094s.753 0 .753 1.152c0 1.154-.443 1.32-.945 1.32H2.438V1.969zM5.375 9.11H2.438V6.148h3.094s1.121-.015 1.121 1.522c0 1.296-.837 1.43-1.278 1.44zm8.038-6.293c-4.089 0-4.086 4.258-4.086 4.258s-.279 4.235 4.086 4.235c0 0 3.637.218 3.637-2.946h-1.87s.062 1.192-1.704 1.192c0 0-1.872.13-1.872-1.928h5.505c.001-.001.608-4.81-3.696-4.81zm1.664 3.331h-3.492s.228-1.707 1.87-1.707c1.643 0 1.622 1.707 1.622 1.707zm.435-5.497h-4.386v1.366h4.386V.65z"/>
</svg>
