<?xml version="1.0" encoding="UTF-8"?>
<svg width="15px" height="10px" viewBox="0 0 15 10" version="1.1" xmlns="http://www.w3.org/2000/svg" xmlns:xlink="http://www.w3.org/1999/xlink">
    <!-- Generator: Sketch 42 (36781) - http://www.bohemiancoding.com/sketch -->
    <title>behance</title>
    <desc>Created with Sketch.</desc>
    <defs></defs>
    <g id="Home-v2" stroke="none" stroke-width="1" fill="none" fill-rule="evenodd">
        <g id="Home-v2-Copy-4" transform="translate(-843.000000, -1566.000000)" fill="#FFFFFF">
            <g id="Group-49" transform="translate(835.000000, 1554.000000)">
                <g id="behance-circle" transform="translate(0.000000, 1.000000)">
                    <g id="behance" transform="translate(8.395833, 11.625000)">
                        <path d="M14.2088301,6.04897436 L9.06849359,6.04897436 C9.24137821,6.89849359 9.99327724,7.53935897 10.8934696,7.53935897 C11.4650321,7.53935897 11.9702724,7.2755609 12.3123157,6.86943109 L13.8369792,7.25096955 C13.2721234,8.30541667 12.1729647,9.03048878 10.8934696,9.03048878 C9.04166667,9.03048878 7.54010417,7.52892628 7.54010417,5.6771234 C7.54010417,3.82532051 9.04166667,2.32375801 10.8934696,2.32375801 C12.7452724,2.32375801 14.2468349,3.82532051 14.2468349,5.6771234 C14.2460897,5.80380609 14.2222436,5.92527244 14.2088301,6.04897436 Z M10.8927244,3.81339744 C10.286883,3.81339744 9.75183494,4.10849359 9.41202724,4.55858974 L12.3741667,4.55858974 C12.034359,4.10923878 11.4993109,3.81339744 10.8927244,3.81339744 Z" id="Combined-Shape"></path>
                        <path d="M4.9311859,9.02974359 L2.32301282,9.02974359 L0.0874358974,9.02974359 L0.0874358974,4.55858974 L0.0874358974,3.81339744 L0.0874358974,0.0874358974 L2.32301282,0.0874358974 L4.55858974,0.0874358974 C5.7933734,0.0874358974 6.79416667,1.08822917 6.79416667,2.32301282 C6.79416667,3.01529647 6.47298878,3.62635417 5.97892628,4.03620994 C6.89625801,4.44010417 7.53935897,5.35520032 7.53935897,6.42157051 C7.53935897,7.86202724 6.37164263,9.02974359 4.9311859,9.02974359 Z M3.81339744,5.30378205 L2.32301282,5.30378205 L2.32301282,7.53935897 L3.81339744,7.53935897 C4.42967147,7.53935897 4.9311859,7.03784455 4.9311859,6.42157051 C4.9311859,5.80529647 4.43041667,5.30378205 3.81339744,5.30378205 Z M4.55858974,2.32301282 C4.55858974,1.91166667 4.22474359,1.57782051 3.81339744,1.57782051 L2.32301282,1.57782051 L2.32301282,3.06820513 L3.81339744,3.06820513 C4.22474359,3.06820513 4.55858974,2.73435897 4.55858974,2.32301282 Z" id="Combined-Shape"></path>
                        <polygon id="Path" points="9.02974359 0.0874358974 12.7557051 0.0874358974 12.7557051 1.57782051 9.02974359 1.57782051"></polygon>
                    </g>
                </g>
            </g>
        </g>
    </g>
</svg>