<?xml version="1.0" encoding="UTF-8"?>
<svg width="25px" height="25px" viewBox="0 0 25 25" version="1.1" xmlns="http://www.w3.org/2000/svg" xmlns:xlink="http://www.w3.org/1999/xlink">
    <!-- Generator: Sketch 42 (36781) - http://www.bohemiancoding.com/sketch -->
    <title>behance-circle</title>
    <desc>Created with Sketch.</desc>
    <defs></defs>
    <g id="Métiers-du-web---Interview" stroke="none" stroke-width="1" fill="none" fill-rule="evenodd">
        <g transform="translate(-985.000000, -475.000000)" id="behance-circle">
            <g transform="translate(985.000000, 475.000000)">
                <path d="M12.5,0 C19.4036458,0 25,5.59635417 25,12.5 C25,19.4036458 19.4036458,25 12.5,25 C5.59635417,25 0,19.4036458 0,12.5 C0,5.59635417 5.59635417,0 12.5,0 Z M10.9767628,16.2820513 C12.1384215,16.2820513 13.0801282,15.3403446 13.0801282,14.1786859 C13.0801282,13.3187099 12.5614984,12.5807292 11.8217147,12.255008 C12.2201522,11.9244792 12.4791667,11.4316907 12.4791667,10.8733974 C12.4791667,9.87760417 11.6720753,9.07051282 10.6762821,9.07051282 L8.87339744,9.07051282 L7.07051282,9.07051282 L7.07051282,12.0753205 L7.07051282,12.6762821 L7.07051282,16.2820513 L8.87339744,16.2820513 L10.9767628,16.2820513 Z M18.458734,13.8782051 C18.4695513,13.7784455 18.4887821,13.6804888 18.489383,13.5783253 C18.489383,12.0849359 17.2784455,10.8739984 15.7850561,10.8739984 C14.2916667,10.8739984 13.0807292,12.0849359 13.0807292,13.5783253 C13.0807292,15.0717147 14.2916667,16.2826522 15.7850561,16.2826522 C16.8169071,16.2826522 17.7033253,15.6979167 18.1588542,14.8475561 L16.9292869,14.5398638 C16.6534455,14.8673878 16.2459936,15.0801282 15.7850561,15.0801282 C15.0590946,15.0801282 14.4527244,14.5633013 14.3133013,13.8782051 L18.458734,13.8782051 Z M14.2820513,9.07051282 L14.2820513,10.2724359 L17.286859,10.2724359 L17.286859,9.07051282 L14.2820513,9.07051282 Z M10.6762821,10.8733974 C10.6762821,11.2051282 10.4070513,11.474359 10.0753205,11.474359 L8.87339744,11.474359 L8.87339744,10.2724359 L10.0753205,10.2724359 C10.4070513,10.2724359 10.6762821,10.5416667 10.6762821,10.8733974 Z M10.0753205,13.2772436 C10.5729167,13.2772436 10.9767628,13.6816907 10.9767628,14.1786859 C10.9767628,14.6756811 10.5723157,15.0801282 10.0753205,15.0801282 L8.87339744,15.0801282 L8.87339744,13.2772436 L10.0753205,13.2772436 Z M15.7844551,12.0753205 C16.2736378,12.0753205 16.7051282,12.3139022 16.9791667,12.6762821 L14.5903446,12.6762821 C14.864383,12.3133013 15.2958734,12.0753205 15.7844551,12.0753205 Z" id="Combined-Shape" fill="#000000"></path>
                <g id="behance" transform="translate(14.000000, 12.000000)"></g>
            </g>
        </g>
    </g>
</svg>