<svg xmlns="http://www.w3.org/2000/svg" width="51" height="42" viewBox="0 0 51 42">
  <path fill="#353D47" fill-rule="evenodd" d="M16.817 38.661c1.95-2.01 2.925-4.295 2.925-6.855 0-2.559-.823-4.813-2.468-6.763-1.645-1.95-3.625-2.986-5.94-3.108.365-3.168 1.462-5.849 3.29-8.043 1.828-2.193 4.448-4.508 7.86-6.946L18.462 0c-5.118 2.681-9.475 6.916-13.07 12.704C1.797 18.493 0 24.312 0 30.161c0 3.412.944 6.185 2.833 8.317 1.89 2.133 4.235 3.2 7.038 3.2 2.681 0 4.996-1.006 6.946-3.017zm28.608 0c2.01-2.01 3.016-4.295 3.016-6.855 0-2.437-.823-4.63-2.468-6.58-1.645-1.95-3.564-3.047-5.758-3.29.244-3.169 1.25-5.88 3.016-8.135 1.767-2.254 4.357-4.54 7.769-6.855L47.161 0C41.921 2.681 37.534 6.916 34 12.704c-3.534 5.789-5.301 11.608-5.301 17.457 0 3.29.944 6.033 2.833 8.226 1.89 2.194 4.174 3.29 6.855 3.29s5.027-1.005 7.038-3.016z"/>
</svg>
