<?xml version="1.0" encoding="UTF-8"?>
<svg width="36px" height="36px" viewBox="0 0 36 36" version="1.1" xmlns="http://www.w3.org/2000/svg" xmlns:xlink="http://www.w3.org/1999/xlink">
    <!-- Generator: Sketch 42 (36781) - http://www.bohemiancoding.com/sketch -->
    <title>logo-hover</title>
    <desc>Created with Sketch.</desc>
    <defs></defs>
    <g id="Articles-blog/tuto" stroke="none" stroke-width="1" fill="none" fill-rule="evenodd">
        <g transform="translate(-321.000000, -1643.000000)" id="carte-de-blog" fill="#D8D8D8">
            <g transform="translate(174.000000, 1529.000000)">
                <g id="card">
                    <g id="logo-hover" transform="translate(147.000000, 114.000000)">
                        <g id="Group-6" transform="translate(10.000000, 10.000000)">
                            <rect id="Rectangle-11" x="0" y="0" width="16" height="3" rx="1.5"></rect>
                            <rect id="Rectangle-11-Copy" x="0" y="7" width="16" height="3" rx="1.5"></rect>
                            <rect id="Rectangle-11-Copy-2" x="0" y="14" width="16" height="3" rx="1.5"></rect>
                        </g>
                        <path d="M1,3.99017859 L1,32.0098214 C1,33.6620017 2.33828052,35 3.99017859,35 L32.0098214,35 C33.6620017,35 35,33.6617195 35,32.0098214 L35,3.99017859 C35,2.3379983 33.6617195,1 32.0098214,1 L3.99017859,1 C2.3379983,1 1,2.33828052 1,3.99017859 Z M0,3.99017859 C0,1.7864638 1.7852456,0 3.99017859,0 L32.0098214,0 C34.2135362,0 36,1.7852456 36,3.99017859 L36,32.0098214 C36,34.2135362 34.2147544,36 32.0098214,36 L3.99017859,36 C1.7864638,36 0,34.2147544 0,32.0098214 L0,3.99017859 Z" id="Rectangle-10" fill-rule="nonzero"></path>
                    </g>
                </g>
            </g>
        </g>
    </g>
</svg>