<?xml version="1.0" encoding="UTF-8"?>
<svg width="15px" height="18px" viewBox="0 0 15 18" version="1.1" xmlns="http://www.w3.org/2000/svg" xmlns:xlink="http://www.w3.org/1999/xlink">
    <!-- Generator: Sketch 42 (36781) - http://www.bohemiancoding.com/sketch -->
    <title>building</title>
    <desc>Created with Sketch.</desc>
    <defs></defs>
    <g id="Métiers-du-web---Les-anciens-bacheliers" stroke="none" stroke-width="1" fill="none" fill-rule="evenodd">
        <g transform="translate(-294.000000, -1551.000000)" id="card" fill="#136A8A">
            <g transform="translate(200.000000, 1272.000000)">
                <g id="location-work" transform="translate(94.000000, 275.000000)">
                    <g id="building" transform="translate(0.000000, 4.000000)">
                        <path d="M13.3672719,0 C13.5396675,0 13.6888558,0.0629907438 13.8148367,0.188972231 C13.9408181,0.314953125 14.0038089,0.464141385 14.0038089,0.636537011 L14.0038089,17.1864927 C14.0038089,17.3588878 13.9408181,17.508076 13.8148367,17.6340575 C13.6888558,17.760039 13.5396675,17.8230292 13.3672719,17.8230292 L0.636537011,17.8230292 C0.464141385,17.8230292 0.314953125,17.760039 0.188971637,17.6340575 C0.0629907438,17.508076 0,17.3588878 0,17.1864927 L0,0.636537011 C0,0.464141385 0.0629907438,0.314953125 0.188971637,0.188972231 C0.314953125,0.0629907438 0.464141385,0 0.636537011,0 L13.3672719,0 Z M5.0922943,2.86441566 L5.0922943,3.50095207 C5.0922943,3.59378035 5.12213183,3.67003262 5.1818069,3.72970768 C5.24148256,3.78938275 5.31773423,3.81922087 5.41056251,3.81922087 L6.04709893,3.81922087 C6.1399272,3.81922087 6.21617947,3.78938275 6.27585454,3.72970768 C6.3355296,3.67003262 6.36536773,3.59378035 6.36536773,3.50095207 L6.36536773,2.86441566 C6.36536773,2.77158738 6.3355296,2.69533571 6.27585454,2.63566005 C6.21617947,2.57598498 6.1399272,2.54614745 6.04709893,2.54614745 L5.41056251,2.54614745 C5.31773423,2.54614745 5.24148256,2.57598498 5.1818069,2.63566005 C5.12213183,2.69533571 5.0922943,2.77158738 5.0922943,2.86441566 Z M5.0922943,5.41056251 L5.0922943,6.04709952 C5.0922943,6.1399278 5.12213183,6.21617947 5.1818069,6.27585454 C5.24148256,6.3355302 5.31773423,6.36536773 5.41056251,6.36536773 L6.04709893,6.36536773 C6.1399272,6.36536773 6.21617947,6.3355302 6.27585454,6.27585454 C6.3355296,6.21617947 6.36536773,6.1399278 6.36536773,6.04709952 L6.36536773,5.41056251 C6.36536773,5.31773423 6.3355296,5.24148256 6.27585454,5.1818069 C6.21617947,5.12213183 6.1399272,5.0922943 6.04709893,5.0922943 L5.41056251,5.0922943 C5.31773423,5.0922943 5.24148256,5.12213183 5.1818069,5.1818069 C5.12213183,5.24148256 5.0922943,5.31773423 5.0922943,5.41056251 Z M5.0922943,7.95670936 L5.0922943,8.59324637 C5.0922943,8.68607465 5.12213183,8.76232632 5.1818069,8.82200198 C5.24148256,8.88167705 5.31773423,8.91151458 5.41056251,8.91151458 L6.04709893,8.91151458 C6.1399272,8.91151458 6.21617947,8.88167705 6.27585454,8.82200198 C6.3355296,8.76232632 6.36536773,8.68607465 6.36536773,8.59324637 L6.36536773,7.95670936 C6.36536773,7.86388109 6.3355296,7.78762942 6.27585454,7.72795435 C6.21617947,7.66827869 6.1399272,7.63844116 6.04709893,7.63844116 L5.41056251,7.63844116 C5.31773423,7.63844116 5.24148256,7.66827869 5.1818069,7.72795435 C5.12213183,7.78762942 5.0922943,7.86388109 5.0922943,7.95670936 Z M5.0922943,10.5028568 L5.0922943,11.1393932 C5.0922943,11.2322215 5.12213183,11.3084732 5.1818069,11.3681488 C5.24148256,11.4278239 5.31773423,11.457662 5.41056251,11.457662 L6.04709893,11.457662 C6.1399272,11.457662 6.21617947,11.4278239 6.27585454,11.3681488 C6.3355296,11.3084732 6.36536773,11.2322215 6.36536773,11.1393932 L6.36536773,10.5028568 C6.36536773,10.4100285 6.3355296,10.3337769 6.27585454,10.2741012 C6.21617947,10.2144261 6.1399272,10.184588 6.04709893,10.184588 L5.41056251,10.184588 C5.31773423,10.184588 5.24148256,10.2144261 5.1818069,10.2741012 C5.12213183,10.3337769 5.0922943,10.4100285 5.0922943,10.5028568 Z M3.81922028,13.6855407 L3.81922028,13.0490037 C3.81922028,12.9561754 3.78938275,12.8799237 3.72970768,12.8202481 C3.67003202,12.760573 3.59378035,12.7307355 3.50095207,12.7307355 L2.86441566,12.7307355 C2.77158738,12.7307355 2.69533511,12.760573 2.63566005,12.8202481 C2.57598498,12.8799237 2.54614685,12.9561754 2.54614685,13.0490037 L2.54614685,13.6855407 C2.54614685,13.778369 2.57598498,13.8546206 2.63566005,13.9142957 C2.69533511,13.9739714 2.77158738,14.0038089 2.86441566,14.0038089 L3.50095207,14.0038089 C3.59378035,14.0038089 3.67003202,13.9739714 3.72970768,13.9142957 C3.78938275,13.8546206 3.81922028,13.778369 3.81922028,13.6855407 Z M3.81922028,11.1393932 L3.81922028,10.5028568 C3.81922028,10.4100285 3.78938275,10.3337769 3.72970768,10.2741012 C3.67003202,10.2144261 3.59378035,10.184588 3.50095207,10.184588 L2.86441566,10.184588 C2.77158738,10.184588 2.69533511,10.2144261 2.63566005,10.2741012 C2.57598498,10.3337769 2.54614685,10.4100285 2.54614685,10.5028568 L2.54614685,11.1393932 C2.54614685,11.2322215 2.57598498,11.3084732 2.63566005,11.3681488 C2.69533511,11.4278239 2.77158738,11.457662 2.86441566,11.457662 L3.50095207,11.457662 C3.59378035,11.457662 3.67003202,11.4278239 3.72970768,11.3681488 C3.78938275,11.3084732 3.81922028,11.2322215 3.81922028,11.1393932 Z M3.81922028,8.59324637 L3.81922028,7.95670936 C3.81922028,7.86388109 3.78938275,7.78762942 3.72970768,7.72795435 C3.67003202,7.66827869 3.59378035,7.63844116 3.50095207,7.63844116 L2.86441566,7.63844116 C2.77158738,7.63844116 2.69533511,7.66827869 2.63566005,7.72795435 C2.57598498,7.78762942 2.54614685,7.86388109 2.54614685,7.95670936 L2.54614685,8.59324637 C2.54614685,8.68607465 2.57598498,8.76232632 2.63566005,8.82200198 C2.69533511,8.88167705 2.77158738,8.91151458 2.86441566,8.91151458 L3.50095207,8.91151458 C3.59378035,8.91151458 3.67003202,8.88167705 3.72970768,8.82200198 C3.78938275,8.76232632 3.81922028,8.68607465 3.81922028,8.59324637 Z M3.81922028,6.04709952 L3.81922028,5.41056251 C3.81922028,5.31773423 3.78938275,5.24148256 3.72970768,5.1818069 C3.67003202,5.12213183 3.59378035,5.0922943 3.50095207,5.0922943 L2.86441566,5.0922943 C2.77158738,5.0922943 2.69533511,5.12213183 2.63566005,5.1818069 C2.57598498,5.24148256 2.54614685,5.31773423 2.54614685,5.41056251 L2.54614685,6.04709952 C2.54614685,6.1399278 2.57598498,6.21617947 2.63566005,6.27585454 C2.69533511,6.3355302 2.77158738,6.36536773 2.86441566,6.36536773 L3.50095207,6.36536773 C3.59378035,6.36536773 3.67003202,6.3355302 3.72970768,6.27585454 C3.78938275,6.21617947 3.81922028,6.1399278 3.81922028,6.04709952 Z M3.81922028,3.50095207 L3.81922028,2.86441566 C3.81922028,2.77158738 3.78938275,2.69533571 3.72970768,2.63566005 C3.67003202,2.57598498 3.59378035,2.54614745 3.50095207,2.54614745 L2.86441566,2.54614745 C2.77158738,2.54614745 2.69533511,2.57598498 2.63566005,2.63566005 C2.57598498,2.69533571 2.54614685,2.77158738 2.54614685,2.86441566 L2.54614685,3.50095207 C2.54614685,3.59378035 2.57598498,3.67003262 2.63566005,3.72970768 C2.69533511,3.78938275 2.77158738,3.81922087 2.86441566,3.81922087 L3.50095207,3.81922087 C3.59378035,3.81922087 3.67003202,3.78938275 3.72970768,3.72970768 C3.78938275,3.67003262 3.81922028,3.59378035 3.81922028,3.50095207 Z M8.91151458,16.2316875 L8.91151458,14.3220771 C8.91151458,14.2292488 8.88167705,14.1529971 8.82200139,14.0933215 C8.76232632,14.0336464 8.68607465,14.0038089 8.59324637,14.0038089 L5.41056251,14.0038089 C5.31773423,14.0038089 5.24148256,14.0336464 5.1818069,14.0933215 C5.12213183,14.1529971 5.0922943,14.2292488 5.0922943,14.3220771 L5.0922943,16.2316875 C5.0922943,16.3245158 5.12213183,16.4007675 5.1818069,16.4604431 C5.24148256,16.5201182 5.31773423,16.5499557 5.41056251,16.5499557 L8.59324637,16.5499557 C8.68607465,16.5499557 8.76232632,16.5201182 8.82200139,16.4604431 C8.88167705,16.4007675 8.91151458,16.3245158 8.91151458,16.2316875 Z M8.91151458,11.1393932 L8.91151458,10.5028568 C8.91151458,10.4100285 8.88167705,10.3337769 8.82200139,10.2741012 C8.76232632,10.2144261 8.68607465,10.184588 8.59324637,10.184588 L7.95670936,10.184588 C7.86388109,10.184588 7.78762942,10.2144261 7.72795376,10.2741012 C7.66827869,10.3337769 7.63844116,10.4100285 7.63844116,10.5028568 L7.63844116,11.1393932 C7.63844116,11.2322215 7.66827869,11.3084732 7.72795376,11.3681488 C7.78762942,11.4278239 7.86388109,11.457662 7.95670936,11.457662 L8.59324637,11.457662 C8.68607465,11.457662 8.76232632,11.4278239 8.82200139,11.3681488 C8.88167705,11.3084732 8.91151458,11.2322215 8.91151458,11.1393932 Z M8.91151458,8.59324637 L8.91151458,7.95670936 C8.91151458,7.86388109 8.88167705,7.78762942 8.82200139,7.72795435 C8.76232632,7.66827869 8.68607465,7.63844116 8.59324637,7.63844116 L7.95670936,7.63844116 C7.86388109,7.63844116 7.78762942,7.66827869 7.72795376,7.72795435 C7.66827869,7.78762942 7.63844116,7.86388109 7.63844116,7.95670936 L7.63844116,8.59324637 C7.63844116,8.68607465 7.66827869,8.76232632 7.72795376,8.82200198 C7.78762942,8.88167705 7.86388109,8.91151458 7.95670936,8.91151458 L8.59324637,8.91151458 C8.68607465,8.91151458 8.76232632,8.88167705 8.82200139,8.82200198 C8.88167705,8.76232632 8.91151458,8.68607465 8.91151458,8.59324637 Z M8.91151458,6.04709952 L8.91151458,5.41056251 C8.91151458,5.31773423 8.88167705,5.24148256 8.82200139,5.1818069 C8.76232632,5.12213183 8.68607465,5.0922943 8.59324637,5.0922943 L7.95670936,5.0922943 C7.86388109,5.0922943 7.78762942,5.12213183 7.72795376,5.1818069 C7.66827869,5.24148256 7.63844116,5.31773423 7.63844116,5.41056251 L7.63844116,6.04709952 C7.63844116,6.1399278 7.66827869,6.21617947 7.72795376,6.27585454 C7.78762942,6.3355302 7.86388109,6.36536773 7.95670936,6.36536773 L8.59324637,6.36536773 C8.68607465,6.36536773 8.76232632,6.3355302 8.82200139,6.27585454 C8.88167705,6.21617947 8.91151458,6.1399278 8.91151458,6.04709952 Z M8.91151458,3.50095207 L8.91151458,2.86441566 C8.91151458,2.77158738 8.88167705,2.69533571 8.82200139,2.63566005 C8.76232632,2.57598498 8.68607465,2.54614745 8.59324637,2.54614745 L7.95670936,2.54614745 C7.86388109,2.54614745 7.78762942,2.57598498 7.72795376,2.63566005 C7.66827869,2.69533571 7.63844116,2.77158738 7.63844116,2.86441566 L7.63844116,3.50095207 C7.63844116,3.59378035 7.66827869,3.67003262 7.72795376,3.72970768 C7.78762942,3.78938275 7.86388109,3.81922087 7.95670936,3.81922087 L8.59324637,3.81922087 C8.68607465,3.81922087 8.76232632,3.78938275 8.82200139,3.72970768 C8.88167705,3.67003262 8.91151458,3.59378035 8.91151458,3.50095207 Z M11.4576614,13.6855407 L11.4576614,13.0490037 C11.4576614,12.9561754 11.4278239,12.8799237 11.3681488,12.8202481 C11.3084732,12.760573 11.2322215,12.7307355 11.1393932,12.7307355 L10.5028562,12.7307355 C10.4100279,12.7307355 10.3337763,12.760573 10.2741012,12.8202481 C10.2144255,12.8799237 10.184588,12.9561754 10.184588,13.0490037 L10.184588,13.6855407 C10.184588,13.778369 10.2144255,13.8546206 10.2741012,13.9142957 C10.3337763,13.9739714 10.4100279,14.0038089 10.5028562,14.0038089 L11.1393932,14.0038089 C11.2322215,14.0038089 11.3084732,13.9739714 11.3681488,13.9142957 C11.4278239,13.8546206 11.4576614,13.778369 11.4576614,13.6855407 Z M11.4576614,11.1393932 L11.4576614,10.5028568 C11.4576614,10.4100285 11.4278239,10.3337769 11.3681488,10.2741012 C11.3084732,10.2144261 11.2322215,10.184588 11.1393932,10.184588 L10.5028562,10.184588 C10.4100279,10.184588 10.3337763,10.2144261 10.2741012,10.2741012 C10.2144255,10.3337769 10.184588,10.4100285 10.184588,10.5028568 L10.184588,11.1393932 C10.184588,11.2322215 10.2144255,11.3084732 10.2741012,11.3681488 C10.3337763,11.4278239 10.4100279,11.457662 10.5028562,11.457662 L11.1393932,11.457662 C11.2322215,11.457662 11.3084732,11.4278239 11.3681488,11.3681488 C11.4278239,11.3084732 11.4576614,11.2322215 11.4576614,11.1393932 Z M11.4576614,8.59324637 L11.4576614,7.95670936 C11.4576614,7.86388109 11.4278239,7.78762942 11.3681488,7.72795435 C11.3084732,7.66827869 11.2322215,7.63844116 11.1393932,7.63844116 L10.5028562,7.63844116 C10.4100279,7.63844116 10.3337763,7.66827869 10.2741012,7.72795435 C10.2144255,7.78762942 10.184588,7.86388109 10.184588,7.95670936 L10.184588,8.59324637 C10.184588,8.68607465 10.2144255,8.76232632 10.2741012,8.82200198 C10.3337763,8.88167705 10.4100279,8.91151458 10.5028562,8.91151458 L11.1393932,8.91151458 C11.2322215,8.91151458 11.3084732,8.88167705 11.3681488,8.82200198 C11.4278239,8.76232632 11.4576614,8.68607465 11.4576614,8.59324637 Z M11.4576614,6.04709952 L11.4576614,5.41056251 C11.4576614,5.31773423 11.4278239,5.24148256 11.3681488,5.1818069 C11.3084732,5.12213183 11.2322215,5.0922943 11.1393932,5.0922943 L10.5028562,5.0922943 C10.4100279,5.0922943 10.3337763,5.12213183 10.2741012,5.1818069 C10.2144255,5.24148256 10.184588,5.31773423 10.184588,5.41056251 L10.184588,6.04709952 C10.184588,6.1399278 10.2144255,6.21617947 10.2741012,6.27585454 C10.3337763,6.3355302 10.4100279,6.36536773 10.5028562,6.36536773 L11.1393932,6.36536773 C11.2322215,6.36536773 11.3084732,6.3355302 11.3681488,6.27585454 C11.4278239,6.21617947 11.4576614,6.1399278 11.4576614,6.04709952 Z M11.4576614,3.50095207 L11.4576614,2.86441566 C11.4576614,2.77158738 11.4278239,2.69533571 11.3681488,2.63566005 C11.3084732,2.57598498 11.2322215,2.54614745 11.1393932,2.54614745 L10.5028562,2.54614745 C10.4100279,2.54614745 10.3337763,2.57598498 10.2741012,2.63566005 C10.2144255,2.69533571 10.184588,2.77158738 10.184588,2.86441566 L10.184588,3.50095207 C10.184588,3.59378035 10.2144255,3.67003262 10.2741012,3.72970768 C10.3337763,3.78938275 10.4100279,3.81922087 10.5028562,3.81922087 L11.1393932,3.81922087 C11.2322215,3.81922087 11.3084732,3.78938275 11.3681488,3.72970768 C11.4278239,3.67003262 11.4576614,3.59378035 11.4576614,3.50095207 Z" id="Shape"></path>
                    </g>
                </g>
            </g>
        </g>
    </g>
</svg>