<?xml version="1.0" encoding="UTF-8"?>
<svg width="12px" height="10px" viewBox="0 0 12 10" version="1.1" xmlns="http://www.w3.org/2000/svg" xmlns:xlink="http://www.w3.org/1999/xlink">
    <!-- Generator: Sketch 42 (36781) - http://www.bohemiancoding.com/sketch -->
    <title>Shape</title>
    <desc>Created with Sketch.</desc>
    <defs></defs>
    <g id="Métiers-du-web---Profil-d’un-prof" stroke="none" stroke-width="1" fill="none" fill-rule="evenodd">
        <g transform="translate(-482.000000, -1846.000000)" id="card" fill="#69788C">
            <g transform="translate(198.000000, 1441.000000)">
                <g id="comments" transform="translate(274.000000, 399.000000)">
                    <g id="comment-o" transform="translate(10.000000, 6.000000)">
                        <path d="M6,0.833333269 C5.0892856,0.833333269 4.2377232,0.984157989 3.4453124,1.28580704 C2.6529016,1.58745648 2.0234376,1.99435753 1.5569196,2.50651019 C1.0904016,3.01866324 0.8571428,3.57204863 0.8571428,4.16666673 C0.8571428,4.65277784 1.0167412,5.11610239 1.3359376,5.55664038 C1.655134,5.99717877 2.1049108,6.37803826 2.685268,6.69921848 L3.2678572,7.02473948 L3.0870536,7.64973953 C2.9799108,8.0447048 2.8236608,8.41796852 2.6183036,8.76953107 C3.2968752,8.49609357 3.9107144,8.12499985 4.4598216,7.65624991 L4.747768,7.40885397 L5.1294644,7.4479167 C5.4375,7.48263864 5.7276784,7.49999981 6,7.49999981 C6.9107144,7.49999981 7.7622768,7.34917509 8.5546876,7.04752603 C9.3470984,6.74587659 9.9765624,6.33897554 10.4430804,5.82682288 C10.9095984,5.31467022 11.1428572,4.76128445 11.1428572,4.16666673 C11.1428572,3.57204863 10.9095984,3.01866324 10.4430804,2.50651019 C9.9765624,1.99435753 9.3470984,1.58745648 8.5546876,1.28580704 C7.7622768,0.984157989 6.9107144,0.833333269 6,0.833333269 Z M12,4.16666673 C12,4.92187495 11.7321428,5.61957466 11.1964284,6.25976549 C10.6607144,6.89995631 9.9330356,7.40559897 9.0133928,7.77669269 C8.09375,8.14778641 7.0892856,8.33333307 6,8.33333307 C5.6875,8.33333307 5.3638392,8.31597191 5.029018,8.28124996 C4.1450892,9.04079857 3.1183036,9.565972 1.9486608,9.85677067 C1.7299108,9.91753456 1.4754464,9.96527767 1.185268,10 L1.1517856,10 C1.0848216,10 1.0245536,9.97721344 0.970982,9.93164033 C0.9174108,9.88606761 0.8816964,9.82638872 0.8638392,9.75260406 L0.8638392,9.74609367 C0.8504464,9.7287325 0.8493304,9.70269095 0.8604912,9.66796861 C0.8716516,9.63324628 0.876116,9.61154512 0.873884,9.60286434 C0.8716516,9.59418395 0.8816964,9.57356739 0.904018,9.54101545 C0.9263392,9.50846351 0.939732,9.48893195 0.9441964,9.48242156 C0.9486608,9.47591117 0.9642856,9.45746501 0.9910716,9.42708306 C1.0178572,9.39670112 1.0357144,9.37716995 1.0446428,9.36848956 C1.0758928,9.33376723 1.1450892,9.25889756 1.252232,9.14388018 C1.3593752,9.02886279 1.436384,8.94639735 1.4832588,8.89648423 C1.530134,8.84657112 1.5993304,8.76085068 1.6908484,8.6393229 C1.782366,8.51779513 1.8549108,8.40711774 1.908482,8.30729152 C1.9620536,8.2074653 2.0223216,8.07942713 2.0892856,7.92317702 C2.15625,7.76692691 2.2142856,7.60199642 2.2633928,7.42838514 C1.5625,7.04210064 1.0100448,6.56466993 0.6060268,5.99609377 C0.2020088,5.42751722 0,4.81770834 0,4.16666673 C0,3.41145813 0.2678572,2.71375841 0.8035716,2.07356759 C1.3392856,1.43337676 2.0669644,0.92773449 2.9866072,0.556640383 C3.90625,0.185546665 4.9107144,0 6,0 C7.0892856,0 8.09375,0.185546665 9.0133928,0.556640383 C9.9330356,0.92773449 10.6607144,1.43337676 11.1964284,2.07356759 C11.7321428,2.71375841 12,3.41145813 12,4.16666673 Z" id="Shape" transform="translate(6.000000, 5.000000) scale(-1, 1) translate(-6.000000, -5.000000) "></path>
                    </g>
                </g>
            </g>
        </g>
    </g>
</svg>