<?xml version="1.0" encoding="UTF-8"?>
<svg width="20px" height="20px" viewBox="0 0 20 20" version="1.1" xmlns="http://www.w3.org/2000/svg" xmlns:xlink="http://www.w3.org/1999/xlink">
    <!-- Generator: Sketch 42 (36781) - http://www.bohemiancoding.com/sketch -->
    <title>tick-inside-circle</title>
    <desc>Created with Sketch.</desc>
    <defs></defs>
    <g id="Métiers-du-web---Fiche-d’un-cours" stroke="none" stroke-width="1" fill="none" fill-rule="evenodd">
        <g transform="translate(-331.000000, -303.000000)" id="tick-inside-circle" fill="#FFFFFF">
            <g transform="translate(331.000000, 303.000000)">
                <g id="Capa_1">
                    <g id="check-circle-outline">
                        <path d="M5.9,8.1 L4.5,9.5 L9,14 L19,4 L17.6,2.6 L9,11.2 L5.9,8.1 Z M18,10 C18,14.4 14.4,18 10,18 C5.6,18 2,14.4 2,10 C2,5.6 5.6,2 10,2 C10.8,2 11.5,2.1 12.2,2.3 L13.8000392,0.7 C12.6,0.3 11.3,0 10,0 C4.5,0 0,4.5 0,10 C0,15.5 4.5,20 10,20 C15.5,20 20,15.5 20,10 L18,10 Z" id="Shape"></path>
                    </g>
                </g>
            </g>
        </g>
    </g>
</svg>