<?xml version="1.0" encoding="UTF-8"?>
<svg width="26px" height="27px" viewBox="0 0 26 27" version="1.1" xmlns="http://www.w3.org/2000/svg" xmlns:xlink="http://www.w3.org/1999/xlink">
    <!-- Generator: Sketch 42 (36781) - http://www.bohemiancoding.com/sketch -->
    <title>Shape</title>
    <desc>Created with Sketch.</desc>
    <defs></defs>
    <g id="Métiers-du-web---Profil-d’un-prof" stroke="none" stroke-width="1" fill="none" fill-rule="evenodd">
        <g transform="translate(-617.000000, -1837.000000)" id="card-copy" fill="#253D59">
            <g transform="translate(583.000000, 1441.000000)">
                <path d="M46.99974,396.1475 C39.8202255,396.1475 34,401.967899 34,409.147153 C34,416.326408 39.8202255,422.1475 46.9996533,422.1475 C54.1790812,422.1475 59.99974,416.326668 59.99974,409.147153 C59.99974,401.967639 54.1791679,396.1475 46.99974,396.1475 Z M47.8974393,410.736804 C47.896746,410.770951 47.8916326,410.805098 47.8868659,410.839331 C47.8834859,410.864985 47.8819259,410.891245 47.8761192,410.916465 C47.8703125,410.942725 47.8603457,410.968639 47.8518523,410.994899 C47.8417123,411.026619 47.8322655,411.058253 47.8190055,411.088153 C47.8164921,411.093353 47.8156254,411.0989 47.8133721,411.1041 C47.7937853,411.145873 47.7710785,411.185047 47.746205,411.22214 C47.744645,411.224394 47.742565,411.226647 47.7410049,411.228901 C47.7126648,411.270501 47.6803379,411.308288 47.6463643,411.343735 C47.6369176,411.353441 47.6272975,411.362195 47.6173308,411.371381 C47.5874306,411.399895 47.5559704,411.425982 47.5225168,411.449815 C47.5122034,411.457269 47.5023233,411.465069 47.4914899,411.472262 C47.4485897,411.500342 47.4036094,411.525043 47.356809,411.545323 C47.346669,411.549829 47.3360956,411.552516 47.3257822,411.556589 C47.2862619,411.571843 47.2462216,411.584496 47.2048814,411.594116 C47.1900613,411.59767 47.1754145,411.600876 47.1603344,411.603563 C47.107294,411.61327 47.0535604,411.619943 46.9991333,411.619943 C46.9881266,411.619943 46.9768598,411.616563 46.9658531,411.61613 C46.9136794,411.614136 46.8620257,411.610063 46.8123654,411.59949 C46.796852,411.59611 46.7815985,411.58935 46.7660851,411.585103 C46.7198048,411.572536 46.6745645,411.558583 46.6314042,411.539256 C46.6264642,411.536743 46.6212641,411.536309 46.6163241,411.534056 L41.6316575,409.18286 C41.1825479,408.971132 40.9901466,408.435269 41.2018747,407.986159 C41.4136028,407.537309 41.9494663,407.344648 42.398576,407.556376 L46.100654,409.302201 L46.100654,401.542449 C46.100654,401.045933 46.5032234,400.643363 46.99974,400.643363 C47.4962566,400.643363 47.898826,401.045933 47.898826,401.542449 L47.898826,410.720597 L47.8989993,410.720597 C47.8989993,410.725971 47.8974393,410.731344 47.8974393,410.736804 Z" id="Shape"></path>
            </g>
        </g>
    </g>
</svg>