<svg xmlns="http://www.w3.org/2000/svg" viewBox="0 0 43 47">
  <g fill="#69788C">
    <path d="M36.796 38.285l3.65-3.65-1.326-1.327-1.327-1.327-3.65 3.65-3.585 3.586-.948 3.6 3.6-.947 3.586-3.585zm-2.815 5.45l-5.52 1.453a1 1 0 0 1-1.221-1.221l1.453-5.52a1 1 0 0 1 .26-.453l3.776-3.776 4.357-4.358a1 1 0 0 1 1.414 0l2.035 2.034 2.033 2.033a1 1 0 0 1 0 1.414L38.21 39.7l-3.776 3.777a1 1 0 0 1-.453.26z"/>
    <path d="M29.33 40.054L32.458 43.048 33.841 41.604 30.713 38.609z"/>
    <path d="M27 4a1 1 0 0 1 .962.725l2 7A1 1 0 0 1 29 13H9a1 1 0 0 1-.962-1.275l2-7A1 1 0 0 1 11 4h4a4 4 0 0 1 8 0h4zm-5 2a1 1 0 0 1-1-1V4a2 2 0 1 0-4 0v1a1 1 0 0 1-1 1h-4.246l-1.428 5h17.348l-1.428-5H22z"/>
    <path d="M26 45H4a2 2 0 0 1-2-2V9a2 2 0 0 1 2-2h6V5H4a4 4 0 0 0-4 4v34a4 4 0 0 0 4 4h22v-2zm2-38h6a2 2 0 0 1 2 2v16h2V9a4 4 0 0 0-4-4h-6v2z"/>
    <path d="M6 34.586V11.008h4v-2H5a1 1 0 0 0-1 1V35a1 1 0 0 0 .293.707l7 7A1 1 0 0 0 12 43h13v-2H12.414L6 34.586zM32 24h2V10.008a1 1 0 0 0-1-1h-5v2h4V24z"/>
    <path d="M11 42h2v-7a1 1 0 0 0-1-1H5v2h6v6z"/>
    <path d="M10 21L17 21 17 19 10 19z"/>
    <path d="M10 26L27 26 27 24 10 24z"/>
    <path d="M10 31L24 31 24 29 10 29z"/>
  </g>
</svg>
