<svg xmlns="http://www.w3.org/2000/svg" viewBox="0 0 47 47">
  <g fill="#69788C">
    <g transform="translate(13.929 15)">
      <path d="M12.868 15l1.01-.955c3.903-3.76 5.25-5.661 5.25-8.335 0-2.916-1.913-5.12-5.211-5.12-1.727 0-3.16.593-4.444 1.674a1 1 0 0 0 1.287 1.53C11.705 3 12.695 2.59 13.917 2.59c2.126 0 3.21 1.25 3.21 3.12 0 1.921-1.129 3.515-4.63 6.888L9.713 15.23c-.648.612-.231 1.702.66 1.726L12 17h7.214a1 1 0 1 0 0-2h-6.346zm-9.654 1a1 1 0 0 0 2 0V1.961A1 1 0 0 0 3.66 1.13L1.182 2.781a1 1 0 0 0 1.11 1.664l.922-.615V16z"/>
    </g>
    <path d="M36.429 1a1 1 0 0 1 1-1h5.357A4.214 4.214 0 0 1 47 4.214v32.143a1 1 0 0 1-.293.707l-9.643 9.643a1 1 0 0 1-.707.293H4.214A4.214 4.214 0 0 1 0 42.786V4.214A4.214 4.214 0 0 1 4.214 0h6.429a1 1 0 0 1 1 1v1.446a1 1 0 0 1-.57.903A2.74 2.74 0 0 0 9.5 5.82c0 1.767 1.631 3.083 3.414 2.674a2.727 2.727 0 0 0 2.012-2.024c.297-1.316-.339-2.568-1.5-3.122a1 1 0 0 1-.569-.903V1a1 1 0 0 1 1-1h8.572a1 1 0 0 1 1 1v1.446a1 1 0 0 1-.57.903 2.74 2.74 0 0 0-1.573 2.472c0 1.767 1.63 3.083 3.414 2.674a2.727 2.727 0 0 0 2.012-2.024c.297-1.316-.34-2.568-1.5-3.122a1 1 0 0 1-.57-.903V1a1 1 0 0 1 1-1h8.572a1 1 0 0 1 1 1v1.446a1 1 0 0 1-.569.903 2.74 2.74 0 0 0-1.574 2.472c0 1.767 1.632 3.083 3.415 2.674a2.727 2.727 0 0 0 2.012-2.024c.296-1.316-.34-2.568-1.5-3.122a1 1 0 0 1-.57-.903V1zm2 0v1.446l-.57-.902a4.925 4.925 0 0 1 .766.456c1.497 1.09 2.26 2.976 1.824 4.91a4.727 4.727 0 0 1-3.516 3.534c-3.041.698-5.862-1.576-5.862-4.623a4.726 4.726 0 0 1 2.143-3.957c.176-.115.36-.22.552-.312.006-.003-.552.894-.552.894V1l1 1h-8.571l1-1v1.446l-.57-.902A4.925 4.925 0 0 1 26.84 2c1.496 1.09 2.259 2.976 1.823 4.91a4.727 4.727 0 0 1-3.516 3.534c-3.041.698-5.861-1.576-5.861-4.623a4.726 4.726 0 0 1 2.143-3.957c.175-.115.36-.22.552-.312.005-.003-.552.894-.552.894V1l1 1h-8.572l1-1v1.446l-.569-.902a4.925 4.925 0 0 1 .766.456c1.496 1.09 2.26 2.976 1.823 4.91a4.727 4.727 0 0 1-3.515 3.534C10.32 11.142 7.5 8.868 7.5 5.821a4.726 4.726 0 0 1 2.143-3.957c.175-.115.36-.22.552-.312.006-.003-.552.894-.552.894V1l1 1H4.214A2.214 2.214 0 0 0 2 4.214v38.572C2 44.009 2.991 45 4.214 45h31.729L45 35.943V4.214A2.214 2.214 0 0 0 42.786 2h-5.357l1-1z"/>
    <path d="M44.929 35.357H39.57a4.214 4.214 0 0 0-4.214 4.214V46a1 1 0 1 0 2 0v-6.429c0-1.222.992-2.214 2.214-2.214h5.358a1 1 0 1 0 0-2z"/>
  </g>
</svg>
