<svg xmlns="http://www.w3.org/2000/svg" viewBox="0 0 12 12">
  <path fill="#090509" d="M5.994 0A6.001 6.001 0 0 0 0 5.994a6.001 6.001 0 0 0 5.994 5.995 6.001 6.001 0 0 0 5.995-5.995A6.001 6.001 0 0 0 5.994 0zm3.963 2.764a5.095 5.095 0 0 1 1.156 3.19c-.17-.036-1.86-.38-3.565-.165l-.11-.264a16.12 16.12 0 0 0-.34-.742C8.992 4.01 9.85 2.91 9.958 2.764zM5.994.882c1.301 0 2.49.488 3.394 1.29-.092.131-.862 1.167-2.683 1.85a27.349 27.349 0 0 0-1.91-2.998 5.11 5.11 0 0 1 1.2-.142zm-2.176.486c.135.185 1.05 1.453 1.898 2.961-2.395.637-4.504.628-4.734.625a5.139 5.139 0 0 1 2.836-3.586zM.874 6.002l.002-.157c.224.005 2.706.037 5.261-.728.148.287.287.578.416.87l-.202.06c-2.64.853-4.045 3.18-4.162 3.378A5.106 5.106 0 0 1 .874 6.002zm5.12 5.12a5.093 5.093 0 0 1-3.143-1.08c.092-.188 1.13-2.192 4.017-3.198l.034-.011a21.316 21.316 0 0 1 1.092 3.883 5.08 5.08 0 0 1-2 .406zm2.861-.875a22.216 22.216 0 0 0-.994-3.651 7.504 7.504 0 0 1 3.189.22 5.13 5.13 0 0 1-2.195 3.43z"/>
</svg>
