<?xml version="1.0" encoding="UTF-8"?>
<svg width="25px" height="25px" viewBox="0 0 25 25" version="1.1" xmlns="http://www.w3.org/2000/svg" xmlns:xlink="http://www.w3.org/1999/xlink">
    <!-- Generator: Sketch 42 (36781) - http://www.bohemiancoding.com/sketch -->
    <title>dribbble with circle</title>
    <desc>Created with Sketch.</desc>
    <defs></defs>
    <g id="Métiers-du-web---Interview" stroke="none" stroke-width="1" fill="none" fill-rule="evenodd">
        <g transform="translate(-866.000000, -477.000000)" id="dribbble-with-circle" fill-rule="nonzero" fill="#000000">
            <g transform="translate(866.000000, 477.000000)">
                <g id="Dribble_w_x2F__circle">
                    <path d="M12.825,12.4775 C12.86625,12.4625 12.91,12.45125 12.95375,12.43875 C12.85,12.2075 12.735,11.9675 12.605,11.70875 C10.255,12.405 8.005,12.41125 7.60375,12.405 C7.6,12.43625 7.6,12.46875 7.6,12.5 C7.6,13.68125 8.025,14.81625 8.7975,15.7075 C9.055,15.2925 10.42,13.25625 12.825,12.4775 Z M9.52875,16.39125 C10.39,17.05125 11.41875,17.4 12.5,17.4 C13.14625,17.4 13.77375,17.275 14.3675,17.03125 C14.285,16.555 13.99875,15.105 13.34,13.37875 C10.68875,14.31625 9.6875,16.08125 9.52875,16.39125 Z M15.69375,8.78375 C14.805,8.02 13.6725,7.6 12.5,7.6 C12.145,7.6 11.78875,7.63875 11.4375,7.7175 C11.69375,8.06125 12.4775,9.15 13.21375,10.49625 C14.8175,9.88 15.5425,8.99125 15.69375,8.78375 Z M12.13125,10.83 C11.37125,9.49 10.58,8.38625 10.3625,8.09125 C9.02875,8.7375 8.0475,9.97375 7.72125,11.41375 L7.7425,11.41375 C8.25,11.41375 10.05375,11.3725 12.13125,10.83 Z M14.3925,13.12 C14.97375,14.73625 15.24125,16.07875 15.3175,16.50875 C16.3825,15.75875 17.11,14.6075 17.32875,13.33 C17.11125,13.26375 16.32625,13.05375 15.33875,13.05375 C15.01625,13.05375 14.6975,13.07625 14.3925,13.12 Z M12.5,0.5 C5.8725,0.5 0.5,5.8725 0.5,12.5 C0.5,19.1275 5.8725,24.5 12.5,24.5 C19.1275,24.5 24.5,19.1275 24.5,12.5 C24.5,5.8725 19.1275,0.5 12.5,0.5 Z M12.5,18.37125 C9.26,18.37125 6.62625,15.7375 6.62625,12.5 C6.62625,9.26 9.26,6.62625 12.5,6.62625 C15.73875,6.62625 18.3725,9.26125 18.3725,12.5 C18.3725,15.7375 15.73875,18.37125 12.5,18.37125 Z M13.6525,11.3425 C13.76125,11.5675 13.8625,11.78875 13.955,12.00625 C13.98375,12.0775 14.015,12.1475 14.04375,12.21875 C14.39,12.1775 14.76,12.1575 15.14625,12.1575 C16.21375,12.1575 17.1,12.31375 17.3975,12.3725 C17.37,11.31 16.99375,10.2775 16.3325,9.4475 C16.1325,9.705 15.31,10.65125 13.6525,11.3425 Z" id="Shape"></path>
                </g>
            </g>
        </g>
    </g>
</svg>