<?xml version="1.0" encoding="UTF-8"?>
<svg width="15px" height="15px" viewBox="0 0 15 15" version="1.1" xmlns="http://www.w3.org/2000/svg" xmlns:xlink="http://www.w3.org/1999/xlink">
    <!-- Generator: Sketch 42 (36781) - http://www.bohemiancoding.com/sketch -->
    <title>Combined Shape</title>
    <desc>Created with Sketch.</desc>
    <defs></defs>
    <g id="Vue-articles-blog/tuto" stroke="none" stroke-width="1" fill="none" fill-rule="evenodd">
        <g transform="translate(-969.000000, -3076.000000)" id="Group-10" fill="#FFFFFF">
            <g transform="translate(832.000000, 3068.000000)">
                <g id="Group-5" transform="translate(89.000000, 0.000000)">
                    <g id="dribble-circle" transform="translate(41.000000, 1.000000)">
                        <path d="M14.5,21.5944271 C10.585,21.5944271 7.40255208,18.4119792 7.40255208,14.5 C7.40255208,10.585 10.585,7.40255208 14.5,7.40255208 C18.4134896,7.40255208 21.5959375,10.5865104 21.5959375,14.5 C21.5959375,18.4119792 18.4134896,21.5944271 14.5,21.5944271 Z M15.8926042,13.1013542 C16.0240104,13.3732292 16.1463542,13.6405729 16.258125,13.9033854 C16.2928646,13.9894792 16.330625,14.0740625 16.3653646,14.1601563 C16.78375,14.1103125 17.2308333,14.0861458 17.6975521,14.0861458 C18.9874479,14.0861458 20.0583333,14.2749479 20.4178125,14.3459375 C20.3845833,13.0620833 19.9299479,11.8144792 19.1309375,10.8115625 C18.8892708,11.1227083 17.8954167,12.2660938 15.8926042,13.1013542 Z M16.7867708,15.2491667 C17.4891146,17.2021354 17.8123437,18.8243229 17.9044792,19.3439063 C19.1913542,18.4376563 20.0704167,17.0465625 20.3347396,15.5029167 C20.0719271,15.4228646 19.1233854,15.1691146 17.9301562,15.1691146 C17.5404687,15.1691146 17.1553125,15.1963021 16.7867708,15.2491667 Z M14.0544271,12.4820833 C13.1360937,10.8629167 12.18,9.52921875 11.9171875,9.17276042 C10.3055729,9.95364583 9.11989583,11.4474479 8.72567708,13.1874479 L8.75135417,13.1874479 C9.36458333,13.1874479 11.5441146,13.1376042 14.0544271,12.4820833 Z M18.3591146,10.0095312 C17.2852083,9.08666667 15.9167708,8.57916667 14.5,8.57916667 C14.0710417,8.57916667 13.6405729,8.62598958 13.2161458,8.72114583 C13.5257813,9.13651042 14.4728125,10.4520833 15.3624479,12.0788021 C17.3003125,11.3341667 18.1763542,10.2602604 18.3591146,10.0095312 Z M10.9097396,19.2019271 C11.9504167,19.9994271 13.1934896,20.4208333 14.5,20.4208333 C15.2808854,20.4208333 16.0391146,20.2697917 16.7565625,19.9752604 C16.656875,19.3997917 16.3109896,17.6477083 15.515,15.5618229 C12.3114062,16.6946354 11.1015625,18.8273437 10.9097396,19.2019271 Z M14.8927083,14.4728125 C14.9425521,14.4546875 14.9954167,14.4410937 15.0482812,14.4259896 C14.9229167,14.1465625 14.7839583,13.8565625 14.626875,13.5439062 C11.7872917,14.3852083 9.06854167,14.3927604 8.58369792,14.3852083 C8.57916667,14.4229687 8.57916667,14.4622396 8.57916667,14.5 C8.57916667,15.9273437 9.09270833,17.2988021 10.0261458,18.3757292 C10.3372917,17.8742708 11.9866667,15.4138021 14.8927083,14.4728125 Z" id="Combined-Shape"></path>
                    </g>
                </g>
            </g>
        </g>
    </g>
</svg>