<svg xmlns="http://www.w3.org/2000/svg" viewBox="0 0 45 45">
  <g fill="#69788C" fill-rule="evenodd">
    <path d="M22.5 2C11.196 2 2 11.196 2 22.5S11.196 43 22.5 43 43 33.804 43 22.5 33.804 2 22.5 2m0 43C10.093 45 0 34.906 0 22.5 0 10.093 10.093 0 22.5 0 34.906 0 45 10.093 45 22.5 45 34.906 34.906 45 22.5 45"/>
    <path d="M22.5 5.5c-.26 0-.52-.11-.71-.29-.18-.19-.29-.45-.29-.71 0-.26.11-.52.29-.71.24-.23.58-.34.91-.27.06.01.12.03.18.06.06.02.12.05.18.09.05.03.1.08.15.12.09.1.16.21.21.33.06.12.08.25.08.38s-.02.26-.08.38c-.05.12-.12.23-.21.33l-.15.12c-.06.04-.12.07-.18.09-.06.03-.12.05-.18.06-.07.01-.14.02-.2.02m0 36a.994.994 0 0 1-.71-.29c-.09-.101-.16-.21-.21-.33a.995.995 0 0 1-.08-.38c0-.271.11-.521.29-.71.37-.37 1.04-.37 1.42 0 .18.189.29.45.29.71 0 .13-.02.26-.08.38-.05.12-.12.229-.21.33a.994.994 0 0 1-.71.29m18-18c-.26 0-.521-.11-.71-.29-.181-.19-.29-.45-.29-.71 0-.26.109-.52.29-.71.37-.37 1.05-.37 1.42 0 .18.19.29.45.29.71 0 .26-.11.52-.29.71-.05.04-.101.09-.16.12a.568.568 0 0 1-.17.09.61.61 0 0 1-.191.06 1.2 1.2 0 0 1-.189.02m-36 0c-.13 0-.26-.02-.38-.08-.12-.05-.23-.12-.33-.21-.04-.05-.09-.1-.12-.15a.757.757 0 0 1-.09-.18.636.636 0 0 1-.06-.18c-.01-.07-.02-.14-.02-.2 0-.26.11-.52.29-.71.38-.37 1.04-.37 1.42 0 .18.19.29.45.29.71 0 .06-.01.13-.02.2-.01.06-.03.12-.06.18-.02.06-.05.12-.09.18l-.12.15c-.1.09-.21.16-.33.21-.12.06-.25.08-.38.08m30.7-12.7c-.26 0-.52-.11-.71-.29-.18-.19-.29-.45-.29-.71 0-.26.11-.52.29-.71.37-.37 1.04-.37 1.42 0 .18.19.29.45.29.71 0 .26-.11.52-.29.71-.19.18-.45.29-.71.29M9.8 36.2a.994.994 0 0 1-1-1c0-.13.03-.26.08-.38.05-.13.12-.23.21-.33.37-.37 1.05-.37 1.42 0 .09.1.16.21.21.33a.996.996 0 0 1-.21 1.09.994.994 0 0 1-.71.29m25.4 0a.996.996 0 0 1-.38-.08 1.186 1.186 0 0 1-.33-.21 1.147 1.147 0 0 1-.21-.33.977.977 0 0 1-.08-.38c0-.13.03-.26.08-.38.05-.13.12-.23.21-.33a1.037 1.037 0 0 1 1.42 0c.09.1.16.2.21.33a.996.996 0 0 1-.21 1.09.994.994 0 0 1-.71.29M9.8 10.8c-.26 0-.52-.11-.71-.29a.933.933 0 0 1-.21-.33.995.995 0 0 1-.08-.38c0-.26.11-.52.29-.71.28-.28.73-.37 1.09-.21.13.05.24.12.33.21.18.19.29.45.29.71 0 .13-.03.26-.08.38-.05.13-.12.23-.21.33-.1.09-.2.16-.33.21-.12.05-.25.08-.38.08m22.7 22.7a.997.997 0 0 1-.707-.293l-10-10a.997.997 0 0 1-.293-.707v-10a1 1 0 0 1 2 0v9.586l9.707 9.707A.999.999 0 0 1 32.5 33.5"/>
  </g>
</svg>
