<?xml version="1.0" encoding="UTF-8"?>
<svg width="24px" height="24px" viewBox="0 0 24 24" version="1.1" xmlns="http://www.w3.org/2000/svg" xmlns:xlink="http://www.w3.org/1999/xlink">
    <!-- Generator: Sketch 42 (36781) - http://www.bohemiancoding.com/sketch -->
    <title>Group</title>
    <desc>Created with Sketch.</desc>
    <defs></defs>
    <g id="Métiers-du-web---Formation" stroke="none" stroke-width="1" fill="none" fill-rule="evenodd">
        <g transform="translate(-734.000000, -1118.000000)" id="tips-formation" fill="#27AE60">
            <g transform="translate(289.000000, 1114.000000)">
                <g id="ecologique" transform="translate(445.000000, 0.000000)">
                    <g id="icon-eco" transform="translate(0.000000, 4.518000)">
                        <g id="Group">
                            <path d="M6.57852927,1.25779187 C6.57757377,1.26015789 6.57611241,1.2613134 6.57566276,1.26340431 L6.44638876,1.48195933 C6.44352225,1.48641627 6.44133021,1.49136842 6.4394192,1.49604545 L4.2211897,5.25494976 L8.91670258,7.90875359 L11.071644,4.25505502 L11.3414333,3.7977512 L11.9910632,2.69694258 L13.5553349,0.0428636364 L8.86027166,0.0428636364 C7.90398126,0.0423684211 7.06223888,0.5264689 6.57852927,1.25779187 Z" id="Shape"></path>
                            <path d="M17.468459,1.36927033 C17.2389696,0.978875598 16.9037002,0.639818182 16.4763653,0.398043062 C16.0488056,0.156212919 15.5818454,0.0423684211 15.1204496,0.0423684211 L10.4258923,0.0423684211 L8.8606089,0.0423684211 C9.8150445,0.0423684211 10.6541452,0.52338756 11.1393162,1.25140909 L11.2858454,1.50165789 L15.0657611,7.90825837 L19.7600937,5.25467464 L17.468459,1.36927033 Z" id="Shape"></path>
                            <polygon id="Shape" points="12.8107728 7.90853349 18.1953162 7.90853349 20.8877002 3.344189"></polygon>
                            <path d="M23.6824356,11.9059665 C23.6814801,11.9043158 23.6809742,11.9029402 23.6786136,11.9010144 L23.5498454,11.6819641 C23.5479344,11.677012 23.5438314,11.672555 23.5419204,11.6688134 L21.325096,7.90897368 L16.6295831,10.5627775 L18.7850304,14.2164761 L19.0548197,14.6742751 L19.7030445,15.7753589 L21.2687775,18.4287225 L23.6167869,14.4482368 C24.0951569,13.6373493 24.0875129,12.6818589 23.6824356,11.9059665 Z" id="Shape"></path>
                            <path d="M18.1387166,21.0832967 C18.5991569,21.0832967 19.0665667,20.9696722 19.4936768,20.727622 C19.9217424,20.4857919 20.2557752,20.1467895 20.4862763,19.7563947 L22.8337799,15.775634 L23.6170117,14.4482368 C23.1393162,15.2570335 22.2951569,15.7284234 21.4085621,15.7749187 L21.112637,15.7749187 L13.5556721,15.775634 L13.5556721,21.0830766 L18.1387166,21.0830766 L18.1387166,21.0832967 L18.1387166,21.0832967 Z" id="Shape"></path>
                            <polygon id="Shape" points="14.6820422 13.8650933 11.9911194 18.4294378 14.6820422 22.9943325"></polygon>
                            <path d="M10.4248806,15.7751938 L6.11426698,15.7751938 L5.57468852,15.7751938 L4.27632787,15.7749737 L1.14654801,15.7751938 L3.49360187,19.7559545 C3.97225293,20.566622 4.82045902,21.0382871 5.70947073,21.0826364 C5.71188759,21.0824163 5.71329274,21.0826364 5.71593443,21.0826364 L5.97397658,21.0826364 C5.97903513,21.0833517 5.98476815,21.0826364 5.99027635,21.0819211 L10.4244309,21.0826364 L10.4244309,15.7751938 L10.4248806,15.7751938 Z" id="Shape"></path>
                            <path d="M0.36258548,11.7942129 C0.133601874,12.1843876 0,12.6375096 0,13.1211148 C0,13.6045 0.133601874,14.0571268 0.36258548,14.4477967 L2.71059485,18.4280622 L3.4938267,19.7556794 C3.01708665,18.9468828 3.02259485,17.9949139 3.42401874,17.2194617 L3.57150351,16.9692129 L7.35001405,10.5621172 L2.65450117,7.90803828 L0.36258548,11.7942129 Z" id="Shape"></path>
                            <polygon id="Shape" points="8.47644028 12.472933 5.78501171 7.90853349 0.400974239 7.90781818"></polygon>
                        </g>
                    </g>
                </g>
            </g>
        </g>
    </g>
</svg>