<?xml version="1.0" encoding="UTF-8"?>
<svg width="29px" height="45px" viewBox="0 0 29 45" version="1.1" xmlns="http://www.w3.org/2000/svg" xmlns:xlink="http://www.w3.org/1999/xlink">
    <!-- Generator: Sketch 42 (36781) - http://www.bohemiancoding.com/sketch -->
    <title>Group</title>
    <desc>Created with Sketch.</desc>
    <defs></defs>
    <g id="Métiers-du-web---Formation-Test" stroke="none" stroke-width="1" fill="none" fill-rule="evenodd">
        <g id="Métiers-du-web---Formation" transform="translate(-391.000000, -1319.000000)" fill-rule="nonzero" fill="#FFFFFF">
            <g id="web-critères" transform="translate(184.000000, 868.000000)">
                <g id="Group-7" transform="translate(106.000000, 223.000000)">
                    <g id="Écologiques" transform="translate(0.000000, 228.000000)">
                        <g id="buildings-100" transform="translate(101.000000, 0.000000)">
                            <g id="tree-3">
                                <g id="Group">
                                    <path d="M9.41304348,43 C8.86075873,43 8.41304348,43.4477153 8.41304348,44 C8.41304348,44.5522847 8.86075873,45 9.41304348,45 L12.2173913,45 C12.7696761,45 13.2173913,44.5522847 13.2173913,44 L13.2173913,34.6521739 C13.2173913,34.0998892 12.7696761,33.6521739 12.2173913,33.6521739 C11.6651066,33.6521739 11.2173913,34.0998892 11.2173913,34.6521739 L11.2173913,43 L9.41304348,43 Z" id="Shape"></path>
                                    <path d="M16.9565217,33.7173913 C16.9565217,33.1651066 16.5088065,32.7173913 15.9565217,32.7173913 C15.404237,32.7173913 14.9565217,33.1651066 14.9565217,33.7173913 L14.9565217,44 C14.9565217,44.5522847 15.404237,45 15.9565217,45 L18.7608696,45 C19.3131543,45 19.7608696,44.5522847 19.7608696,44 C19.7608696,43.4477153 19.3131543,43 18.7608696,43 L16.9565217,43 L16.9565217,33.7173913 Z" id="Shape"></path>
                                    <path d="M16.3853191,41.1642703 C16.6706766,41.0288259 17.1436895,40.7711534 17.7427992,40.3888377 C18.7324103,39.7573274 19.721576,38.996907 20.6481739,38.1033353 C21.0457186,37.71996 21.0572052,37.0868992 20.67383,36.6893544 C20.2904547,36.2918097 19.6573939,36.2803231 19.2598491,36.6636984 C18.4354945,37.458671 17.5503975,38.1390887 16.6669176,38.7028724 C16.3591485,38.8992721 16.0746717,39.0665052 15.8213531,39.2044998 C15.674267,39.2846246 15.5737705,39.3356132 15.5277244,39.3574689 C15.02879,39.5942871 14.8163028,40.1907325 15.053121,40.6896669 C15.2899393,41.1886013 15.8863846,41.4010885 16.3853191,41.1642703 Z" id="Shape"></path>
                                    <path d="M28.6401632,26.3635095 C28.6401632,31.4274909 24.5475277,35.534071 19.4973303,35.534071 C17.6347562,35.534071 15.8561873,34.9714388 14.356026,33.9453153 C12.8558646,34.9714388 11.0772958,35.534071 9.21472159,35.534071 C4.16452413,35.534071 0.0718887087,31.4274909 0.0718887087,26.3635095 C0.0718887087,23.7424418 1.18113034,21.3074285 3.06266708,19.5909873 C2.33593644,18.3821882 1.94145393,16.9944376 1.94145393,15.5482391 C1.94145393,12.0176836 4.28093476,8.98203883 7.56409066,8.00742966 C7.55483275,7.8527358 7.55014958,7.69811063 7.55014958,7.54347826 C7.55014958,3.39443429 10.6834735,0 14.5902922,0 C18.4971108,0 21.6304348,3.39443429 21.6304348,7.54347826 C21.6304348,7.71827154 21.6246127,7.89280864 21.6130873,8.06703615 C24.7901976,9.1094295 27.023407,12.0984823 27.023407,15.548239 C27.023407,17.0572933 26.5965779,18.5025323 25.8136373,19.7438 C27.5973619,21.4527002 28.6401633,23.8216188 28.6401632,26.3635095 Z M23.6951849,19.2689255 C24.5495149,18.2257596 25.023407,16.9246744 25.023407,15.548239 C25.023407,12.7377305 23.0360033,10.3366275 20.3180709,9.79049397 C19.7839089,9.683161 19.4339731,9.16797023 19.5310824,8.63185539 C19.5968373,8.26883993 19.6304348,7.90600711 19.6304348,7.54347826 C19.6304348,4.46483563 17.3552019,2 14.5902922,2 C11.8253825,2 9.55014958,4.46483563 9.55014958,7.54347826 C9.55014958,7.89273003 9.58253226,8.24543118 9.64580011,8.60406828 C9.74225099,9.1508051 9.37487403,9.67145147 8.8274379,9.76385062 C6.02288843,10.2372173 3.94145393,12.673019 3.94145393,15.5482391 C3.94145393,16.8757354 4.38605174,18.1342807 5.19264546,19.1645618 C5.54013224,19.6084148 5.45228125,20.2516136 4.99849556,20.5860252 C3.17116862,21.9326506 2.07188871,24.0544713 2.07188871,26.3635095 C2.07188871,30.3244414 5.27061938,33.534071 9.21472159,33.534071 C10.8802939,33.534071 12.4561084,32.9595048 13.7227658,31.9230878 C14.0911398,31.6216732 14.620912,31.6216732 14.989286,31.9230878 C16.2559436,32.9595048 17.8317581,33.534071 19.4973303,33.534071 C23.4414325,33.534071 26.6401632,30.3244414 26.6401632,26.3635095 C26.6401632,24.1169568 25.600272,22.0460134 23.8558545,20.6926261 C23.4113381,20.3477529 23.3387102,19.7041933 23.6951849,19.2689255 Z" id="Shape"></path>
                                    <path d="M9.82515239,29.9532491 C7.80998404,29.9532491 6.17636743,28.3196325 6.17636743,26.3044651 C6.17636743,25.7521804 5.72865218,25.3044651 5.17636743,25.3044651 C4.62408268,25.3044651 4.17636743,25.7521804 4.17636743,26.3044651 C4.17636743,29.424202 6.70541455,31.9532491 9.82515239,31.9532491 C10.3774371,31.9532491 10.8251524,31.5055339 10.8251524,30.9532491 C10.8251524,30.4009644 10.3774371,29.9532491 9.82515239,29.9532491 Z" id="Shape"></path>
                                    <path d="M18.2395617,15.9279665 C17.2687106,15.9279665 16.4816802,15.1409362 16.4816802,14.1700851 C16.4816802,13.1992339 17.2687106,12.4122036 18.2395617,12.4122036 C19.2104128,12.4122036 19.9974431,13.1992339 19.9974431,14.1700851 C19.9974431,15.1409362 19.2104128,15.9279665 18.2395617,15.9279665 Z M18.2395617,13.9279665 C18.1058433,13.9279665 17.9974431,14.0363667 17.9974431,14.1700851 C17.9974431,14.3038034 18.1058433,14.4122036 18.2395617,14.4122036 C18.3732801,14.4122036 18.4816802,14.3038034 18.4816802,14.1700851 C18.4816802,14.0363667 18.3732801,13.9279665 18.2395617,13.9279665 Z" id="Oval"></path>
                                </g>
                            </g>
                        </g>
                    </g>
                </g>
            </g>
        </g>
    </g>
</svg>