<?xml version="1.0" encoding="UTF-8"?>
<svg width="23px" height="23px" viewBox="0 0 23 23" version="1.1" xmlns="http://www.w3.org/2000/svg" xmlns:xlink="http://www.w3.org/1999/xlink">
    <!-- Generator: Sketch 42 (36781) - http://www.bohemiancoding.com/sketch -->
    <title>Capa_1</title>
    <desc>Created with Sketch.</desc>
    <defs></defs>
    <g id="Métiers-du-web---Formation" stroke="none" stroke-width="1" fill="none" fill-rule="evenodd">
        <g transform="translate(-293.000000, -1263.000000)" id="tips-formation" fill="#F39C12">
            <g transform="translate(289.000000, 1114.000000)">
                <g id="éfficaces" transform="translate(4.000000, 146.000000)">
                    <g id="medal-(1)" transform="translate(0.000000, 3.000000)">
                        <g id="Capa_1">
                            <g id="Group">
                                <path d="M22.7692987,10.9795378 L20.9163056,9.37754775 C20.7022147,9.19298668 20.6210079,8.89768897 20.7169796,8.63192104 L21.5216659,6.3212165 C21.6619323,5.9225646 21.4109292,5.50176537 21.0048949,5.4205585 L18.5908361,4.95546461 C18.3176858,4.90378751 18.0962125,4.68969668 18.0445354,4.40916386 L17.5868239,2.00248756 C17.5056171,1.58907078 17.0848178,1.34545017 16.6861659,1.48571658 L14.3754614,2.29040282 C14.1096935,2.37899214 13.8143958,2.30516771 13.6298347,2.09107687 L12.0204622,0.238083775 C11.7473118,-0.0793612582 11.2526882,-0.0793612582 10.9795378,0.238083775 L9.37754775,2.09107687 C9.19298668,2.30516771 8.89768897,2.38637458 8.63192104,2.29040282 L6.3212165,1.48571658 C5.9225646,1.34545017 5.50176537,1.59645322 5.4205585,2.00248756 L4.95546461,4.40916386 C4.90378751,4.68231424 4.68969668,4.90378751 4.40916386,4.95546461 L2.00248756,5.4205585 C1.58907078,5.50176537 1.34545017,5.9225646 1.48571658,6.3212165 L2.29040282,8.63192104 C2.37899214,8.89768897 2.30516771,9.19298668 2.09107687,9.37754775 L0.238083775,10.9795378 C-0.0793612582,11.2526882 -0.0793612582,11.7473118 0.238083775,12.0204622 L2.09107687,13.6224523 C2.30516771,13.8070133 2.38637458,14.102311 2.29040282,14.368079 L1.48571658,16.6787835 C1.34545017,17.0774354 1.59645322,17.4982346 2.00248756,17.5794415 L4.40916386,18.0445354 C4.68231424,18.0962125 4.90378751,18.3103033 4.95546461,18.5908361 L5.4205585,20.9975124 C5.50176537,21.4109292 5.9225646,21.6545498 6.3212165,21.5142834 L8.63192104,20.7095972 C8.89768897,20.6210079 9.19298668,20.6948323 9.37754775,20.9089231 L10.9795378,22.7619162 C11.2526882,23.0793613 11.7473118,23.0793613 12.0204622,22.7619162 L13.6224523,20.9089231 C13.8070133,20.6948323 14.102311,20.6136254 14.368079,20.7095972 L16.6787835,21.5142834 C17.0774354,21.6545498 17.4982346,21.4035468 17.5794415,20.9975124 L18.0445354,18.5908361 C18.0962125,18.3176858 18.3103033,18.0962125 18.5908361,18.0445354 L20.9975124,17.5794415 C21.4109292,17.4982346 21.6545498,17.0774354 21.5142834,16.6787835 L20.7095972,14.368079 C20.6210079,14.102311 20.6948323,13.8070133 20.9089231,13.6224523 L22.7619162,12.0204622 C23.0867437,11.7473118 23.0867437,11.2526882 22.7692987,10.9795378 Z M16.5089873,10.9426256 L14.2425774,12.8546782 L14.9512919,15.7338308 C15.0841759,16.2727492 14.4935805,16.7009308 14.0211042,16.4130156 L11.5036912,14.8405553 L8.98627829,16.4056331 C8.51380196,16.7009308 7.92320655,16.2727492 8.05609052,15.7264484 L8.76480501,12.8472958 L6.49839512,10.9352431 C6.07021345,10.5735035 6.29906917,9.87955384 6.85275237,9.84264163 L9.80572942,9.62855079 L10.9204783,6.88228214 C11.1271866,6.36551115 11.8580485,6.36551115 12.0721393,6.88228214 L13.1868881,9.62855079 L16.1398652,9.84264163 C16.7083133,9.88693629 16.9297866,10.5808859 16.5089873,10.9426256 Z" id="Shape"></path>
                            </g>
                        </g>
                    </g>
                </g>
            </g>
        </g>
    </g>
</svg>