<?xml version="1.0" encoding="UTF-8"?>
<svg width="35px" height="45px" viewBox="0 0 35 45" version="1.1" xmlns="http://www.w3.org/2000/svg" xmlns:xlink="http://www.w3.org/1999/xlink">
    <!-- Generator: Sketch 42 (36781) - http://www.bohemiancoding.com/sketch -->
    <title>board-paper</title>
    <desc>Created with Sketch.</desc>
    <defs></defs>
    <g id="Métiers-du-web---Formation-Test" stroke="none" stroke-width="1" fill="none" fill-rule="evenodd">
        <g id="Métiers-du-web---Formation" transform="translate(-703.000000, -1091.000000)" fill-rule="nonzero" fill="#FFFFFF">
            <g id="web-critères" transform="translate(184.000000, 868.000000)">
                <g id="Group-7" transform="translate(106.000000, 223.000000)">
                    <g id="efficaces" transform="translate(315.000000, 0.000000)">
                        <g id="editing-board-papper" transform="translate(98.000000, 0.000000)">
                            <g id="board-paper">
                                <path d="M31.5438402,5.72697003 C33.1504303,5.72697003 34.4528302,7.02936955 34.4528302,8.63596004 L34.4528302,42.0432852 C34.4528302,43.6498751 33.15043,44.9522752 31.5438402,44.9522752 L2.90899001,44.9522752 C1.30239951,44.9522752 0,43.6498753 0,42.0432852 L0,8.63596004 C0,7.02936932 1.30239929,5.72697003 2.90899001,5.72697003 L11.4541135,5.72697003 C11.4813876,2.14979777 14.7219426,-0.561046051 18.314431,0.10013121 C20.5464381,0.510919861 22.3620708,2.27337849 22.8573874,4.49604272 C22.9488724,4.90657104 22.9955179,5.31816389 22.9987457,5.72697003 L31.5438402,5.72697003 Z M20.9226995,6.52800756 C21.0285413,6.00667459 21.0254527,5.4703632 20.9052721,4.93106696 C20.5839084,3.48899219 19.3920652,2.33205417 17.9524221,2.06709577 C15.5784198,1.63017401 13.4539401,3.41756633 13.4539401,5.77247503 C13.4539401,6.02696747 13.4796532,6.279376 13.5301307,6.52800761 C13.655921,7.14759894 13.182355,7.72697003 12.5501236,7.72697003 L2.90899001,7.72697003 C2.40696879,7.72697003 2,8.13393882 2,8.63596004 L2,42.0432852 C2,42.545306 2.40696915,42.9522752 2.90899001,42.9522752 L31.5438402,42.9522752 C32.0458605,42.9522752 32.4528302,42.5453056 32.4528302,42.0432852 L32.4528302,8.63596004 C32.4528302,8.13393918 32.0458609,7.72697003 31.5438402,7.72697003 L21.9027066,7.72697003 C21.2704751,7.72697003 20.7969092,7.1475989 20.9226995,6.52800756 Z" id="Shape"></path>
                                <path d="M17.2264151,7.72697003 C16.1469773,7.72697003 15.2719201,6.85191281 15.2719201,5.77247503 C15.2719201,4.69303724 16.1469773,3.81798002 17.2264151,3.81798002 C18.3058529,3.81798002 19.1809101,4.69303724 19.1809101,5.77247503 C19.1809101,6.85191281 18.3058529,7.72697003 17.2264151,7.72697003 Z M17.2264151,5.72697003 C17.2012834,5.72697003 17.1809101,5.74734331 17.1809101,5.77247503 C17.1809101,5.79760674 17.2012834,5.81798002 17.2264151,5.81798002 C17.2515468,5.81798002 17.2719201,5.79760674 17.2719201,5.77247503 C17.2719201,5.74734331 17.2515468,5.72697003 17.2264151,5.72697003 Z" id="Oval"></path>
                                <path d="M11.9323759,11.4539401 L13.4026234,7.0431978 C13.5772711,6.51925448 13.2941112,5.95293451 12.7701678,5.77828674 C12.2462245,5.60363896 11.6799045,5.88679895 11.5052568,6.41074227 L9.59626676,12.1377123 C9.38042305,12.7852434 9.86239233,13.4539401 10.5449501,13.4539401 L23.9078801,13.4539401 C24.5904379,13.4539401 25.0724071,12.7852434 24.8565634,12.1377123 L22.9475734,6.41074227 C22.7729256,5.88679895 22.2066057,5.60363896 21.6826624,5.77828674 C21.158719,5.95293451 20.8755591,6.51925448 21.0502068,7.0431978 L22.5204542,11.4539401 L11.9323759,11.4539401 Z" id="Shape"></path>
                                <path d="M27.6803552,39.1342952 L6.77247503,39.1342952 L6.77247503,11.5449501 L10.5447115,11.5449501 C11.0969963,11.5449501 11.5447115,11.0972348 11.5447115,10.5449501 C11.5447115,9.99266531 11.0969963,9.54495006 10.5447115,9.54495006 L5.77247503,9.54495006 C5.22019028,9.54495006 4.77247503,9.99266531 4.77247503,10.5449501 L4.77247503,40.1342952 C4.77247503,40.68658 5.22019028,41.1342952 5.77247503,41.1342952 L28.6803552,41.1342952 C29.2326399,41.1342952 29.6803552,40.68658 29.6803552,40.1342952 L29.6803552,10.5449501 C29.6803552,9.99266531 29.2326399,9.54495006 28.6803552,9.54495006 L23.9078801,9.54495006 C23.3555954,9.54495006 22.9078801,9.99266531 22.9078801,10.5449501 C22.9078801,11.0972348 23.3555954,11.5449501 23.9078801,11.5449501 L27.6803552,11.5449501 L27.6803552,39.1342952 Z" id="Shape"></path>
                                <path d="M11.4994451,20.1354051 L17.2264151,20.1354051 C17.7786998,20.1354051 18.2264151,19.6876899 18.2264151,19.1354051 C18.2264151,18.5831204 17.7786998,18.1354051 17.2264151,18.1354051 L11.4994451,18.1354051 C10.9471603,18.1354051 10.4994451,18.5831204 10.4994451,19.1354051 C10.4994451,19.6876899 10.9471603,20.1354051 11.4994451,20.1354051 Z" id="Shape"></path>
                                <path d="M11.4994451,24.9078801 L22.9533851,24.9078801 C23.5056699,24.9078801 23.9533851,24.4601649 23.9533851,23.9078801 C23.9533851,23.3555954 23.5056699,22.9078801 22.9533851,22.9078801 L11.4994451,22.9078801 C10.9471603,22.9078801 10.4994451,23.3555954 10.4994451,23.9078801 C10.4994451,24.4601649 10.9471603,24.9078801 11.4994451,24.9078801 Z" id="Shape"></path>
                                <path d="M11.4994451,29.6803552 L22.9533851,29.6803552 C23.5056699,29.6803552 23.9533851,29.2326399 23.9533851,28.6803552 C23.9533851,28.1280704 23.5056699,27.6803552 22.9533851,27.6803552 L11.4994451,27.6803552 C10.9471603,27.6803552 10.4994451,28.1280704 10.4994451,28.6803552 C10.4994451,29.2326399 10.9471603,29.6803552 11.4994451,29.6803552 Z" id="Shape"></path>
                                <path d="M11.4994451,34.4528302 L22.9533851,34.4528302 C23.5056699,34.4528302 23.9533851,34.0051149 23.9533851,33.4528302 C23.9533851,32.9005454 23.5056699,32.4528302 22.9533851,32.4528302 L11.4994451,32.4528302 C10.9471603,32.4528302 10.4994451,32.9005454 10.4994451,33.4528302 C10.4994451,34.0051149 10.9471603,34.4528302 11.4994451,34.4528302 Z" id="Shape"></path>
                            </g>
                        </g>
                    </g>
                </g>
            </g>
        </g>
    </g>
</svg>