<?xml version="1.0" encoding="UTF-8"?>
<svg width="23px" height="23px" viewBox="0 0 23 23" version="1.1" xmlns="http://www.w3.org/2000/svg" xmlns:xlink="http://www.w3.org/1999/xlink">
    <!-- Generator: Sketch 42 (36781) - http://www.bohemiancoding.com/sketch -->
    <title>Shape</title>
    <desc>Created with Sketch.</desc>
    <defs></defs>
    <g id="Métiers-du-web---Formation" stroke="none" stroke-width="1" fill="none" fill-rule="evenodd">
        <g transform="translate(-734.000000, -1409.000000)" id="tips-formation" fill="#E74C3C">
            <g transform="translate(289.000000, 1114.000000)">
                <g id="extensibles" transform="translate(445.000000, 235.000000)">
                    <g id="puzzle-piece-plugin" transform="translate(0.000000, 60.000000)">
                        <g id="Capa_1">
                            <g id="extension">
                                <path d="M20.2430037,10.9421642 L18.6016791,10.9421642 L18.6016791,6.56529851 C18.6016791,5.36166045 17.6168843,4.37686567 16.4132463,4.37686567 L12.0363806,4.37686567 L12.0363806,2.73554104 C12.0363806,1.20363806 10.8327425,0 9.30083955,0 C7.76893657,0 6.56529851,1.20363806 6.56529851,2.73554104 L6.56529851,4.37686567 L2.18843284,4.37686567 C0.984794776,4.37686567 0,5.36166045 0,6.56529851 L0,10.7233209 L1.64132463,10.7233209 C3.28264925,10.7233209 4.59570896,12.0363806 4.59570896,13.6777052 C4.59570896,15.3190299 3.28264925,16.6320896 1.64132463,16.6320896 L0,16.6320896 L0,20.7901119 C0,21.99375 0.984794776,22.9785448 2.18843284,22.9785448 L6.34645522,22.9785448 L6.34645522,21.3372201 C6.34645522,19.6958955 7.65951493,18.3828358 9.30083955,18.3828358 C10.9421642,18.3828358 12.2552239,19.6958955 12.2552239,21.3372201 L12.2552239,22.9785448 L16.4132463,22.9785448 C17.6168843,22.9785448 18.6016791,21.99375 18.6016791,20.7901119 L18.6016791,16.4132463 L20.2430037,16.4132463 C21.7749067,16.4132463 22.9785448,15.2096082 22.9785448,13.6777052 C22.9785448,12.1458022 21.7749067,10.9421642 20.2430037,10.9421642 Z" id="Shape"></path>
                            </g>
                        </g>
                    </g>
                </g>
            </g>
        </g>
    </g>
</svg>