<?xml version="1.0" encoding="UTF-8"?>
<svg width="47px" height="46px" viewBox="0 0 47 46" version="1.1" xmlns="http://www.w3.org/2000/svg" xmlns:xlink="http://www.w3.org/1999/xlink">
    <!-- Generator: Sketch 42 (36781) - http://www.bohemiancoding.com/sketch -->
    <title>Layer_1</title>
    <desc>Created with Sketch.</desc>
    <defs></defs>
    <g id="Métiers-du-web---Formation-Test" stroke="none" stroke-width="1" fill="none" fill-rule="evenodd">
        <g id="Métiers-du-web---Formation" transform="translate(-1012.000000, -1319.000000)" fill-rule="nonzero" fill="#FFFFFF">
            <g id="web-critères" transform="translate(184.000000, 868.000000)">
                <g id="Group-7" transform="translate(106.000000, 223.000000)">
                    <g id="Extensibles" transform="translate(630.000000, 228.000000)">
                        <g id="office-07" transform="translate(115.500000, 23.000000) scale(-1, 1) translate(-115.500000, -23.000000) translate(92.000000, 0.000000)">
                            <g id="Layer_1">
                                <path d="M1.95348837,41 C1.40120362,41 0.953488372,41.4477153 0.953488372,42 C0.953488372,42.5522847 1.40120362,43 1.95348837,43 L42.9534884,43 C43.5057731,43 43.9534884,42.5522847 43.9534884,42 L43.9534884,1 C43.9534884,0.44771525 43.5057731,0 42.9534884,0 C42.4012036,0 41.9534884,0.44771525 41.9534884,1 L41.9534884,41 L1.95348837,41 Z" id="Shape"></path>
                                <path d="M45.0603351,4.53553364 C45.4508595,4.9260579 46.0840244,4.92605784 46.4745487,4.53553352 C46.865073,4.14500919 46.8650729,3.51184421 46.4745486,3.12131996 L43.6461213,0.292893156 C43.255597,-0.0976310863 42.622432,-0.0976310471 42.2319078,0.292893244 L39.4034807,3.12132054 C39.0129564,3.51184485 39.0129564,4.14500983 39.4034807,4.53553411 C39.794005,4.92605838 40.42717,4.92605836 40.8176943,4.53553406 L42.9390146,2.41421352 L45.0603351,4.53553364 Z" id="Shape"></path>
                                <path d="M4.53553318,39.5675719 C4.92605747,39.1770476 4.92605747,38.5438826 4.53553318,38.1533583 C4.14500889,37.762834 3.51184391,37.762834 3.12131962,38.1533583 L0.292893219,40.9817847 C-0.0976310778,41.372309 -0.0976310722,42.005474 0.292893231,42.3959983 L3.12131963,45.2244246 C3.51184393,45.6149489 4.14500891,45.6149489 4.53553319,45.2244246 C4.92605748,44.8339003 4.92605747,44.2007353 4.53553317,43.810211 L2.41421357,41.6888915 L4.53553318,39.5675719 Z" id="Shape"></path>
                                <path d="M7.95348837,37 L12.9534884,37 L12.9534884,7 L7.95348837,7 L7.95348837,37 Z M6.95348837,5 L13.9534884,5 C14.5057731,5 14.9534884,5.44771525 14.9534884,6 L14.9534884,38 C14.9534884,38.5522847 14.5057731,39 13.9534884,39 L6.95348837,39 C6.40120362,39 5.95348837,38.5522847 5.95348837,38 L5.95348837,6 C5.95348837,5.44771525 6.40120362,5 6.95348837,5 Z" id="Rectangle-path"></path>
                                <path d="M18.9534884,37 L23.9534884,37 L23.9534884,16 L18.9534884,16 L18.9534884,37 Z M17.9534884,14 L24.9534884,14 C25.5057731,14 25.9534884,14.4477153 25.9534884,15 L25.9534884,38 C25.9534884,38.5522847 25.5057731,39 24.9534884,39 L17.9534884,39 C17.4012036,39 16.9534884,38.5522847 16.9534884,38 L16.9534884,15 C16.9534884,14.4477153 17.4012036,14 17.9534884,14 Z" id="Rectangle-path"></path>
                                <path d="M29.9534884,37 L34.9534884,37 L34.9534884,28 L29.9534884,28 L29.9534884,37 Z M28.9534884,26 L35.9534884,26 C36.5057731,26 36.9534884,26.4477153 36.9534884,27 L36.9534884,38 C36.9534884,38.5522847 36.5057731,39 35.9534884,39 L28.9534884,39 C28.4012036,39 27.9534884,38.5522847 27.9534884,38 L27.9534884,27 C27.9534884,26.4477153 28.4012036,26 28.9534884,26 Z" id="Rectangle-path"></path>
                            </g>
                        </g>
                    </g>
                </g>
            </g>
        </g>
    </g>
</svg>