<?xml version="1.0" encoding="UTF-8"?>
<svg width="7px" height="12px" viewBox="0 0 7 12" version="1.1" xmlns="http://www.w3.org/2000/svg" xmlns:xlink="http://www.w3.org/1999/xlink">
    <!-- Generator: Sketch 42 (36781) - http://www.bohemiancoding.com/sketch -->
    <title>Shape</title>
    <desc>Created with Sketch.</desc>
    <defs></defs>
    <g id="Vue-articles-blog/tuto" stroke="none" stroke-width="1" fill="none" fill-rule="evenodd">
        <g transform="translate(-744.000000, -2870.000000)" id="Group-16" fill="#566273">
            <g transform="translate(195.000000, 2827.000000)">
                <g id="Group-15" transform="translate(40.000000, 1.000000)">
                    <g id="Group-17" transform="translate(0.000000, 25.000000)">
                        <g id="follow" transform="translate(384.000000, 7.000000)">
                            <g id="Group-12" transform="translate(100.000000, 10.000000)">
                                <g id="Group-13">
                                    <g id="facebook-f" transform="translate(25.230769, 0.000000)">
                                        <path d="M5.94794248,0.086097 L5.94794248,1.98022971 L4.86712393,1.98022971 C4.4724304,1.98022971 4.20624138,2.06632671 4.06855771,2.23852071 C3.93087403,2.41071429 3.86203199,2.66900529 3.86203199,3.01339286 L3.86203199,4.36941986 L5.87910044,4.36941986 L5.61061684,6.49314429 L3.86203199,6.49314429 L3.86203199,11.9387756 L1.75546901,11.9387756 L1.75546901,6.49314429 L0,6.49314429 L0,4.36941986 L1.75546901,4.36941986 L1.75546901,2.80532529 C1.75546901,1.91565729 1.99412096,1.22568557 2.47142486,0.735411429 C2.94872917,0.245137286 3.58436965,0 4.37834629,0 C5.05299716,0 5.57619602,0.0286992857 5.94794248,0.086097 Z" id="Shape"></path>
                                    </g>
                                </g>
                            </g>
                        </g>
                    </g>
                </g>
            </g>
        </g>
    </g>
</svg>