<?xml version="1.0" encoding="UTF-8"?>
<svg width="25px" height="25px" viewBox="0 0 25 25" version="1.1" xmlns="http://www.w3.org/2000/svg" xmlns:xlink="http://www.w3.org/1999/xlink">
    <!-- Generator: Sketch 42 (36781) - http://www.bohemiancoding.com/sketch -->
    <title>facebook with circle</title>
    <desc>Created with Sketch.</desc>
    <defs></defs>
    <g id="Métiers-du-web---Interview" stroke="none" stroke-width="1" fill="none" fill-rule="evenodd">
        <g transform="translate(-908.000000, -477.000000)" id="facebook-with-circle" fill-rule="nonzero" fill="#000000">
            <g transform="translate(908.000000, 477.000000)">
                <g id="Facebook_w_x2F__circle">
                    <path d="M12.5,0.5 C5.8725,0.5 0.5,5.8725 0.5,12.5 C0.5,19.1275 5.8725,24.5 12.5,24.5 C19.1275,24.5 24.5,19.1275 24.5,12.5 C24.5,5.8725 19.1275,0.5 12.5,0.5 Z M15.3425,8.7925 L13.53875,8.7925 C13.325,8.7925 13.0875,9.07375 13.0875,9.4475 L13.0875,10.75 L15.34375,10.75 L15.0025,12.6075 L13.0875,12.6075 L13.0875,18.18375 L10.95875,18.18375 L10.95875,12.6075 L9.0275,12.6075 L9.0275,10.75 L10.95875,10.75 L10.95875,9.6575 C10.95875,8.09 12.04625,6.81625 13.53875,6.81625 L15.3425,6.81625 L15.3425,8.7925 Z" id="Shape"></path>
                </g>
            </g>
        </g>
    </g>
</svg>