<svg xmlns="http://www.w3.org/2000/svg" viewBox="0 0 41 47">
  <g fill="#136A8A">
    <path d="M36 13.414V26h2V13a1 1 0 0 0-.293-.707l-12-12A1 1 0 0 0 25 0H3a3 3 0 0 0-3 3v40a3 3 0 0 0 3 3h20v-2H3a1 1 0 0 1-1-1V3a1 1 0 0 1 1-1h21.586L36 13.414z"/>
    <path d="M7 17h12a1 1 0 0 0 0-2H7a1 1 0 0 0 0 2zm0 6h24a1 1 0 0 0 0-2H7a1 1 0 0 0 0 2zm0 6h14a1 1 0 0 0 0-2H7a1 1 0 0 0 0 2zm0 6h14a1 1 0 0 0 0-2H7a1 1 0 0 0 0 2zm27.796 4.285l3.65-3.65-1.326-1.327-1.327-1.327-3.65 3.65-3.585 3.586-.948 3.6 3.6-.947 3.586-3.585zm-2.815 5.45l-5.52 1.453a1 1 0 0 1-1.221-1.221l1.453-5.52a1 1 0 0 1 .26-.453l3.776-3.776 4.357-4.358a1 1 0 0 1 1.414 0l2.035 2.034 2.033 2.033a1 1 0 0 1 0 1.414L36.21 40.7l-3.776 3.777a1 1 0 0 1-.453.26z"/>
    <path d="M27.33 41.054L30.458 44.048 31.841 42.604 28.713 39.609z"/>
    <path d="M26 2h-2v11a1 1 0 0 0 1 1h12v-2H26V2z"/>
  </g>
</svg>
