<?xml version="1.0" encoding="UTF-8"?>
<svg width="12px" height="12px" viewBox="0 0 12 12" version="1.1" xmlns="http://www.w3.org/2000/svg" xmlns:xlink="http://www.w3.org/1999/xlink">
    <!-- Generator: Sketch 42 (36781) - http://www.bohemiancoding.com/sketch -->
    <title>Shape</title>
    <desc>Created with Sketch.</desc>
    <defs></defs>
    <g id="Articles-blog/tuto" stroke="none" stroke-width="1" fill="none" fill-rule="evenodd">
        <g transform="translate(-1215.000000, -1637.000000)" id="aside" fill="#FFFFFF">
            <g transform="translate(951.000000, 1529.000000)">
                <g id="chercher-un-article">
                    <g id="search" transform="translate(255.000000, 99.000000)">
                        <g transform="translate(9.000000, 9.000000)" id="Shape">
                            <g>
                                <path d="M8.30769214,5.07692311 C8.30769214,4.18750007 7.99158636,3.42668275 7.35937479,2.79447116 C6.72716323,2.16225957 5.96634594,1.84615378 5.07692293,1.84615378 C4.18749992,1.84615378 3.42668263,2.16225957 2.79447106,2.79447116 C2.1622595,3.42668275 1.84615371,4.18750007 1.84615371,5.07692311 C1.84615371,5.96634615 2.1622595,6.72716347 2.79447106,7.35937506 C3.42668263,7.99158665 4.18749992,8.30769244 5.07692293,8.30769244 C5.96634594,8.30769244 6.72716323,7.99158665 7.35937479,7.35937506 C7.99158636,6.72716347 8.30769214,5.96634615 8.30769214,5.07692311 Z M12,11.0769231 C12,11.3269231 11.9086537,11.5432696 11.7259614,11.7259618 C11.5432692,11.9086541 11.3269231,12 11.0769231,12 C10.8173076,12 10.6009615,11.9086541 10.4278844,11.7259618 L7.95432697,9.25961536 C7.09374999,9.85576941 6.13461517,10.1538462 5.07692293,10.1538462 C4.38942299,10.1538462 3.73197093,10.0204327 3.10456718,9.75360602 C2.47716343,9.48677894 1.93629821,9.12620182 1.48197107,8.6718751 C1.02764436,8.21754795 0.667067258,7.6766827 0.400240183,7.04927892 C0.133413538,6.42187515 0,5.76442307 0,5.07692311 C0,4.38942315 0.133413538,3.73197107 0.400240183,3.1045673 C0.667067258,2.47716352 1.02764436,1.93629784 1.48197107,1.48197112 C1.93629821,1.02764397 2.47716343,0.667067282 3.10456718,0.400240197 C3.73197093,0.133413112 4.38942299,0 5.07692293,0 C5.76442286,0 6.42187492,0.133413112 7.04927867,0.400240197 C7.67668285,0.667067282 8.21754808,1.02764397 8.67187479,1.48197112 C9.12620192,1.93629784 9.4867786,2.47716352 9.75360567,3.1045673 C10.0204327,3.73197107 10.1538463,4.38942315 10.1538463,5.07692311 C10.1538463,6.13461539 9.85576906,7.09374982 9.25961546,7.95432683 L11.7331729,10.4278848 C11.9110578,10.6057692 12,10.8221153 12,11.0769231 Z"></path>
                            </g>
                        </g>
                    </g>
                </g>
            </g>
        </g>
    </g>
</svg>