<?xml version="1.0" encoding="UTF-8"?>
<svg width="28px" height="17px" viewBox="0 0 28 17" version="1.1" xmlns="http://www.w3.org/2000/svg" xmlns:xlink="http://www.w3.org/1999/xlink">
    <!-- Generator: Sketch 42 (36781) - http://www.bohemiancoding.com/sketch -->
    <title>Group</title>
    <desc>Created with Sketch.</desc>
    <defs></defs>
    <g id="Nos-diplômés" stroke="none" stroke-width="1" fill="none" fill-rule="evenodd">
        <g transform="translate(-643.000000, -1297.000000)" id="group+bouton" fill="#136A8A">
            <g transform="translate(210.000000, 1049.000000)">
                <g id="diplômé-group">
                    <g id="card-copy-2" transform="translate(360.000000, 0.000000)">
                        <g id="location-work" transform="translate(73.000000, 242.000000)">
                            <g id="Group-2">
                                <g id="Group-3">
                                    <g id="students-cap" transform="translate(0.000000, 6.000000)">
                                        <g id="Capa_1">
                                            <g id="Group">
                                                <path d="M14.0420496,10.9251652 L5.6643261,8.35487918 L5.6643261,10.8835881 L5.6643261,12.6476458 C5.6643261,14.6322106 9.41641322,16.241238 14.0445678,16.241238 C18.6724742,16.241238 22.4251997,14.6322106 22.4251997,12.6476458 C22.4251997,12.632019 22.4200568,12.6163215 22.4197376,12.6010483 L22.4197376,8.35487918 L14.0420496,10.9251652 Z" id="Shape"></path>
                                                <path d="M0,5.39986339 L2.99292321,6.46704474 L3.2479759,5.92254714 L4.3474938,5.82938753 L4.50426377,5.99198375 L3.56077101,6.21500114 L3.42326033,6.62069622 C3.42301205,6.62069622 1.29207541,11.0613868 1.60504787,13.2337912 C1.60504787,13.2337912 2.93518079,14.0246756 4.26474621,13.2337912 L4.61808161,7.29420309 L4.61808161,6.79980309 L6.59721384,6.35475824 L6.4574332,6.69787551 L4.98180923,7.17618913 L5.66429063,7.41921728 L14.0420141,9.98950332 L22.4196667,7.41921728 L28.0839218,5.39989874 L14.0420141,0.0149196796 L0,5.39986339 Z" id="Shape"></path>
                                            </g>
                                        </g>
                                    </g>
                                </g>
                            </g>
                        </g>
                    </g>
                </g>
            </g>
        </g>
    </g>
</svg>