<?xml version="1.0" encoding="UTF-8"?>
<svg width="18px" height="20px" viewBox="0 0 18 20" version="1.1" xmlns="http://www.w3.org/2000/svg" xmlns:xlink="http://www.w3.org/1999/xlink">
    <!-- Generator: Sketch 42 (36781) - http://www.bohemiancoding.com/sketch -->
    <title>Group</title>
    <desc>Created with Sketch.</desc>
    <defs></defs>
    <g id="Métiers-du-web---Fiche-d’un-cours" stroke="none" stroke-width="1" fill="none" fill-rule="evenodd">
        <g transform="translate(-197.000000, -302.000000)" id="Group-3" fill="#FFFFFF">
            <g transform="translate(197.000000, 298.000000)">
                <g id="hourglass" transform="translate(0.000000, 4.000000)">
                    <g id="Capa_1">
                        <g id="Layer_1_64_">
                            <g id="Group">
                                <path d="M8.55293023,9.34541667 C8.55293023,9.59166667 8.75344186,9.79 9,9.79 C9.24655814,9.79 9.44706977,9.59041667 9.44706977,9.34541667 C9.44748837,8.82458333 9.63334884,8.31833333 9.97074419,7.92 C10.7213023,7.03416667 11.283907,6.07375 11.6401395,5.06541667 C11.6882791,4.92916667 11.6673488,4.77833333 11.5836279,4.66041667 C11.4994884,4.5425 11.3638605,4.4725 11.2186047,4.4725 L6.78097674,4.4725 C6.63572093,4.4725 6.49967442,4.5425 6.41553488,4.66041667 C6.33181395,4.77833333 6.31088372,4.92916667 6.35902326,5.06541667 C6.71609302,6.07375 7.27786047,7.03416667 8.0284186,7.92 C8.36623256,8.31833333 8.55251163,8.825 8.55293023,9.34541667 Z" id="Shape"></path>
                                <path d="M9.44706977,11.1291667 C9.44706977,10.8833333 9.24655814,10.6845833 9,10.6845833 C8.75344186,10.6845833 8.55293023,10.8841667 8.55293023,11.1291667 C8.55251163,11.7716667 8.16697674,12.4070833 7.46748837,12.9225 C5.97139535,14.0220833 4.85162791,15.2166667 4.13916279,16.4725 C4.06088372,16.6108333 4.06213953,16.7791667 4.14293023,16.915 C4.22246512,17.0520833 4.36981395,17.1358333 4.52888372,17.1358333 L13.4719535,17.1358333 C13.6306047,17.1358333 13.7775349,17.0520833 13.857907,16.915 C13.9378605,16.7791667 13.9391163,16.6108333 13.8612558,16.4725 C13.1492093,15.2166667 12.0290233,14.0220833 10.5333488,12.9225 C9.83302326,12.4070833 9.44748837,11.7716667 9.44706977,11.1291667 Z" id="Shape"></path>
                                <path d="M16.8245581,17.80375 L16.5570698,17.80375 C16.249814,14.34 14.2120465,11.6808333 12.6280465,9.79208333 C14.2124651,7.90375 16.2493953,5.24416667 16.557907,1.78041667 L16.8253953,1.78041667 C17.3193488,1.78041667 17.7195349,1.38166667 17.7195349,0.89 C17.7195349,0.398333333 17.3193488,0 16.8253953,0 L1.17502326,0 C0.681069767,0 0.280883721,0.39875 0.280883721,0.89 C0.280883721,1.38166667 0.681069767,1.78041667 1.17502326,1.78041667 L1.44251163,1.78041667 C1.75018605,5.24458333 3.78711628,7.90416667 5.37153488,9.79208333 C3.78753488,11.6804167 1.75018605,14.3395833 1.44209302,17.80375 L1.17502326,17.80375 C0.681069767,17.80375 0.280883721,18.2016667 0.280883721,18.6933333 C0.280883721,19.1854167 0.681069767,19.5841667 1.17502326,19.5841667 L2.29311628,19.5841667 L15.7068837,19.5841667 L16.8253953,19.5841667 C17.3193488,19.5841667 17.7195349,19.1854167 17.7195349,18.6933333 C17.7195349,18.2016667 17.3189302,17.80375 16.8245581,17.80375 Z M3.23497674,17.80375 C3.57111628,14.6741667 5.61516279,12.2641667 7.14265116,10.4633333 L7.22427907,10.3670833 C7.5055814,10.0358333 7.5055814,9.55083333 7.22427907,9.21916667 L7.14306977,9.12333333 C5.616,7.32208333 3.57111628,4.91208333 3.23497674,1.78208333 L14.7650233,1.78208333 C14.4288837,4.91208333 12.384,7.32208333 10.8569302,9.12333333 L10.7761395,9.21916667 C10.4948372,9.55041667 10.4948372,10.0354167 10.7761395,10.3670833 L10.8577674,10.4633333 C12.3848372,12.2641667 14.4288837,14.6741667 14.7650233,17.80375 L3.23497674,17.80375 Z" id="Shape"></path>
                            </g>
                        </g>
                    </g>
                </g>
            </g>
        </g>
    </g>
</svg>