<?xml version="1.0" encoding="UTF-8"?>
<svg width="13px" height="12px" viewBox="0 0 13 12" version="1.1" xmlns="http://www.w3.org/2000/svg" xmlns:xlink="http://www.w3.org/1999/xlink">
    <!-- Generator: Sketch 42 (36781) - http://www.bohemiancoding.com/sketch -->
    <title>Path</title>
    <desc>Created with Sketch.</desc>
    <defs></defs>
    <g id="Métiers-du-web---Programme-des-cours" stroke="none" stroke-width="1" fill="none" fill-rule="evenodd" fill-opacity="0.75">
        <g transform="translate(-197.000000, -201.000000)" id="breadcrumb" fill="#FFFFFF">
            <g transform="translate(197.000000, 201.000000)">
                <g id="Group-3">
                    <g id="noun_667916_cc">
                        <g id="Group">
                            <path d="M12.4874813,5.09153094 C12.4338266,5.24251893 12.2971286,5.33877378 12.1369734,5.33877378 L11.046894,5.33877378 L11.046894,10.6656842 C11.046894,11.1297027 10.6672671,11.5093297 10.2032486,11.5093297 L2.30657639,11.5093297 C1.84255792,11.5093297 1.46320058,11.1297027 1.46320058,10.6656842 L1.46320058,5.33877378 L0.373121173,5.33877378 C0.212696427,5.33877378 0.0762679876,5.24278856 0.0223437031,5.09153094 C-0.0313109599,4.94054294 0.0134461962,4.77984857 0.13747205,4.6782013 L2.7924342,2.50774885 L5.54850437,0.254792244 C5.96372136,-0.084930748 6.54610364,-0.084930748 6.96159025,0.254792244 L10.5270639,3.16939982 L12.3728922,4.67847092 C12.4966484,4.77984857 12.5414056,4.94054294 12.4874813,5.09153094 Z" id="Path"></path>
                        </g>
                    </g>
                </g>
            </g>
        </g>
    </g>
</svg>