<?xml version="1.0" encoding="UTF-8"?>
<svg width="45px" height="45px" viewBox="0 0 45 45" version="1.1" xmlns="http://www.w3.org/2000/svg" xmlns:xlink="http://www.w3.org/1999/xlink">
    <!-- Generator: Sketch 42 (36781) - http://www.bohemiancoding.com/sketch -->
    <title>Shape</title>
    <desc>Created with Sketch.</desc>
    <defs></defs>
    <g id="Vue-articles-blog/tuto" stroke="none" stroke-width="1" fill="none" fill-rule="evenodd">
        <g transform="translate(-220.000000, -823.000000)" id="date" fill="#3E7500">
            <g transform="translate(200.000000, 800.000000)">
                <g id="icon" transform="translate(20.000000, 23.000000)">
                    <g id="Capa_1">
                        <path d="M22.1475,0 C9.916875,0 0,9.916875 0,22.1475 C0,34.378125 9.916875,44.296875 22.1475,44.296875 C34.378125,44.296875 44.296875,34.378125 44.296875,22.1475 C44.296875,9.916875 34.378125,0 22.1475,0 Z M26.758125,34.325625 C25.618125,34.775625 24.710625,35.116875 24.03,35.353125 C23.35125,35.589375 22.561875,35.7075 21.66375,35.7075 C20.28375,35.7075 19.209375,35.37 18.444375,34.696875 C17.679375,34.02375 17.29875,33.170625 17.29875,32.13375 C17.29875,31.730625 17.326875,31.318125 17.383125,30.898125 C17.44125,30.478125 17.533125,30.005625 17.65875,29.475 L19.085625,24.435 C19.21125,23.95125 19.32,23.491875 19.40625,23.064375 C19.4925,22.633125 19.53375,22.2375 19.53375,21.8775 C19.53375,21.23625 19.400625,20.78625 19.13625,20.533125 C18.868125,20.28 18.36375,20.15625 17.611875,20.15625 C17.244375,20.15625 16.865625,20.210625 16.4775,20.325 C16.093125,20.443125 15.759375,20.55 15.485625,20.655 L15.8625,19.1025 C16.79625,18.721875 17.690625,18.395625 18.54375,18.125625 C19.396875,17.851875 20.203125,17.716875 20.9625,17.716875 C22.333125,17.716875 23.390625,18.050625 24.135,18.710625 C24.875625,19.3725 25.24875,20.233125 25.24875,21.290625 C25.24875,21.51 25.2225,21.89625 25.171875,22.4475 C25.12125,23.000625 25.025625,23.505 24.886875,23.968125 L23.4675,28.993125 C23.35125,29.39625 23.248125,29.8575 23.154375,30.373125 C23.0625,30.88875 23.0175,31.2825 23.0175,31.546875 C23.0175,32.214375 23.165625,32.67 23.465625,32.911875 C23.761875,33.15375 24.28125,33.275625 25.01625,33.275625 C25.363125,33.275625 25.75125,33.21375 26.19,33.09375 C26.625,32.97375 26.94,32.866875 27.13875,32.775 L26.758125,34.325625 Z M26.506875,13.929375 C25.845,14.544375 25.048125,14.851875 24.11625,14.851875 C23.18625,14.851875 22.38375,14.544375 21.71625,13.929375 C21.0525,13.314375 20.716875,12.56625 20.716875,11.6925 C20.716875,10.820625 21.054375,10.070625 21.71625,9.45 C22.38375,8.8275 23.18625,8.518125 24.11625,8.518125 C25.048125,8.518125 25.846875,8.8275 26.506875,9.45 C27.16875,10.070625 27.500625,10.820625 27.500625,11.6925 C27.500625,12.568125 27.16875,13.314375 26.506875,13.929375 Z" id="Shape"></path>
                    </g>
                </g>
            </g>
        </g>
    </g>
</svg>