<?xml version="1.0" encoding="UTF-8" standalone="no"?><!DOCTYPE svg PUBLIC "-//W3C//DTD SVG 1.1//EN" "http://www.w3.org/Graphics/SVG/1.1/DTD/svg11.dtd"><svg width="100%" height="100%" viewBox="0 0 37 45" version="1.1" xmlns="http://www.w3.org/2000/svg" xmlns:xlink="http://www.w3.org/1999/xlink" xml:space="preserve" style="fill-rule:evenodd;clip-rule:evenodd;stroke-linejoin:round;stroke-miterlimit:1.41421;"><path d="M18.233,0.001c0.688,0.013 1.375,0.056 2.058,0.143c1.548,0.197 3.069,0.596 4.513,1.186c2.212,0.904 4.235,2.253 5.924,3.942c1.689,1.689 3.038,3.712 3.941,5.924c0.677,1.655 1.102,3.411 1.26,5.192c0.081,0.913 0.095,1.833 0.031,2.747c-0.086,1.244 -0.311,2.477 -0.641,3.679c-0.51,1.858 -1.266,3.642 -2.166,5.343c-1.108,2.092 -2.437,4.064 -3.887,5.933c-1.806,2.328 -3.807,4.504 -5.926,6.549c-0.846,0.816 -1.712,1.612 -2.598,2.384c-0.679,0.592 -1.37,1.172 -2.079,1.728l-0.051,0.04c-0.088,0.059 -0.108,0.079 -0.205,0.122c-0.219,0.098 -0.47,0.113 -0.7,0.043c-0.076,-0.024 -0.149,-0.056 -0.218,-0.097c-0.034,-0.02 -0.066,-0.044 -0.099,-0.067c-0.196,-0.151 -0.391,-0.306 -0.584,-0.462c-1.914,-1.554 -3.735,-3.224 -5.464,-4.98c-1.935,-1.965 -3.758,-4.048 -5.392,-6.271c-1.276,-1.736 -2.439,-3.561 -3.408,-5.487c-0.766,-1.525 -1.41,-3.115 -1.861,-4.762c-0.33,-1.206 -0.555,-2.442 -0.641,-3.69c-0.069,-0.992 -0.047,-1.99 0.053,-2.98c0.173,-1.703 0.59,-3.38 1.238,-4.964c0.931,-2.279 2.334,-4.357 4.095,-6.076c1.71,-1.67 3.75,-2.995 5.974,-3.871c1.383,-0.546 2.834,-0.917 4.309,-1.105c0.684,-0.087 1.37,-0.13 2.059,-0.143c0.232,-0.001 0.232,-0.001 0.465,0Zm-0.44,2c-0.613,0.012 -1.224,0.05 -1.832,0.127c-1.31,0.167 -2.599,0.497 -3.827,0.981c-1.977,0.78 -3.791,1.958 -5.311,3.442c-1.519,1.483 -2.739,3.266 -3.566,5.221c-0.618,1.461 -1.014,3.013 -1.174,4.591c-0.089,0.876 -0.109,1.76 -0.048,2.639c0.078,1.116 0.28,2.222 0.575,3.3c0.43,1.57 1.052,3.082 1.79,4.53c0.904,1.775 1.982,3.458 3.161,5.062c1.525,2.074 3.22,4.02 5.017,5.86c1.684,1.725 3.46,3.361 5.324,4.889l0.097,0.079c1.696,-1.383 3.314,-2.866 4.86,-4.415c1.934,-1.937 3.757,-3.992 5.394,-6.188c1.22,-1.638 2.339,-3.358 3.277,-5.174c0.746,-1.444 1.378,-2.952 1.82,-4.518c0.317,-1.119 0.534,-2.269 0.615,-3.431c0.061,-0.877 0.041,-1.759 -0.048,-2.633c-0.16,-1.578 -0.556,-3.13 -1.174,-4.591c-0.827,-1.955 -2.047,-3.738 -3.566,-5.221c-1.473,-1.439 -3.223,-2.59 -5.129,-3.369c-1.221,-0.499 -2.503,-0.844 -3.809,-1.027c-0.606,-0.085 -1.214,-0.131 -1.825,-0.15c-0.207,-0.004 -0.414,-0.005 -0.621,-0.004Z" style="fill-rule:nonzero;"/><path d="M18.103,10c0.373,0.007 0.745,0.035 1.114,0.092c0.747,0.114 1.478,0.336 2.163,0.656c1.575,0.735 2.888,1.987 3.699,3.524c0.367,0.695 0.63,1.443 0.778,2.215c0.16,0.832 0.186,1.69 0.079,2.53c-0.104,0.817 -0.336,1.617 -0.684,2.363c-0.408,0.873 -0.975,1.67 -1.664,2.343c-0.713,0.696 -1.556,1.258 -2.474,1.647c-0.951,0.403 -1.978,0.616 -3.011,0.629c-1.036,0.013 -2.072,-0.175 -3.036,-0.555c-0.928,-0.366 -1.785,-0.909 -2.516,-1.589c-0.704,-0.656 -1.29,-1.438 -1.718,-2.3c-0.366,-0.735 -0.616,-1.527 -0.741,-2.339c-0.128,-0.838 -0.123,-1.696 0.016,-2.532c0.124,-0.745 0.354,-1.472 0.682,-2.152c0.769,-1.595 2.07,-2.912 3.655,-3.7c0.675,-0.336 1.398,-0.575 2.141,-0.707c0.366,-0.066 0.735,-0.103 1.106,-0.12c0.137,-0.004 0.274,-0.006 0.411,-0.005Zm-0.181,2c-0.28,0.005 -0.559,0.026 -0.836,0.069c-0.56,0.085 -1.107,0.251 -1.619,0.491c-1.138,0.531 -2.095,1.423 -2.708,2.518c-0.286,0.512 -0.497,1.066 -0.621,1.639c-0.147,0.671 -0.176,1.367 -0.09,2.047c0.078,0.612 0.251,1.211 0.512,1.769c0.307,0.656 0.732,1.254 1.25,1.759c0.535,0.523 1.167,0.945 1.856,1.236c0.713,0.302 1.483,0.461 2.256,0.471c0.777,0.01 1.554,-0.13 2.277,-0.415c0.696,-0.275 1.339,-0.682 1.887,-1.193c0.529,-0.492 0.969,-1.079 1.291,-1.727c0.273,-0.55 0.461,-1.142 0.554,-1.75c0.1,-0.654 0.092,-1.325 -0.025,-1.977c-0.099,-0.555 -0.278,-1.096 -0.529,-1.602c-0.581,-1.168 -1.544,-2.131 -2.712,-2.712c-0.506,-0.251 -1.047,-0.43 -1.602,-0.53c-0.275,-0.049 -0.552,-0.077 -0.83,-0.089c-0.104,-0.003 -0.207,-0.004 -0.311,-0.004Z" style="fill-rule:nonzero;"/></svg>