<?xml version="1.0" encoding="UTF-8"?>
<svg width="13px" height="13px" viewBox="0 0 13 13" version="1.1" xmlns="http://www.w3.org/2000/svg" xmlns:xlink="http://www.w3.org/1999/xlink">
    <!-- Generator: Sketch 42 (36781) - http://www.bohemiancoding.com/sketch -->
    <title>Shape</title>
    <desc>Created with Sketch.</desc>
    <defs></defs>
    <g id="Home-v2" stroke="none" stroke-width="1" fill="none" fill-rule="evenodd">
        <g id="Home-v2-Copy-4" transform="translate(-551.000000, -1554.000000)" fill="#FFFFFF">
            <g id="location-arrow" transform="translate(551.000000, 1554.000000)">
                <path d="M12.6630368,0.840715815 L6.87746678,12.4118553 C6.77501406,12.6227876 6.60325515,12.728254 6.3621895,12.728254 C6.33205663,12.728254 6.28685652,12.7222272 6.22659025,12.7101736 C6.09400412,12.6800407 5.98703171,12.6122411 5.90567194,12.5067747 C5.82431271,12.4013089 5.78363282,12.2822829 5.78363282,12.1496967 L5.78363282,6.94268393 L0.576620015,6.94268393 C0.444033884,6.94268393 0.325007895,6.90200404 0.219541508,6.82064427 C0.11407566,6.73928504 0.0462760324,6.63231209 0.0161426245,6.49972596 C-0.0139902434,6.36714037 -0.0019372042,6.24058103 0.0523022819,6.12004794 C0.106542308,5.99951539 0.193928327,5.9091157 0.314461418,5.84884943 L11.8856009,0.0632799405 C11.963947,0.0210929535 12.0513336,0 12.1477595,0 C12.3104785,0 12.4460778,0.0572531509 12.5545573,0.171758913 C12.644957,0.256131807 12.7007036,0.360091632 12.7217965,0.483637308 C12.74289,0.607183524 12.7233031,0.726209513 12.6630368,0.840715815 Z" id="Shape"></path>
            </g>
        </g>
    </g>
</svg>