<?xml version="1.0" encoding="UTF-8"?>
<svg width="52px" height="50px" viewBox="0 0 52 50" version="1.1" xmlns="http://www.w3.org/2000/svg" xmlns:xlink="http://www.w3.org/1999/xlink">
    <!-- Generator: Sketch 42 (36781) - http://www.bohemiancoding.com/sketch -->
    <title>noun_634267_cc</title>
    <desc>Created with Sketch.</desc>
    <defs></defs>
    <g id="Home-v2-Copy" stroke="none" stroke-width="1" fill="none" fill-rule="evenodd">
        <g id="Home-v2-Copy-9" transform="translate(-1125.000000, -3941.000000)" fill-rule="nonzero" fill="#DFDFDF">
            <g id="noun_634267_cc" transform="translate(1125.000000, 3941.000000)">
                <g id="Group">
                    <g id="Shape">
                        <path d="M24.4881867,0.509457831 L0.565349398,16.4583133 L8.3855,43.6594036 L28.0448494,49.7082108 C28.0456566,49.7084699 28.0464699,49.7087229 28.0473133,49.7089819 L28.3297289,49.7958675 L37.1565542,43.6696687 C37.1567771,43.6695241 37.1570301,43.6693735 37.157253,43.6691928 L50.7295602,34.2493373 C50.7300361,34.249006 50.7304398,34.2487108 50.7309217,34.2484157 L51.0842289,34.0032108 L43.4399699,6.11616265 L24.4881867,0.509457831 Z M24.9788193,5.99644578 L24.2163554,5.99644578 L24.9888193,2.21403012 L44.3863434,16.5888012 L36.6372711,18.5884036 C36.5980783,18.4355964 36.5012289,18.2978976 36.3534217,18.2137711 C36.0628072,18.0496386 35.6957108,18.1511205 35.5321687,18.4402651 L35.2438675,18.9479578 L27.8138313,20.8652349 C27.6177831,20.7716988 27.3794157,20.7808494 27.1937349,20.9199096 C27.1429217,20.9581506 27.1072169,21.0074157 27.0721807,21.0566145 L20.8107831,22.6723193 L22.2959217,15.4001627 L22.3715181,15.5008735 C22.4897651,15.6588313 22.6709578,15.7417771 22.8539157,15.7417771 C22.9798072,15.7417771 23.1062952,15.7026566 23.2151265,15.6211747 C23.4810361,15.4214518 23.5345663,15.0437651 23.3351386,14.7778614 L22.6180843,13.8226265 L23.9703072,7.20126506 L24.9788193,7.20126506 C25.3117892,7.20126506 25.5812289,6.93153614 25.5812289,6.59885542 C25.5812289,6.2661747 25.3117952,5.99644578 24.9788193,5.99644578 Z M15.1857289,8.15911446 L14.8231566,9.08909036 C14.7025542,9.39912048 14.855512,9.74827108 15.1655422,9.86916265 C15.2373133,9.89710843 15.3114398,9.91063855 15.3843855,9.91063855 C15.624994,9.91063855 15.8526627,9.76474096 15.9456145,9.52677711 L16.6021446,7.84279518 C16.6059699,7.83301205 16.6040542,7.82290361 16.6073313,7.81304819 C16.7254277,7.95453012 16.893241,8.03428313 17.0663072,8.03428313 C17.1921988,8.03428313 17.3192711,7.99486747 17.4275181,7.91368072 C17.6934277,7.71395783 17.7469578,7.33627108 17.5475301,7.07007229 L17.3046386,6.74651205 L17.7846867,6.42644578 C17.7677711,6.48207831 17.7499036,6.53770482 17.7499036,6.5988494 C17.7499036,6.93153012 18.0193434,7.20125904 18.3523133,7.20125904 L20.1595422,7.20125904 C20.492512,7.20125904 20.7619518,6.93153012 20.7619518,6.5988494 C20.7619518,6.26616867 20.492512,5.99643976 20.1595422,5.99643976 L18.4297108,5.99643976 L23.7049157,2.47963855 L22.9787831,6.03537952 C22.7418855,6.11648795 22.5691867,6.3345241 22.5691867,6.5988494 C22.5691867,6.77710241 22.6499277,6.933 22.7729578,7.0433012 L21.5245602,13.1565663 C21.4848494,13.1743976 21.4431205,13.1853554 21.4067169,13.2124157 C21.1408072,13.4121386 21.0872771,13.7898253 21.2867048,14.0557289 L21.3293554,14.1125361 L19.5771325,22.693012 L2.59311446,16.554241 L15.1857289,8.15911446 Z M7.08883133,34.7887169 L8.26313253,35.6265904 C8.36961446,35.7021867 8.49139157,35.7386627 8.61257831,35.7386627 C8.80083133,35.7386627 8.98614458,35.651006 9.1038012,35.4862831 C9.29675904,35.2153735 9.23381325,34.8391627 8.9631988,34.6459096 L7.49188554,33.5961024 C7.46519277,33.5771325 7.43430723,33.5718012 7.40588554,33.557753 C7.41496988,33.5558434 7.4239759,33.5566506 7.43305422,33.5543313 L9.18263253,33.1019337 C9.50501807,33.0186928 9.69856627,32.6898373 9.6150241,32.367747 C9.53207229,32.0453614 9.20322289,31.8538735 8.88142771,31.9353554 L7.1318494,32.387753 C6.80946386,32.470994 6.61591566,32.7998494 6.69945783,33.1219398 C6.74457229,33.2969578 6.86590964,33.4272229 7.01559036,33.502488 C6.92010241,33.5231145 6.83450602,33.571759 6.75773494,33.6370241 L6.37140964,32.2931867 C6.38637349,32.300506 6.39659639,32.3133735 6.41236747,32.319512 C6.48413855,32.3474578 6.55826506,32.360988 6.63121084,32.360988 C6.87181928,32.360988 7.09948795,32.2150904 7.19243976,31.9771265 L7.84896988,30.2934398 C7.96957229,29.9834096 7.81661446,29.634259 7.50658434,29.5133675 C7.19890964,29.3933554 6.8476988,29.5454277 6.72651205,29.855753 L6.11873494,31.4143916 L2.17101205,17.6827289 L10.3880723,20.6528253 C10.320747,20.7135301 10.2626928,20.7853373 10.2274337,20.875494 L9.57090361,22.5591807 C9.4503012,22.8692108 9.60325904,23.2183614 9.91328916,23.339253 C9.98506024,23.3671988 10.0591867,23.3807289 10.1321325,23.3807289 C10.372741,23.3807289 10.6004096,23.2348313 10.6933614,22.9968675 L11.3498916,21.3131807 C11.3890843,21.2123976 11.3903012,21.1096687 11.3756687,21.0098072 L19.1516566,23.8204759 L11.850012,36.7061747 L11.4146024,36.3954819 C11.1428133,36.2025241 10.7674819,36.2651747 10.5739337,36.5357892 C10.3809759,36.8066988 10.4439217,37.1829096 10.7145361,37.3761627 L11.252747,37.7602048 L9.05709639,41.6350542 L7.08883133,34.7887169 Z M29.0253434,47.8465241 L29.2480482,46.3358313 C29.2968735,46.0066807 29.0692048,45.7004759 28.7397651,45.6519458 C28.4097349,45.6016446 28.1044096,45.8316687 28.0561687,46.1599337 L27.7926145,47.947747 C27.7861446,47.992753 27.7843795,48.0371687 27.7879096,48.0806988 L27.105494,47.5938855 C26.8342892,47.4009277 26.4583735,47.4635783 26.2648253,47.7341928 C26.2325783,47.7794518 26.2178373,47.8303434 26.1996747,47.8801627 L12.8803675,43.7820542 L19.6903855,43.7820542 L20.0313012,44.0253133 C20.1377831,44.1009096 20.2595602,44.1373855 20.380747,44.1373855 C20.569,44.1373855 20.7543133,44.0497289 20.8719699,43.885006 C20.8946928,43.8530904 20.9022289,43.8164337 20.9179277,43.7820542 L28.777494,43.7820542 C28.844741,43.8231627 28.921,43.8519157 29.0039096,43.8641205 C29.0333253,43.8685301 29.0633253,43.8705904 29.0921506,43.8705904 C29.2002831,43.8705904 29.2986024,43.8337108 29.387988,43.7820542 L34.8815904,43.7820542 L29.0253434,47.8465241 Z M29.8022892,42.577241 L29.9510542,41.5680301 C29.9998795,41.2388795 29.7722108,40.9326747 29.4427711,40.8841446 C29.1115663,40.8326687 28.8074157,41.0635723 28.7591747,41.3921325 L28.584488,42.577247 L20.0762952,42.577247 L19.2600422,41.9948373 C18.9888373,41.8024639 18.6129217,41.8645301 18.4193735,42.1351446 C18.3244036,42.2685 18.292741,42.4272651 18.3160181,42.577247 L9.90824699,42.577247 L12.2441265,38.4550181 C12.3362289,38.5065301 12.4349518,38.5380422 12.5352952,38.5380422 C12.7235482,38.5380422 12.9088614,38.4503855 13.0265181,38.2856627 C13.2194759,38.014753 13.1565301,37.6385422 12.8859157,37.4452892 L12.8363494,37.4099157 L16.4012048,31.1188434 C16.468488,31.1444699 16.5393434,31.1608675 16.6133193,31.1608675 C16.6633253,31.1608675 16.7139157,31.1546928 16.764512,31.141747 L18.5146747,30.6893494 C18.8370602,30.6061084 19.0306084,30.2775482 18.9470663,29.9551627 C18.8641145,29.6327771 18.5352651,29.4395241 18.2134699,29.5227711 L17.1498434,29.7977229 L20.1304518,24.5377048 L30.1204819,36.1179578 C29.800012,36.0842048 29.5096867,36.3042651 29.4627711,36.6246205 L29.1986265,38.4124337 C29.1498012,38.7415843 29.3774699,39.0477892 29.7063193,39.0963193 C29.7363193,39.1007289 29.7657349,39.1027892 29.7951506,39.1027892 C30.0892952,39.1027892 30.3463795,38.8877711 30.3905,38.5883313 L30.6546446,36.8005181 C30.6581024,36.7772831 30.6503795,36.755994 30.6511145,36.7330482 L35.6927711,42.577241 L29.8022892,42.577241 Z M49.498259,32.7745181 L48.9093072,32.554241 C48.5981024,32.4368795 48.2504217,32.5963012 48.1339398,32.907512 C48.0174578,33.219012 48.1757108,33.5661024 48.4869157,33.6825843 L49.1019759,33.9126084 L37.965488,41.641753 L41.6135904,30.916 C41.7520964,30.8516205 41.8691265,30.7407651 41.9268916,30.5864096 C41.9893253,30.4194819 41.9681807,30.2451627 41.8915602,30.0987892 L45.6974337,18.9092048 L49.498259,32.7745181 Z M40.8138434,29.5271566 L39.8808133,29.1783373 C39.5666687,29.0606807 39.2225181,29.2201084 39.1054458,29.5316084 C38.9889639,29.8431084 39.1472169,30.1901988 39.4584217,30.3066807 L40.4257169,30.6683313 L36.6320904,41.8219157 L21.1174277,23.8376867 L27.4116627,22.2134518 L28.1591205,23.2086566 C28.2773675,23.3663193 28.4585602,23.4492651 28.6415181,23.4492651 C28.7674096,23.4492651 28.8944819,23.4098494 29.0027289,23.3286627 C29.2686386,23.1286446 29.3221687,22.7509639 29.122741,22.4850542 L28.6740602,21.8876807 L34.5745783,20.3650361 C34.5927048,20.5537289 34.6885241,20.7323133 34.8656325,20.8331325 C34.959759,20.8863735 35.0621205,20.9116687 35.1627169,20.9116687 C35.3727349,20.9116687 35.5762831,20.802247 35.6868855,20.6066386 L36.0386084,19.987241 L44.8302108,17.7185723 L40.8138434,29.5271566 Z M40.4686988,12.186 L41.3385964,10.6530602 C41.5027289,10.3636205 41.4009578,9.99593976 41.1115181,9.83180723 C40.823253,9.66737952 40.454988,9.76944578 40.2902651,10.0583012 L39.4931325,11.4630301 L33.7421084,7.20126506 L34.6173735,7.20126506 C34.9503434,7.20126506 35.2197831,6.93153614 35.2197831,6.59885542 C35.2197831,6.2661747 34.9503434,5.99644578 34.6173735,5.99644578 L32.8101446,5.99644578 C32.637259,5.99644578 32.484012,6.07112048 32.3741867,6.18756627 L27.6830843,2.71124699 L38.7874036,5.99644578 L37.6294277,5.99644578 C37.2964578,5.99644578 37.0270181,6.2661747 37.0270181,6.59885542 C37.0270181,6.93153614 37.2964578,7.20126506 37.6294277,7.20126506 L39.4366566,7.20126506 C39.7696265,7.20126506 40.0390663,6.93153614 40.0390663,6.59885542 C40.0390663,6.50936145 40.0169699,6.42619277 39.982,6.34986145 L41.9617108,6.93554217 C41.9806446,6.96289759 41.9932229,6.99481325 42.0163133,7.01860241 L41.7780542,7.43893373 C41.6133313,7.72807831 41.7151084,8.09575904 42.0039578,8.26018675 C42.0980843,8.31342771 42.2004458,8.33872289 42.3010422,8.33872289 C42.4681145,8.33872289 42.629494,8.2664759 42.7450542,8.139 L44.7175181,15.3345663 L40.4686988,12.186 Z"></path>
                        <path d="M12.758259,16.0429819 C12.4494036,15.9229699 12.0993735,16.0750422 11.9781867,16.3853675 L11.3216566,18.0690542 C11.2010542,18.3790843 11.354012,18.7282349 11.6640422,18.8491265 C11.7358133,18.8770723 11.8099398,18.8906024 11.8828855,18.8906024 C12.123494,18.8906024 12.3511627,18.7447048 12.4441145,18.506741 L13.1006446,16.8230542 C13.221247,16.5130241 13.0682892,16.1638735 12.758259,16.0429819 Z"></path>
                        <path d="M30.8499639,31.3488313 C30.5181687,31.3005904 30.2140241,31.5273795 30.1657831,31.8568193 L29.9016386,33.6446325 C29.8528133,33.9737831 30.0804819,34.279988 30.4093313,34.3285181 C30.4393313,34.3329277 30.468747,34.334988 30.4981627,34.334988 C30.7923072,34.334988 31.0493916,34.1199699 31.093512,33.8205301 L31.3576566,32.0327169 C31.406488,31.7035723 31.1788193,31.3973675 30.8499639,31.3488313 Z"></path>
                        <path d="M14.509012,11.5528494 C14.200747,11.4331325 13.8501265,11.5849096 13.7289398,11.8952349 L13.0724096,13.5792169 C12.9518072,13.889247 13.1047651,14.2383976 13.4147952,14.3592892 C13.4865663,14.3872349 13.5606928,14.4007651 13.6336386,14.4007651 C13.874247,14.4007651 14.1019157,14.2548675 14.1948675,14.0169036 L14.8513976,12.3329217 C14.972,12.0228976 14.8190422,11.673747 14.509012,11.5528494 Z"></path>
                        <path d="M37.2452711,16.6421566 C37.3393976,16.6953976 37.441759,16.7206928 37.5423554,16.7206928 C37.7523735,16.7206928 37.9559217,16.6112711 38.0665241,16.4156627 L38.9589639,14.8440422 C39.1236867,14.5548976 39.0219096,14.1872169 38.7330602,14.0227892 C38.4424458,13.8580663 38.0753494,13.9598434 37.9118072,14.2492831 L37.0193675,15.8209036 C36.8546446,16.1100482 36.9564217,16.4777289 37.2452711,16.6421566 Z"></path>
                        <path d="M23.1827711,44.7942169 C22.9115663,44.6015542 22.5356506,44.6642048 22.3421024,44.9345241 C22.1491446,45.2054337 22.2120904,45.5816446 22.4827048,45.7748976 L23.9540181,46.8247048 C24.0605,46.9003012 24.1822771,46.9367771 24.3034639,46.9367771 C24.4917169,46.9367771 24.6770301,46.8491205 24.7946867,46.6843976 C24.9876446,46.413488 24.9246988,46.0372771 24.6540843,45.8440241 L23.1827711,44.7942169 Z"></path>
                        <path d="M27.9908675,7.20126506 L29.7980964,7.20126506 C30.1310663,7.20126506 30.400506,6.93153614 30.400506,6.59885542 C30.400506,6.2661747 30.1310663,5.99644578 29.7980964,5.99644578 L27.9908675,5.99644578 C27.6578976,5.99644578 27.3884578,6.2661747 27.3884578,6.59885542 C27.3884578,6.93153614 27.6578976,7.20126506 27.9908675,7.20126506 Z"></path>
                        <path d="M9.25734337,25.0232349 C8.94848795,24.9035181 8.59845783,25.0555904 8.47727108,25.3656205 L7.82074096,27.0493072 C7.70013855,27.3593373 7.85309639,27.708488 8.16312651,27.8293795 C8.23489759,27.8573253 8.3090241,27.8708554 8.38196988,27.8708554 C8.62257831,27.8708554 8.85024699,27.7249578 8.9431988,27.486994 L9.59972892,25.8033072 C9.7203253,25.4932831 9.56737349,25.1441325 9.25734337,25.0232349 Z"></path>
                        <path d="M15.3373253,39.1951566 C15.0655361,39.002494 14.6902048,39.0651446 14.4966566,39.3354639 C14.3036988,39.6063735 14.3666446,39.9825843 14.637259,40.1758373 L16.1085723,41.2256446 C16.2150542,41.301241 16.3368313,41.3377169 16.4580181,41.3377169 C16.6462711,41.3377169 16.8315843,41.2500602 16.949241,41.0853373 C17.1421988,40.8144277 17.079253,40.4382169 16.8086386,40.2449639 L15.3373253,39.1951566 Z"></path>
                        <path d="M33.9743735,22.404753 C33.683759,22.2406205 33.3166627,22.341512 33.1531205,22.631247 L32.2606807,24.2025723 C32.0959578,24.4917169 32.1977349,24.8593976 32.4865843,25.0238253 C32.5807108,25.0770663 32.6830723,25.1023614 32.7836687,25.1023614 C32.9931024,25.1023614 33.1972349,24.9929398 33.3078373,24.7973313 L34.2002771,23.226006 C34.365,22.9368675 34.2632229,22.5691807 33.9743735,22.404753 Z"></path>
                        <path d="M22.8792108,28.316488 L21.1296325,28.7688855 C20.807247,28.8521265 20.6136988,29.1809819 20.697241,29.5030723 C20.767247,29.7745663 21.0119759,29.9548795 21.2796506,29.9548795 C21.3296566,29.9548795 21.380247,29.9484096 21.4308434,29.9354639 L23.1804217,29.4830663 C23.5028072,29.3998253 23.6963554,29.0709699 23.6128133,28.7488795 C23.5298614,28.4267952 23.1998313,28.2344217 22.8792108,28.316488 Z"></path>
                        <path d="M11.9475964,32.3671627 C11.9976024,32.3671627 12.0481928,32.360988 12.0987892,32.3480422 L13.8483675,31.8956446 C14.170753,31.8124036 14.3643012,31.4835482 14.280759,31.1614578 C14.1978072,30.8393675 13.8695422,30.6467048 13.5471627,30.7290663 L11.7975843,31.1814639 C11.4751988,31.2647048 11.2816506,31.5935602 11.3651928,31.9156506 C11.4351928,32.1871446 11.6799217,32.3671627 11.9475964,32.3671627 Z"></path>
                        <path d="M27.5449458,27.1101988 L25.7953675,27.5623012 C25.4729819,27.6455422 25.2794337,27.9741024 25.3629759,28.2961928 C25.4329819,28.5679819 25.6777108,28.7482952 25.9453855,28.7482952 C25.9953916,28.7482952 26.0459819,28.7418253 26.0965783,28.7288795 L27.8461566,28.2767771 C28.1685422,28.1935361 28.3620904,27.8649759 28.2785482,27.5428855 C28.1955964,27.2202108 27.8661506,27.027247 27.5449458,27.1101988 Z"></path>
                        <path d="M43.9723735,31.9947771 L45.6654759,32.6277771 C45.7354819,32.6539578 45.8066687,32.6663072 45.8766747,32.6663072 C46.1208133,32.6663072 46.350247,32.5165843 46.4408434,32.274506 C46.5573253,31.963006 46.3990723,31.6159157 46.0878675,31.4994337 L44.3947651,30.8664337 C44.0812048,30.7487771 43.7358795,30.9082048 43.6193976,31.2197048 C43.5029157,31.5312048 43.6611687,31.8782952 43.9723735,31.9947771 Z"></path>
                        <path d="M32.546006,26.4357229 L31.9109819,26.1983855 L30.9311446,24.8938133 C30.7317169,24.6279036 30.3534458,24.5749578 30.0875361,24.7738012 C29.8216265,24.9738193 29.7680964,25.3515 29.9675241,25.6174096 L30.5123193,26.3427711 L30.4611024,26.356006 C30.1387169,26.439247 29.9451687,26.7678072 30.0287108,27.0898976 C30.1116627,27.4125723 30.4416928,27.605241 30.7623072,27.5225843 L30.8064277,27.5111867 L30.6046446,28.8771265 C30.5558193,29.2062771 30.783488,29.5124819 31.1123373,29.561012 C31.1423373,29.5654217 31.171753,29.5674819 31.2011687,29.5674819 C31.4953133,29.5674819 31.7523976,29.3524639 31.7965181,29.0530241 L32.0220904,27.5260783 L32.1236084,27.5640602 C32.1936145,27.590241 32.2648012,27.6025904 32.3348072,27.6025904 C32.5789458,27.6025904 32.8083795,27.4528675 32.8989759,27.2107892 C33.0154578,26.8992952 32.8572108,26.5522048 32.546006,26.4357229 Z"></path>
                        <path d="M34.591494,27.8437952 C34.475012,28.1552952 34.6332651,28.5023855 34.9444699,28.6188675 L36.6375723,29.2518675 C36.7075783,29.2780482 36.7787651,29.2903976 36.8487711,29.2903976 C37.0929096,29.2903976 37.3223434,29.1406747 37.4129398,28.8985964 C37.5294217,28.5870964 37.3711687,28.240006 37.0599639,28.1235241 L35.3668614,27.4905241 C35.0527108,27.373753 34.7079699,27.5325904 34.591494,27.8437952 Z"></path>
                        <path d="M24.3005241,17.0663133 C24.0346145,17.2660361 23.9810843,17.6437229 24.180512,17.9096265 L25.2653193,19.3550542 C25.3835663,19.5127169 25.564759,19.5956627 25.7477169,19.5956627 C25.8736084,19.5956627 26.0000964,19.5565422 26.1089277,19.4750602 C26.3748373,19.2753373 26.4283675,18.8976506 26.2289398,18.631747 L25.1441325,17.1866084 C24.9446988,16.9204157 24.5681928,16.8665904 24.3005241,17.0663133 Z"></path>
                        <path d="M20.3213253,11.7675783 C20.5872349,11.5678554 20.6407651,11.1901687 20.4413373,10.9239699 L19.3565301,9.47912651 C19.1571024,9.21292771 18.7805964,9.15909639 18.5129217,9.35881928 C18.247012,9.55854217 18.1934819,9.93622892 18.3929096,10.2024277 L19.4777169,11.6472711 C19.5959639,11.8052289 19.7771566,11.8881747 19.9601145,11.8881747 C20.086006,11.8881807 20.212488,11.8490542 20.3213253,11.7675783 Z"></path>
                    </g>
                </g>
            </g>
        </g>
    </g>
</svg>