<?xml version="1.0" encoding="UTF-8"?>
<svg width="47px" height="50px" viewBox="0 0 47 50" version="1.1" xmlns="http://www.w3.org/2000/svg" xmlns:xlink="http://www.w3.org/1999/xlink">
    <!-- Generator: Sketch 42 (36781) - http://www.bohemiancoding.com/sketch -->
    <title>noun_886970_cc</title>
    <desc>Created with Sketch.</desc>
    <defs></defs>
    <g id="Home-v2-Copy" stroke="none" stroke-width="1" fill="none" fill-rule="evenodd">
        <g id="Home-v2-Copy-9" transform="translate(-1044.000000, -3941.000000)" fill-rule="nonzero" fill="#E3E3E3">
            <g id="noun_886970_cc" transform="translate(1044.000000, 3941.000000)">
                <g id="Group">
                    <g id="Shape">
                        <path d="M43.4294872,6.62371795 C45.2557692,6.62371795 46.7410256,5.13782051 46.7410256,3.31153846 C46.7410256,1.48525641 45.2557692,0 43.4294872,0 C41.8814103,0 40.5878205,1.0724359 40.2275641,2.51089744 L6.51474359,2.51089744 C6.15448718,1.0724359 4.86089744,0 3.31217949,0 C1.48589744,0 0,1.48589744 0,3.31217949 C0,5.13846154 1.48589744,6.62435897 3.31217949,6.62435897 C4.86089744,6.62435897 6.15448718,5.55192308 6.51538462,4.11346154 L15.6070513,4.11346154 C12.0198718,5.64230769 8.9,8.20705128 6.71346154,11.5358974 L5.45128205,10.5365385 C5.28397436,10.4044872 5.07051282,10.3448718 4.86153846,10.3685897 C4.65064103,10.3929487 4.45769231,10.500641 4.32564103,10.6673077 L1.24166667,14.5615385 C0.966666667,14.9083333 1.02564103,15.4121795 1.3724359,15.6871795 L5.26602564,18.7717949 C5.41346154,18.8884615 5.58846154,18.9448718 5.76282051,18.9448718 C5.99935897,18.9448718 6.23333333,18.8410256 6.39166667,18.6410256 L9.47628205,14.7467949 C9.60833333,14.5801282 9.66858974,14.3679487 9.64423077,14.1570513 C9.61987179,13.9461538 9.51217949,13.7532051 9.34551282,13.6211538 L7.975,12.5358974 C11.3378205,7.32692308 17.175641,4.11346154 23.3891026,4.11346154 C29.6096154,4.11346154 35.4525641,7.33333333 38.8121795,12.550641 L37.2891026,13.7570513 C37.1224359,13.8891026 37.0153846,14.0820513 36.9910256,14.2929487 C36.9660256,14.5044872 37.0269231,14.7160256 37.1589744,14.8826923 L40.2442308,18.7769231 C40.4019231,18.9762821 40.6358974,19.0807692 40.8724359,19.0807692 C41.0461538,19.0807692 41.2224359,19.024359 41.3692308,18.9076923 L45.2628205,15.8230769 C45.4294872,15.6910256 45.5365385,15.4980769 45.5608974,15.2871795 C45.5858974,15.075641 45.525,14.8641026 45.3929487,14.6974359 L42.3076923,10.8032051 C42.0339744,10.4564103 41.5294872,10.3980769 41.1820513,10.6724359 L40.0737179,11.550641 C37.8871795,8.21474359 34.7641026,5.64423077 31.1711538,4.11282051 L40.2262821,4.11282051 C40.5884615,5.55128205 41.8814103,6.62371795 43.4294872,6.62371795 Z M43.4294872,1.6025641 C44.3717949,1.6025641 45.1384615,2.36923077 45.1384615,3.31217949 C45.1384615,4.25512821 44.3717949,5.02115385 43.4294872,5.02115385 C42.4871795,5.02115385 41.7205128,4.25448718 41.7205128,3.31217949 C41.7205128,2.36987179 42.4878205,1.6025641 43.4294872,1.6025641 Z M3.31217949,5.02115385 C2.36923077,5.02115385 1.6025641,4.25448718 1.6025641,3.31217949 C1.6025641,2.36987179 2.36923077,1.6025641 3.31217949,1.6025641 C4.25512821,1.6025641 5.02179487,2.36923077 5.02179487,3.31217949 C5.02179487,4.25512821 4.25512821,5.02115385 3.31217949,5.02115385 Z M5.63269231,17.0173077 L2.99487179,14.9275641 L5.08397436,12.2897436 L7.7224359,14.3794872 L5.63269231,17.0173077 Z M41.550641,12.4262821 L43.6403846,15.0641026 L41.0025641,17.1538462 L38.9128205,14.5160256 L41.550641,12.4262821 Z"></path>
                        <path d="M24.0474359,7.66217949 C23.7538462,7.19871795 22.9878205,7.19871795 22.6942308,7.66282051 L8.27115385,30.4192308 C8.14166667,30.6230769 8.11153846,30.8737179 8.18846154,31.1025641 C8.26538462,31.3314103 8.44102564,31.5134615 8.66730769,31.5980769 C8.76089744,31.6333333 17.9871795,35.1782051 17.9871795,42.8673077 L17.9871795,48.6365385 C17.9871795,49.0788462 18.3461538,49.4378205 18.7884615,49.4378205 L27.9544872,49.4378205 C28.3967949,49.4378205 28.7557692,49.0788462 28.7557692,48.6365385 L28.7557692,42.8673077 C28.7557692,35.1974359 37.9839744,31.6333333 38.0769231,31.5980769 C38.3025641,31.5128205 38.4782051,31.3307692 38.5544872,31.1025641 C38.6314103,30.8737179 38.600641,30.6224359 38.4717949,30.4192308 L24.0474359,7.66217949 Z M23.3705128,26.2 C24.3423077,26.2 25.1333333,26.9903846 25.1333333,27.9628205 C25.1333333,28.9352564 24.3429487,29.725641 23.3705128,29.725641 C22.3980769,29.725641 21.6076923,28.9352564 21.6076923,27.9628205 C21.6076923,26.9903846 22.3980769,26.2 23.3705128,26.2 Z M32.374359,33.1057692 C28.9576923,35.8314103 27.1525641,39.2070513 27.1525641,42.8666667 L27.1525641,47.8346154 L19.5891026,47.8346154 L19.5891026,42.8666667 C19.5891026,39.2070513 17.7833333,35.8314103 14.3673077,33.1057692 C12.7269231,31.7967949 11.0980769,30.9371795 10.1269231,30.4839744 L22.5692308,10.8525641 L22.5692308,24.7051282 C21.1012821,25.0666667 20.0051282,26.3852564 20.0051282,27.9634615 C20.0051282,29.8192308 21.5147436,31.3288462 23.3705128,31.3288462 C25.2262821,31.3288462 26.7358974,29.8192308 26.7358974,27.9634615 C26.7358974,26.3852564 25.6403846,25.0666667 24.1717949,24.7051282 L24.1717949,10.8525641 L36.6153846,30.4839744 C35.6435897,30.9371795 34.0147436,31.7967949 32.374359,33.1057692 Z"></path>
                    </g>
                </g>
            </g>
        </g>
    </g>
</svg>