<?xml version="1.0" encoding="UTF-8"?>
<svg width="50px" height="50px" viewBox="0 0 50 50" version="1.1" xmlns="http://www.w3.org/2000/svg" xmlns:xlink="http://www.w3.org/1999/xlink">
    <!-- Generator: Sketch 42 (36781) - http://www.bohemiancoding.com/sketch -->
    <title>Shape</title>
    <desc>Created with Sketch.</desc>
    <defs></defs>
    <g id="Home-v2-Copy" stroke="none" stroke-width="1" fill="none" fill-rule="evenodd">
        <g id="Home-v2-Copy-9" transform="translate(-973.000000, -3942.000000)" fill="#E7E7E7">
            <g id="Projets-etudiants" transform="translate(0.000000, 3403.000000)">
                <g id="travaux" transform="translate(0.000000, 13.000000)">
                    <g id="projet-centre" transform="translate(566.000000, 436.000000)">
                        <g id="hover">
                            <g id="content" transform="translate(233.000000, 90.000000)">
                                <g id="internet-logo" transform="translate(174.000000, 0.000000)">
                                    <g id="Capa_1">
                                        <path d="M43.6965517,41.5706897 C47.6137931,37.1560345 50,31.3525862 50,25 C50,18.3905172 47.4172414,12.3767241 43.2137931,7.90172414 L43.2137931,7.90086207 C43.2103448,7.89568966 43.2051724,7.89396552 43.2025862,7.88965517 C38.8241379,3.23534483 32.6896552,0.256034483 25.8663793,0.0224137931 L25.8655172,0.0215517241 L25.3784483,0.00862068966 C25.2525862,0.00431034483 25.1267241,0 25,0 C24.8732759,0 24.7474138,0.00431034483 24.6215517,0.00862068966 L24.1362069,0.0215517241 L24.1353448,0.0224137931 C17.312069,0.256034483 11.1775862,3.23534483 6.79913793,7.88965517 C6.79568966,7.89396552 6.79051724,7.89568966 6.78793103,7.90086207 C6.78793103,7.90086207 6.78793103,7.90172414 6.78706897,7.90258621 C2.58275862,12.3767241 0,18.3905172 0,25 C0,31.3525862 2.3862069,37.1560345 6.30344828,41.5706897 C6.30862069,41.5784483 6.30862069,41.587069 6.31465517,41.5948276 C6.33017241,41.6163793 6.35258621,41.6267241 6.36896552,41.6465517 C10.7706897,46.5672414 17.0862069,49.737069 24.1344828,49.9784483 L24.1353448,49.9793103 L24.6206897,49.9922414 C24.7474138,49.9956897 24.8732759,50 25,50 C25.1267241,50 25.2525862,49.9956897 25.3784483,49.9913793 L25.8637931,49.9784483 L25.8646552,49.9775862 C32.9206897,49.7353448 39.2431034,46.5594828 43.6448276,41.6284483 C43.6560345,41.6137931 43.6741379,41.6094828 43.6844828,41.5939655 C43.6913793,41.587069 43.6913793,41.5784483 43.6965517,41.5706897 Z M1.74568966,25.862069 L12.0931034,25.862069 C12.1905172,29.5163793 12.9043103,33.0672414 14.175,36.3939655 C11.7232759,37.2810345 9.37931034,38.4706897 7.18275862,39.9551724 C3.95258621,36.112931 1.94224138,31.2155172 1.74568966,25.862069 Z M7.65344828,9.50258621 C9.79827586,10.8974138 12.0818966,12.0146552 14.4637931,12.8491379 C13.0051724,16.3896552 12.1982759,20.2068966 12.0931034,24.137931 L1.74568966,24.137931 C1.95172414,18.5284483 4.14827586,13.4206897 7.65344828,9.50258621 Z M48.2543103,24.137931 L37.9068966,24.137931 C37.8017241,20.2068966 36.9948276,16.3896552 35.5362069,12.8491379 C37.9181034,12.0146552 40.2017241,10.8974138 42.3465517,9.50258621 C45.8517241,13.4206897 48.0482759,18.5284483 48.2543103,24.137931 Z M24.137931,12.8991379 C21.6456897,12.8284483 19.1991379,12.4568966 16.8353448,11.7931034 C18.5827586,8.20862069 21.05,4.97327586 24.137931,2.27931034 L24.137931,12.8991379 Z M24.137931,14.6232759 L24.137931,24.137931 L13.8172414,24.137931 C13.9232759,20.3896552 14.7094828,16.7543103 16.1155172,13.3836207 C18.7068966,14.1344828 21.3974138,14.55 24.137931,14.6232759 Z M25.862069,14.6232759 C28.6025862,14.55 31.2931034,14.1353448 33.8853448,13.3836207 C35.2913793,16.7543103 36.0775862,20.3896552 36.1836207,24.137931 L25.862069,24.137931 L25.862069,14.6232759 Z M25.862069,12.8991379 L25.862069,2.27931034 C28.95,4.97327586 31.4172414,8.20862069 33.1646552,11.7931034 C30.8008621,12.4568966 28.3543103,12.8284483 25.862069,12.8991379 Z M34.8353448,11.2689655 C33.1793103,7.79913793 30.8810345,4.63793103 28.0353448,1.92844828 C33.0836207,2.5887931 37.6258621,4.87155172 41.1241379,8.23706897 C39.137931,9.49741379 37.0310345,10.5112069 34.8353448,11.2689655 Z M15.1646552,11.2689655 C12.9689655,10.5112069 10.862069,9.49741379 8.87672414,8.23706897 C12.3741379,4.87155172 16.9172414,2.5887931 21.9655172,1.92844828 C19.1189655,4.63793103 16.8206897,7.79913793 15.1646552,11.2689655 Z M13.8172414,25.862069 L24.137931,25.862069 L24.137931,34.5155172 C21.287069,34.5913793 18.4939655,35.0362069 15.8094828,35.8439655 C14.5965517,32.6931034 13.9146552,29.3267241 13.8172414,25.862069 Z M24.137931,36.2396552 L24.137931,47.7206897 C20.8327586,44.837069 18.2413793,41.3336207 16.4793103,37.4474138 C18.9508621,36.7189655 21.5181034,36.3137931 24.137931,36.2396552 Z M25.862069,47.7206897 L25.862069,36.2396552 C28.4818966,36.312931 31.0491379,36.7189655 33.5206897,37.4465517 C31.7586207,41.3336207 29.1672414,44.837069 25.862069,47.7206897 Z M25.862069,34.5155172 L25.862069,25.862069 L36.1827586,25.862069 C36.0853448,29.3267241 35.4034483,32.6931034 34.1896552,35.8448276 C31.5060345,35.0362069 28.712931,34.5913793 25.862069,34.5155172 Z M37.9068966,25.862069 L48.2543103,25.862069 C48.0577586,31.2155172 46.0482759,36.112931 42.8172414,39.9551724 C40.6206897,38.4706897 38.2767241,37.2810345 35.825,36.3939655 C37.0965517,33.0672414 37.8094828,29.5163793 37.9068966,25.862069 Z M8.35431034,41.2465517 C10.3939655,39.8913793 12.5655172,38.8017241 14.8344828,37.987069 C16.5112069,41.7456897 18.9181034,45.1706897 21.9646552,48.0715517 C16.662069,47.3775862 11.9163793,44.8948276 8.35431034,41.2465517 Z M28.0353448,48.0715517 C31.0818966,45.1715517 33.4887931,41.7465517 35.1655172,37.987069 C37.4344828,38.8017241 39.6051724,39.8913793 41.6456897,41.2465517 C38.0836207,44.8948276 33.337931,47.3775862 28.0353448,48.0715517 Z" id="Shape"></path>
                                    </g>
                                </g>
                            </g>
                        </g>
                    </g>
                </g>
            </g>
        </g>
    </g>
</svg>