<?xml version="1.0" encoding="UTF-8" standalone="no"?><!DOCTYPE svg PUBLIC "-//W3C//DTD SVG 1.1//EN" "http://www.w3.org/Graphics/SVG/1.1/DTD/svg11.dtd"><svg width="100%" height="100%" viewBox="0 0 48 48" version="1.1" xmlns="http://www.w3.org/2000/svg" xmlns:xlink="http://www.w3.org/1999/xlink" xml:space="preserve" style="fill-rule:evenodd;clip-rule:evenodd;stroke-linejoin:round;stroke-miterlimit:1.41421;"><path d="M45.688,9.726c-6.375,6.039 -12.681,12.15 -19.123,18.116c-0.073,0.065 -0.073,0.064 -0.148,0.127c-0.299,0.238 -0.625,0.435 -0.98,0.578c-0.986,0.396 -2.112,0.36 -3.081,-0.068c-0.418,-0.185 -0.795,-0.44 -1.135,-0.744l-18.911,-18.011l1.38,-1.448c6.308,6.008 12.435,12.211 18.925,18.022c0.191,0.163 0.404,0.297 0.639,0.388c0.5,0.194 1.075,0.188 1.559,-0.05c0.186,-0.091 0.347,-0.213 0.494,-0.357l19.005,-18.005c0.459,0.484 0.917,0.968 1.376,1.452Z" style="fill-rule:nonzero;"/><path d="M21.664,26.747l-18,16l-1.328,-1.494l18,-16c0.443,0.498 0.885,0.996 1.328,1.494Z" style="fill-rule:nonzero;"/><path d="M45.664,41.253l-1.328,1.494l-18,-16l1.328,-1.494c6,5.333 12,10.666 18,16Z" style="fill-rule:nonzero;"/><g id="mail"><path d="M43.077,8.001c0.327,0.012 0.647,0.069 0.954,0.182c0.821,0.302 1.484,0.965 1.786,1.786c0.113,0.307 0.17,0.627 0.182,0.954c0.124,9.717 0.124,19.437 0,29.154c-0.012,0.327 -0.069,0.647 -0.182,0.954c-0.294,0.797 -0.928,1.447 -1.717,1.759c-0.328,0.13 -0.672,0.196 -1.023,0.209c-12.717,0.162 -25.437,0.162 -38.154,0c-0.351,-0.013 -0.695,-0.079 -1.023,-0.209c-0.789,-0.312 -1.423,-0.962 -1.717,-1.759c-0.113,-0.307 -0.17,-0.627 -0.182,-0.954c-0.124,-9.717 -0.124,-19.437 0,-29.154c0.012,-0.327 0.069,-0.647 0.182,-0.954c0.302,-0.821 0.965,-1.484 1.786,-1.786c0.307,-0.113 0.627,-0.17 0.954,-0.182c12.717,-0.162 25.437,-0.162 38.154,0Zm-38.071,1.999c-0.118,0.002 -0.235,0.019 -0.346,0.06c-0.275,0.101 -0.499,0.325 -0.6,0.6c-0.037,0.101 -0.055,0.206 -0.06,0.314c-0.123,9.692 -0.37,19.392 0.001,29.077c0.007,0.108 0.028,0.212 0.068,0.312c0.105,0.264 0.324,0.478 0.591,0.577c0.101,0.037 0.206,0.055 0.314,0.06c12.692,0.162 25.394,0.485 38.077,-0.001c0.108,-0.007 0.212,-0.028 0.312,-0.068c0.264,-0.105 0.478,-0.324 0.577,-0.591c0.037,-0.101 0.055,-0.206 0.06,-0.314c0.123,-9.692 0.37,-19.392 -0.001,-29.077c-0.007,-0.108 -0.028,-0.212 -0.068,-0.312c-0.105,-0.264 -0.324,-0.478 -0.591,-0.577c-0.101,-0.037 -0.206,-0.055 -0.314,-0.06c-12.672,-0.161 -25.346,0 -38.02,0Z" style="fill-rule:nonzero;"/></g></svg>