<?xml version="1.0" encoding="UTF-8"?>
<svg width="18px" height="11px" viewBox="0 0 18 11" version="1.1" xmlns="http://www.w3.org/2000/svg" xmlns:xlink="http://www.w3.org/1999/xlink">
    <!-- Generator: Sketch 42 (36781) - http://www.bohemiancoding.com/sketch -->
    <title>Shape</title>
    <desc>Created with Sketch.</desc>
    <defs></defs>
    <g id="Home-v2" stroke="none" stroke-width="1" fill="none" fill-rule="evenodd">
        <g id="Home-v2-Copy-4" transform="translate(-548.000000, -1521.000000)" fill="#FFFFFF">
            <g id="contact" transform="translate(403.000000, 1509.000000)">
                <path d="M145.574001,13.286 C146.062001,13.548 152.822001,17.18 153.074001,17.315 C153.326001,17.45 153.652001,17.514 153.980001,17.514 C154.308001,17.514 154.634001,17.45 154.886001,17.315 C155.138001,17.18 161.898001,13.548 162.386001,13.286 C162.875001,13.023 163.337001,12 162.440001,12 L145.521001,12 C144.624001,12 145.086001,13.023 145.574001,13.286 Z M162.613001,14.489 C162.058001,14.778 155.226001,18.338 154.886001,18.516 C154.546001,18.694 154.308001,18.715 153.980001,18.715 C153.652001,18.715 153.414001,18.694 153.074001,18.516 C152.734001,18.338 145.941001,14.777 145.386001,14.488 C144.996001,14.284 145.000001,14.523 145.000001,14.707 L145.000001,22 C145.000001,22.42 145.566001,23 146.000001,23 L162.000001,23 C162.434001,23 163.000001,22.42 163.000001,22 L163.000001,14.708 C163.000001,14.524 163.004001,14.285 162.613001,14.489 Z" id="Shape"></path>
            </g>
        </g>
    </g>
</svg>