<?xml version="1.0" encoding="UTF-8"?>
<svg width="48px" height="49px" viewBox="0 0 48 49" version="1.1" xmlns="http://www.w3.org/2000/svg" xmlns:xlink="http://www.w3.org/1999/xlink">
    <!-- Generator: Sketch 42 (36781) - http://www.bohemiancoding.com/sketch -->
    <title>noun_954132_cc</title>
    <desc>Created with Sketch.</desc>
    <defs></defs>
    <g id="Métiers-du-web---Fiche-d’un-cours-Copy" stroke="none" stroke-width="1" fill="none" fill-rule="evenodd">
        <g id="Métiers-du-web---Fiche-d’un-cours" transform="translate(-696.000000, -1204.000000)" fill-rule="nonzero" fill="#FFFFFF">
            <g id="Group-15" transform="translate(0.000000, 1050.000000)">
                <g id="Group-14" transform="translate(316.000000, 154.000000)">
                    <g id="noun_954132_cc" transform="translate(380.000000, 0.000000)">
                        <g id="Group">
                            <g id="Shape">
                                <path d="M24,0.202141395 L20.877907,2.33004837 L17.1627907,1.56260651 L15.1046512,4.73702512 L11.372093,5.43469953 L10.6744186,9.14980465 L7.5,11.225414 L8.28488372,14.9405023 L6.13953488,18.0626233 L8.28488372,21.1846884 L7.5,24.8998326 L10.6744186,26.975386 L11.372093,30.6905302 L15.1046512,31.3882047 L17.1627907,34.5626233 L20.877907,33.7951814 L24,35.9230884 L27.1395349,33.7951814 L30.8372093,34.5626233 L32.9127907,31.3882047 L36.627907,30.6905302 L37.3430233,26.975386 L40.5,24.8998326 L39.7325581,21.1846884 L41.8604651,18.0626233 L39.7325581,14.9405023 L40.5,11.225414 L37.3430233,9.14980465 L36.627907,5.43469953 L32.9127907,4.73702512 L30.8372093,1.56260651 L27.1395349,2.33004837 L24,0.202141395 Z M24,8.01609488 L27.1046512,14.2602977 L34.0465116,15.2719256 L29.0232558,20.1207628 L30.2093023,26.9928558 L24,23.7486698 L17.7906977,26.9928558 L18.9767442,20.1207628 L13.9534884,15.2719256 L20.8953488,14.2602977 L24,8.01609488 Z M9.38372093,27.4637581 L0,42.0626233 L8.37209302,40.3882047 L10.6046512,48.2021581 L18.244186,35.4696 L17.3895349,35.6440186 C16.9539293,35.7396837 16.4684986,35.5440558 16.2209302,35.1730605 L14.4069767,32.3998326 L11.1627907,31.7719256 C10.7253656,31.6890419 10.3561172,31.3198326 10.2732558,30.8823628 L9.64534884,27.6381767 L9.38372093,27.4637581 Z M38.6162791,27.4637581 L38.3546512,27.6381767 L37.7267442,30.8823628 C37.6438828,31.3198326 37.2746344,31.6890419 36.8372093,31.7719256 L33.5930233,32.3998326 L31.7790698,35.1730605 C31.5315014,35.5440558 31.0460707,35.7396837 30.6104651,35.6440186 L29.755814,35.4696 L37.3953488,48.2021581 L39.627907,40.3882047 L48,42.0626233 L38.6162791,27.4637581 Z"></path>
                            </g>
                        </g>
                    </g>
                </g>
            </g>
        </g>
    </g>
</svg>