<?xml version="1.0" encoding="UTF-8"?>
<svg width="16px" height="16px" viewBox="0 0 16 16" version="1.1" xmlns="http://www.w3.org/2000/svg" xmlns:xlink="http://www.w3.org/1999/xlink">
    <!-- Generator: Sketch 42 (36781) - http://www.bohemiancoding.com/sketch -->
    <title>Group</title>
    <desc>Created with Sketch.</desc>
    <defs></defs>
    <g id="Home-v2" stroke="none" stroke-width="1" fill="none" fill-rule="evenodd">
        <g id="Home-v2-Copy-4" transform="translate(-912.000000, -4302.000000)" fill="#E7E7E7">
            <g id="Projets-etudiants" transform="translate(-72.000000, 3464.000000)">
                <g id="travaux" transform="translate(0.000000, 14.000000)">
                    <g id="projet-centre" transform="translate(638.000000, 436.000000)">
                        <g id="hover">
                            <g id="content" transform="translate(233.000000, 90.000000)">
                                <g id="réalisateur" transform="translate(113.000000, 294.000000)">
                                    <g id="user-silhouette" transform="translate(0.000000, 4.000000)">
                                        <g id="Capa_1">
                                            <g id="Group">
                                                <path d="M8.00323114,8.47846683 C9.97555231,8.47846683 11.574618,6.58854054 11.574618,4.25721867 C11.574618,1.0243145 9.97563017,0.036009828 8.00323114,0.036009828 C6.03075426,0.036009828 4.43184428,1.0243145 4.43184428,4.25721867 C4.43188321,6.58854054 6.03079319,8.47846683 8.00323114,8.47846683 Z" id="Shape"></path>
                                                <path d="M15.8895961,14.6915774 L14.0877859,10.5927862 C14.0053723,10.4052285 13.8605937,10.2496708 13.6803893,10.1549287 L10.8840876,8.68497297 C10.8224234,8.65261916 10.7477567,8.65890909 10.6923212,8.70128747 C9.90143066,9.30535627 8.97152311,9.62464865 8.00323114,9.62464865 C7.03478345,9.62464865 6.10495377,9.30535627 5.31406326,8.70128747 C5.25847202,8.65890909 5.18380535,8.65261916 5.12214112,8.68497297 L2.32603406,10.1549287 C2.14575182,10.2496708 2.00112895,10.4051499 1.91863747,10.5927862 L0.116827251,14.6915774 C-0.00739659367,14.9741523 0.0180632603,15.2974545 0.184953771,15.5566388 C0.351766423,15.8157838 0.634082725,15.9704373 0.940184915,15.9704373 L15.0661606,15.9704373 C15.3722628,15.9704373 15.6546569,15.8157052 15.8214696,15.5565995 C15.9882822,15.2974545 16.01382,14.9740344 15.8895961,14.6915774 Z" id="Shape"></path>
                                            </g>
                                        </g>
                                    </g>
                                </g>
                            </g>
                        </g>
                    </g>
                </g>
            </g>
        </g>
    </g>
</svg>