<svg xmlns="http://www.w3.org/2000/svg" viewBox="0 0 39 47">
  <g fill="#9C9C9C">
    <path d="M31.849 32.817c1.985 2.458-.703 4.167-3.647 2.839-2.117-.956-4.419-3.252-6.44-6.021 5.156.226 8.675 1.434 10.087 3.182zm-18.737 4.768c-3.384 2.576-6.17.605-4.553-2.723 1.381-2.844 5.103-4.963 10.266-5.236-1.358 3.267-3.245 6.08-5.713 7.96zm3.275-18.992c-.554-2.542.407-4.5 2.265-4.499 1.738.002 2.956 1.814 2.771 4.157-.226 2.87-.74 5.778-1.567 8.492-1.662-2.788-2.945-5.74-3.47-8.15zm2.438 11.033c.373-.02.753-.03 1.14-.03.62 0 1.219.013 1.798.039a37.513 37.513 0 0 1-1.907-2.892c-.302.99-.645 1.955-1.03 2.883zm-8.467 6.11c-.648 1.335-.246 1.62 1.542.258 1.275-.97 2.387-2.258 3.338-3.766-2.464.729-4.157 2.02-4.88 3.508zm9.071-17.642c.103-1.297-.37-2-.78-2-.091 0-.181.06-.273.248-.18.365-.218.986-.035 1.826.173.797.443 1.667.79 2.577.13-.883.229-1.77.298-2.651zm9.596 15.739c.446.2.839.308 1.152.328.07.005.132.005.184.002a1.608 1.608 0 0 0-.068-.09c-.554-.686-1.745-1.307-3.5-1.756.764.67 1.517 1.193 2.232 1.516zm-9.06-2.237c-1.786 0-3.373.231-4.727.632 1.992-3.158 3.28-7.282 3.894-11.483 1.56 4.083 4.684 8.956 7.662 11.572-1.743-.445-4.043-.72-6.829-.72z"/>
    <path d="M3.045 2C2.468 2 2 2.468 2 3.045v40.91C2 44.532 2.468 45 3.045 45h32.728c.577 0 1.045-.468 1.045-1.045V13.687L25.131 2H3.045zm32.728 45H3.045A3.045 3.045 0 0 1 0 43.955V3.045A3.045 3.045 0 0 1 3.045 0h22.5a1 1 0 0 1 .708.293l12.272 12.273a1 1 0 0 1 .293.707v30.682A3.045 3.045 0 0 1 35.773 47z"/>
    <path d="M26.545 2.023h-2v11.25a1 1 0 0 0 1 1h12.273v-2H26.545V2.023z"/>
  </g>
</svg>
