<?xml version="1.0" encoding="UTF-8"?>
<svg width="42px" height="45px" viewBox="0 0 42 45" version="1.1" xmlns="http://www.w3.org/2000/svg" xmlns:xlink="http://www.w3.org/1999/xlink">
    <!-- Generator: Sketch 42 (36781) - http://www.bohemiancoding.com/sketch -->
    <title>block</title>
    <desc>Created with Sketch.</desc>
    <defs></defs>
    <g id="Métiers-du-web---Formation-Test" stroke="none" stroke-width="1" fill="none" fill-rule="evenodd">
        <g id="Métiers-du-web---Formation" transform="translate(-386.000000, -1091.000000)" fill-rule="nonzero" fill="#FFFFFF">
            <g id="web-critères" transform="translate(184.000000, 868.000000)">
                <g id="Group-7" transform="translate(106.000000, 223.000000)">
                    <g id="Performants">
                        <g id="user-interaction-review-blocks" transform="translate(95.000000, 0.000000)">
                            <g id="block">
                                <path d="M5.11677446,21.5584991 L11.5472803,17.6287452 L18.5185861,18.0953287 C19.069638,18.1322101 19.5462522,17.7153926 19.5831336,17.1643407 C19.620015,16.6132888 19.2031975,16.1366747 18.6521456,16.0997932 L11.3637673,15.6119884 C11.1574688,15.598181 10.9519622,15.6486592 10.7755376,15.7564743 L1.47854996,21.4379672 C0.654980673,21.9412595 0.951820408,23.2038766 1.91337044,23.2874896 L15.1127961,24.435265 C15.3167894,24.4530035 15.5213113,24.4076923 15.6987242,24.3054544 L19.0846644,22.3542349 C19.5631805,22.0784799 19.7275508,21.4670224 19.4517958,20.9885063 C19.1760409,20.5099902 18.5645834,20.3456199 18.0860673,20.6213749 L14.9726743,22.4155333 L5.11677446,21.5584991 Z" id="Shape"></path>
                                <path d="M5.10490874,42.1779849 L11.5498367,38.1200676 L18.3254253,38.6433722 C18.8760701,38.6859006 19.3569321,38.2739908 19.3994605,37.723346 C19.4419889,37.1727011 19.0300791,36.6918391 18.4794343,36.6493107 L11.3739921,36.1005302 C11.1597986,36.0839872 10.9459718,36.1368631 10.7641744,36.2513281 L1.46718675,42.1049867 C0.650598373,42.6191349 0.963944266,43.8773693 1.92628803,43.9484991 L15.1257137,44.9241088 C15.3262386,44.9389303 15.5265745,44.8929574 15.7005743,44.7921905 L18.9645633,42.9019466 C19.4424891,42.6251698 19.6055526,42.0133625 19.3287758,41.5354367 C19.0519991,41.0575109 18.4401918,40.8944474 17.962266,41.1712242 L14.9653505,42.9068002 L5.10490874,42.1779849 Z" id="Shape"></path>
                                <path d="M1,22.4634146 L1,42.9512195 C1,43.5035043 1.44771525,43.9512195 2,43.9512195 C2.55228475,43.9512195 3,43.5035043 3,42.9512195 L3,22.4634146 C3,21.9111299 2.55228475,21.4634146 2,21.4634146 C1.44771525,21.4634146 1,21.9111299 1,22.4634146 Z" id="Shape"></path>
                                <path d="M14.6585366,23.4390244 L14.6585366,42.9512195 C14.6585366,43.5035043 15.1062518,43.9512195 15.6585366,43.9512195 C16.2108213,43.9512195 16.6585366,43.5035043 16.6585366,42.9512195 L16.6585366,23.4390244 C16.6585366,22.8867396 16.2108213,22.4390244 15.6585366,22.4390244 C15.1062518,22.4390244 14.6585366,22.8867396 14.6585366,23.4390244 Z" id="Shape"></path>
                                <path d="M10.7560976,23.4390244 L10.7560976,37.097561 C10.7560976,37.6498457 11.2038128,38.097561 11.7560976,38.097561 C12.3083823,38.097561 12.7560976,37.6498457 12.7560976,37.097561 L12.7560976,23.4390244 C12.7560976,22.8867396 12.3083823,22.4390244 11.7560976,22.4390244 C11.2038128,22.4390244 10.7560976,22.8867396 10.7560976,23.4390244 Z" id="Shape"></path>
                                <path d="M37.935069,2.7490232 L28.1292261,2.02107855 L21.7021401,5.94874221 L31.5349326,6.80376783 L37.935069,2.7490232 Z M31.6981619,8.82550888 L18.4987362,7.67773249 C17.5371862,7.59411943 17.2403466,6.33150242 18.0639158,5.82821007 L27.3609025,0.146718169 C27.5394453,0.0376086461 27.7477162,-0.0127465221 27.9563846,0.00274414046 L41.0984223,0.978353897 C42.0591655,1.04967544 42.3733785,2.30476744 41.5595671,2.82034978 L32.3199684,8.67400831 C32.1348923,8.79126149 31.9164306,8.84448877 31.6981619,8.82550888 Z" id="Shape"></path>
                                <path d="M37.9650038,38.9780877 L28.1306607,38.1229266 L21.6902744,42.1779849 L31.5377669,42.9058431 L37.9650038,38.9780877 Z M31.7110795,44.9241088 L18.5116539,43.9484991 C17.5493101,43.8773693 17.2359642,42.6191349 18.0525526,42.1049867 L27.3495392,36.2513281 C27.5341326,36.1351027 27.7516667,36.0824234 27.9689822,36.1013204 L41.1684078,37.2490977 C42.1299578,37.3327108 42.4267974,38.5953278 41.6032281,39.0986201 L32.3062415,44.7801111 C32.1277922,44.8891635 31.9196435,44.9395244 31.7110795,44.9241088 Z" id="Shape"></path>
                                <path d="M40.0243902,1.97560976 L40.0243902,38.0731707 C40.0243902,38.6254555 40.4721055,39.0731707 41.0243902,39.0731707 C41.576675,39.0731707 42.0243902,38.6254555 42.0243902,38.0731707 L42.0243902,1.97560976 C42.0243902,1.42332501 41.576675,0.975609756 41.0243902,0.975609756 C40.4721055,0.975609756 40.0243902,1.42332501 40.0243902,1.97560976 Z" id="Shape"></path>
                                <path d="M17.5853659,6.85365854 L17.5853659,42.9512195 C17.5853659,43.5035043 18.0330811,43.9512195 18.5853659,43.9512195 C19.1376506,43.9512195 19.5853659,43.5035043 19.5853659,42.9512195 L19.5853659,6.85365854 C19.5853659,6.30137379 19.1376506,5.85365854 18.5853659,5.85365854 C18.0330811,5.85365854 17.5853659,6.30137379 17.5853659,6.85365854 Z" id="Shape"></path>
                                <path d="M31.2439024,7.82926829 L31.2439024,42.9512195 C31.2439024,43.5035043 31.6916177,43.9512195 32.2439024,43.9512195 C32.7961872,43.9512195 33.2439024,43.5035043 33.2439024,42.9512195 L33.2439024,7.82926829 C33.2439024,7.27698354 32.7961872,6.82926829 32.2439024,6.82926829 C31.6916177,6.82926829 31.2439024,7.27698354 31.2439024,7.82926829 Z" id="Shape"></path>
                                <path d="M27.3414634,7.82926829 L27.3414634,37.097561 C27.3414634,37.6498457 27.7891787,38.097561 28.3414634,38.097561 C28.8937482,38.097561 29.3414634,37.6498457 29.3414634,37.097561 L29.3414634,7.82926829 C29.3414634,7.27698354 28.8937482,6.82926829 28.3414634,6.82926829 C27.7891787,6.82926829 27.3414634,7.27698354 27.3414634,7.82926829 Z" id="Shape"></path>
                            </g>
                        </g>
                    </g>
                </g>
            </g>
        </g>
    </g>
</svg>