<?xml version="1.0" encoding="UTF-8"?>
<svg width="27px" height="23px" viewBox="0 0 27 23" version="1.1" xmlns="http://www.w3.org/2000/svg" xmlns:xlink="http://www.w3.org/1999/xlink">
    <!-- Generator: Sketch 42 (36781) - http://www.bohemiancoding.com/sketch -->
    <title>Group</title>
    <desc>Created with Sketch.</desc>
    <defs></defs>
    <g id="Métiers-du-web---Formation" stroke="none" stroke-width="1" fill="none" fill-rule="evenodd">
        <g transform="translate(-289.000000, -1116.000000)" id="tips-formation" fill="#3498DB">
            <g transform="translate(289.000000, 1114.000000)">
                <g id="performance">
                    <g id="dashboard" transform="translate(0.000000, 2.000000)">
                        <g id="Group">
                            <path d="M27,14.3307692 C27,6.54615385 20.925,0 13.5,0 C6.075,0 0,6.54615385 0,14.3307692 C0,16.8076923 0.50625,19.4615385 1.51875,21.2307692 L9.7875,21.2307692 C10.63125,22.2923077 11.98125,23 13.5,23 C15.01875,23 16.36875,22.2923077 17.2125,21.2307692 L25.48125,21.2307692 C26.49375,19.4615385 27,16.8076923 27,14.3307692 Z M23.625,8.84615385 L23.625,10.6153846 L16.70625,16.8076923 C16.70625,16.9846154 16.875,17.3384615 16.875,17.6923077 C16.875,19.6384615 15.35625,21.2307692 13.5,21.2307692 C11.64375,21.2307692 10.125,19.6384615 10.125,17.6923077 C10.125,15.7461538 11.64375,14.1538462 13.5,14.1538462 C14.00625,14.1538462 14.5125,14.3307692 14.85,14.5076923 L21.9375,8.84615385 L23.625,8.84615385 L23.625,8.84615385 Z M16.875,3.53846154 L18.5625,3.53846154 L18.5625,5.30769231 L16.875,5.30769231 L16.875,3.53846154 Z M8.4375,3.53846154 L10.125,3.53846154 L10.125,5.30769231 L8.4375,5.30769231 L8.4375,3.53846154 Z M3.375,17.6923077 L1.6875,17.6923077 L1.6875,15.9230769 L3.375,15.9230769 L3.375,17.6923077 Z M5.0625,10.6153846 L3.375,10.6153846 L3.375,8.84615385 L5.0625,8.84615385 L5.0625,10.6153846 Z M25.3125,17.6923077 L23.625,17.6923077 L23.625,15.9230769 L25.3125,15.9230769 L25.3125,17.6923077 Z" id="Shape"></path>
                            <path d="M15.1875,17.6923077 C15.1875,18.6689231 14.4315,19.4615385 13.5,19.4615385 C12.5685,19.4615385 11.8125,18.6689231 11.8125,17.6923077 C11.8125,16.7156923 12.5685,15.9230769 13.5,15.9230769 C14.4315,15.9230769 15.1875,16.7156923 15.1875,17.6923077 Z" id="Shape"></path>
                        </g>
                    </g>
                </g>
            </g>
        </g>
    </g>
</svg>