<?xml version="1.0" encoding="UTF-8"?>
<svg width="20px" height="16px" viewBox="0 0 20 16" version="1.1" xmlns="http://www.w3.org/2000/svg" xmlns:xlink="http://www.w3.org/1999/xlink">
    <!-- Generator: Sketch 42 (36781) - http://www.bohemiancoding.com/sketch -->
    <title>Shape</title>
    <desc>Created with Sketch.</desc>
    <defs></defs>
    <g id="Home-v2" stroke="none" stroke-width="1" fill="none" fill-rule="evenodd">
        <g id="Home-v2-Copy-4" transform="translate(-521.000000, -1483.000000)" fill="#FFFFFF">
            <g id="tel" transform="translate(405.000000, 1474.000000)">
                <path d="M133.209032,19.253 C133.113032,18.586 132.598032,18.066 131.935032,17.911 C129.358032,17.307 128.712032,15.823 128.603032,14.177 C128.146032,14.092 127.333032,14 125.953032,14 C124.573032,14 123.760032,14.092 123.303032,14.177 C123.194032,15.823 122.548032,17.307 119.971032,17.911 C119.308032,18.067 118.793032,18.586 118.697032,19.253 L118.200032,22.695 C118.025032,23.907 118.915032,25 120.153032,25 L131.753032,25 C132.990032,25 133.881032,23.907 133.706032,22.695 L133.209032,19.253 Z M125.953032,22.492 C124.558032,22.492 123.427032,21.372 123.427032,19.992 C123.427032,18.612 124.558032,17.492 125.953032,17.492 C127.348032,17.492 128.479032,18.612 128.479032,19.992 C128.479032,21.372 127.347032,22.492 125.953032,22.492 Z M135.903032,13 C135.879032,11.5 132.061032,9.001 125.953032,9 C119.844032,9.001 116.026032,11.5 116.003032,13 C115.980032,14.5 116.024032,16.452 118.538032,16.127 C121.479032,15.746 121.298032,14.719 121.298032,13.251 C121.298032,12.227 123.690032,11.98 125.953032,11.98 C128.216032,11.98 130.607032,12.227 130.608032,13.251 C130.608032,14.719 130.427032,15.746 133.368032,16.127 C135.881032,16.452 135.926032,14.5 135.903032,13 Z" id="Shape"></path>
            </g>
        </g>
    </g>
</svg>