<?xml version="1.0" encoding="UTF-8" standalone="no"?><!DOCTYPE svg PUBLIC "-//W3C//DTD SVG 1.1//EN" "http://www.w3.org/Graphics/SVG/1.1/DTD/svg11.dtd"><svg width="100%" height="100%" viewBox="0 0 33 49" version="1.1" xmlns="http://www.w3.org/2000/svg" xmlns:xlink="http://www.w3.org/1999/xlink" xml:space="preserve" style="fill-rule:evenodd;clip-rule:evenodd;stroke-linejoin:round;stroke-miterlimit:1.41421;"><g id="i-phone"><path d="M31.175,7.074c0.034,0.006 0.069,0.009 0.103,0.017c0.137,0.029 0.267,0.087 0.38,0.169c0.085,0.061 0.16,0.136 0.221,0.221c0.23,0.316 0.253,0.749 0.057,1.088c-0.052,0.091 -0.119,0.173 -0.197,0.243c-0.129,0.117 -0.29,0.199 -0.461,0.235c-0.091,0.019 -0.115,0.017 -0.208,0.022l-29,0c-0.092,-0.005 -0.116,-0.003 -0.208,-0.022c-0.205,-0.044 -0.394,-0.153 -0.535,-0.309c-0.07,-0.078 -0.128,-0.167 -0.17,-0.262c-0.159,-0.357 -0.091,-0.786 0.17,-1.076c0.07,-0.078 0.153,-0.145 0.243,-0.197c0.121,-0.07 0.257,-0.114 0.396,-0.129c0.035,-0.003 0.07,-0.003 0.104,-0.005l29,0c0.035,0.002 0.07,0.004 0.105,0.005Z" style="fill:#080808;fill-rule:nonzero;"/><path d="M31.175,36.074c0.034,0.006 0.069,0.009 0.103,0.017c0.137,0.029 0.267,0.087 0.38,0.169c0.085,0.061 0.16,0.136 0.221,0.221c0.23,0.316 0.253,0.749 0.057,1.088c-0.052,0.091 -0.119,0.173 -0.197,0.243c-0.129,0.117 -0.29,0.199 -0.461,0.235c-0.091,0.019 -0.115,0.017 -0.208,0.022l-29,0c-0.034,-0.002 -0.069,-0.002 -0.104,-0.006c-0.139,-0.014 -0.275,-0.058 -0.396,-0.128c-0.338,-0.196 -0.535,-0.582 -0.494,-0.971c0.011,-0.104 0.038,-0.206 0.081,-0.302c0.042,-0.096 0.1,-0.184 0.17,-0.262c0.141,-0.156 0.33,-0.266 0.535,-0.309c0.092,-0.02 0.116,-0.017 0.208,-0.022l29,0c0.035,0.002 0.07,0.004 0.105,0.005Z" style="fill:#080808;fill-rule:nonzero;"/><path d="M27.199,0.07c0.17,0.007 0.338,0.017 0.507,0.039c0.41,0.052 0.813,0.155 1.198,0.307c0.636,0.251 1.218,0.634 1.702,1.117c0.512,0.513 0.912,1.136 1.161,1.817c0.128,0.35 0.216,0.714 0.263,1.083c0.022,0.169 0.032,0.338 0.039,0.507c0.161,12.711 0.001,25.424 0.001,38.135c-0.002,0.169 -0.008,0.336 -0.025,0.504c-0.038,0.372 -0.118,0.739 -0.237,1.093c-0.22,0.65 -0.576,1.252 -1.037,1.759c-0.514,0.565 -1.156,1.011 -1.867,1.291c-0.385,0.151 -0.788,0.255 -1.198,0.307c-0.169,0.021 -0.337,0.032 -0.507,0.038c-7.378,0.094 -14.757,0.002 -22.135,0.002c-0.168,-0.002 -0.336,-0.009 -0.504,-0.026c-0.372,-0.038 -0.739,-0.117 -1.093,-0.237c-0.65,-0.22 -1.251,-0.575 -1.759,-1.036c-0.565,-0.514 -1.01,-1.157 -1.291,-1.868c-0.151,-0.384 -0.254,-0.788 -0.307,-1.198c-0.021,-0.168 -0.032,-0.337 -0.038,-0.507c-0.161,-12.71 -0.002,-25.423 -0.002,-38.134c0.002,-0.169 0.009,-0.337 0.026,-0.504c0.038,-0.372 0.117,-0.74 0.237,-1.094c0.22,-0.649 0.575,-1.251 1.036,-1.758c0.514,-0.566 1.157,-1.011 1.868,-1.291c0.384,-0.152 0.788,-0.255 1.198,-0.307c0.168,-0.022 0.337,-0.032 0.507,-0.039c7.418,-0.093 14.838,-0.093 22.257,0Zm-22.122,1.999c-0.355,0.004 -0.704,0.059 -1.038,0.182c-0.822,0.3 -1.486,0.965 -1.787,1.786c-0.112,0.308 -0.168,0.628 -0.181,0.954c-0.161,12.718 -0.161,25.438 0,38.156c0.013,0.326 0.069,0.646 0.181,0.953c0.292,0.798 0.928,1.449 1.718,1.761c0.328,0.129 0.672,0.193 1.022,0.207c7.385,0.093 14.772,0.093 22.156,0c0.351,-0.014 0.695,-0.078 1.022,-0.207c0.791,-0.312 1.426,-0.963 1.719,-1.761c0.112,-0.307 0.168,-0.627 0.18,-0.953c0.161,-12.718 0.161,-25.438 0,-38.156c-0.012,-0.326 -0.068,-0.647 -0.18,-0.954c-0.293,-0.798 -0.928,-1.449 -1.719,-1.76c-0.327,-0.129 -0.671,-0.194 -1.022,-0.207c-7.356,-0.093 -14.714,-0.001 -22.071,-0.001Z" style="fill:#080808;fill-rule:nonzero;"/><path d="M16.172,40.071c0.102,0.008 0.201,0.018 0.3,0.038c0.193,0.04 0.38,0.108 0.552,0.202c0.225,0.122 0.426,0.288 0.589,0.485c0.144,0.174 0.258,0.373 0.336,0.585c0.069,0.188 0.109,0.386 0.119,0.586c0.01,0.202 -0.01,0.405 -0.06,0.601c-0.154,0.598 -0.59,1.103 -1.159,1.343c-0.246,0.104 -0.512,0.158 -0.779,0.158c-0.267,0 -0.533,-0.054 -0.779,-0.158c-0.569,-0.24 -1.004,-0.745 -1.158,-1.343c-0.05,-0.196 -0.071,-0.399 -0.06,-0.601c0.01,-0.2 0.05,-0.398 0.119,-0.586c0.078,-0.212 0.192,-0.411 0.335,-0.585c0.163,-0.197 0.364,-0.363 0.589,-0.485c0.173,-0.094 0.36,-0.162 0.552,-0.202c0.1,-0.02 0.199,-0.03 0.3,-0.038c0.103,-0.002 0.102,-0.002 0.204,0Zm-0.102,1.998c0,0 0,0 0,0c0.001,0 0,0 0,0Z" style="fill:#080808;fill-rule:nonzero;"/></g></svg>