<?xml version="1.0" encoding="UTF-8"?>
<svg width="25px" height="25px" viewBox="0 0 25 25" version="1.1" xmlns="http://www.w3.org/2000/svg" xmlns:xlink="http://www.w3.org/1999/xlink">
    <!-- Generator: Sketch 42 (36781) - http://www.bohemiancoding.com/sketch -->
    <title>pinterest with circle</title>
    <desc>Created with Sketch.</desc>
    <defs></defs>
    <g id="Métiers-du-web---Interview" stroke="none" stroke-width="1" fill="none" fill-rule="evenodd">
        <g transform="translate(-950.000000, -477.000000)" id="pinterest-with-circle" fill-rule="nonzero" fill="#000000">
            <g transform="translate(950.000000, 477.000000)">
                <g id="Pinterest_w_x2F__circle">
                    <path d="M12.5,0.5 C5.8725,0.5 0.5,5.8725 0.5,12.5 C0.5,19.1275 5.8725,24.5 12.5,24.5 C19.1275,24.5 24.5,19.1275 24.5,12.5 C24.5,5.8725 19.1275,0.5 12.5,0.5 Z M13.32125,15.34375 C12.55125,15.285 12.22875,14.90375 11.62625,14.53875 C11.295,16.2775 10.89,17.945 9.69,18.81625 C9.31875,16.18625 10.2325,14.21375 10.6575,12.1175 C9.93375,10.89875 10.74375,8.4475 12.27125,9.05 C14.15,9.795 10.64375,13.58125 12.9975,14.055 C15.455,14.5475 16.45875,9.79 14.935,8.245 C12.7325,6.01125 8.52625,8.19375 9.04375,11.39125 C9.16875,12.1725 9.9775,12.41 9.36625,13.48875 C7.9575,13.17625 7.53625,12.065 7.59125,10.58375 C7.6775,8.15875 9.77,6.46 11.8675,6.22625 C14.52125,5.93125 17.01125,7.2 17.35625,9.6975 C17.7425,12.515 16.1575,15.56375 13.32125,15.34375 Z" id="Shape"></path>
                </g>
            </g>
        </g>
    </g>
</svg>