<?xml version="1.0" encoding="UTF-8"?>
<svg width="12px" height="15px" viewBox="0 0 12 15" version="1.1" xmlns="http://www.w3.org/2000/svg" xmlns:xlink="http://www.w3.org/1999/xlink">
    <!-- Generator: Sketch 42 (36781) - http://www.bohemiancoding.com/sketch -->
    <title>Path</title>
    <desc>Created with Sketch.</desc>
    <defs></defs>
    <g id="Vue-articles-blog/tuto" stroke="none" stroke-width="1" fill="none" fill-rule="evenodd">
        <g transform="translate(-1010.000000, -3076.000000)" id="Group-10" fill="#FFFFFF">
            <g transform="translate(832.000000, 3068.000000)">
                <g id="Group-5" transform="translate(89.000000, 0.000000)">
                    <path d="M96.0026604,18.8765516 C95.062406,18.8067884 94.6685981,18.35407 93.9328796,17.9206478 C93.528387,19.9853406 93.0338376,21.9654271 91.568506,23 C91.1151691,19.8769851 92.230958,17.5347239 92.7499296,15.0455147 C91.8661515,13.5983001 92.8552503,10.6875433 94.7204953,11.4029868 C97.014655,12.2876431 92.7331393,16.7836566 95.6073261,17.3462149 C98.6082031,17.931038 99.8338919,12.2817058 97.9732261,10.447083 C95.2837321,7.79459835 90.1474397,10.3862258 90.7793639,14.1831232 C90.9320026,15.1108249 91.919575,15.3928462 91.1731718,16.6738167 C89.4529336,16.302736 88.9385411,14.9831731 89.0057022,13.2242508 C89.1110229,10.3446647 91.6661948,8.3274702 94.2274723,8.04990185 C97.467992,7.6996017 100.508555,9.20618923 100.929838,12.171866 C101.401491,15.5175293 99.4660326,19.1377924 96.0026604,18.8765516 Z" id="Path"></path>
                </g>
            </g>
        </g>
    </g>
</svg>