<?xml version="1.0" encoding="UTF-8"?>
<svg width="107px" height="107px" viewBox="0 0 107 107" version="1.1" xmlns="http://www.w3.org/2000/svg" xmlns:xlink="http://www.w3.org/1999/xlink">
    <!-- Generator: Sketch 42 (36781) - http://www.bohemiancoding.com/sketch -->
    <title>play-button</title>
    <desc>Created with Sketch.</desc>
    <defs></defs>
    <g id="Réalisations---un-projet-WEB-2" stroke="none" stroke-width="1" fill="none" fill-rule="evenodd">
        <g id="Desktop-HD" transform="translate(-667.000000, -343.000000)" fill="#000000">
            <g id="video" transform="translate(248.000000, 130.000000)">
                <g id="play-button" transform="translate(418.000000, 212.000000)">
                    <g id="Capa_1">
                        <g id="_x33_56._Play">
                            <path d="M81.1226356,100.67277 C55.5786535,115.422898 22.9124622,106.669023 8.1656145,81.1231286 C-6.58579531,55.5786017 2.16697154,22.9126172 27.7129364,8.165729 C53.2564886,-6.58570722 85.9234665,2.1667279 100.672669,27.7128235 C115.424833,53.2553694 106.670341,85.9199708 81.1226356,100.67277 Z M93.7449373,31.7136396 C81.2047352,9.99331313 53.430842,2.55181216 31.7131173,15.0938278 C9.99340021,27.6319426 2.55180402,55.4045396 15.0937479,77.1230077 C27.6318604,98.8427207 55.4048232,106.285309 77.1221142,93.7448681 C98.8440438,81.2013042 106.287148,53.4294873 93.7449373,31.7136396 Z" id="Path" fill-rule="nonzero"></path>
                            <g id="Group" transform="translate(40.000000, 32.000000)">
                                <path d="M36.7316052,19.1408535 L5.17858062,0.724222119 C2.3032156,-0.955778421 -0.0160357209,0.387377017 8.35171558e-05,3.71588289 L0.161659689,40.2710661 C0.176243761,43.5988038 2.52389564,44.9534819 5.40770408,43.2865403 L36.7193239,25.1948473 C39.600062,23.5309784 39.6062027,20.8208541 36.7316052,19.1408535 Z" id="Path"></path>
                            </g>
                        </g>
                    </g>
                </g>
            </g>
        </g>
    </g>
</svg>