<?xml version="1.0" encoding="UTF-8"?>
<svg width="19px" height="23px" viewBox="0 0 19 23" version="1.1" xmlns="http://www.w3.org/2000/svg" xmlns:xlink="http://www.w3.org/1999/xlink">
    <!-- Generator: Sketch 42 (36781) - http://www.bohemiancoding.com/sketch -->
    <title>Capa_1</title>
    <desc>Created with Sketch.</desc>
    <defs></defs>
    <g id="Métiers-du-web---Formation" stroke="none" stroke-width="1" fill="none" fill-rule="evenodd">
        <g transform="translate(-298.000000, -1411.000000)" id="tips-formation" fill="#95A5A6">
            <g transform="translate(289.000000, 1114.000000)">
                <g id="agréables" transform="translate(9.000000, 292.000000)">
                    <g id="icon" transform="translate(0.000000, 5.000000)">
                        <g id="Capa_1">
                            <path d="M10.6832107,22.3545625 L7.30057525,22.3545625 C4.63625418,22.3545625 3.95911706,21.0665625 3.80813378,20.1781875 C2.6521204,19.8475625 1.98108361,19.0339375 1.92923077,17.8810625 C1.61048829,17.7171875 1.34207358,17.5101875 1.13008696,17.2600625 C0.750341137,16.836 0.556655518,16.2940625 0.556655518,15.654375 C0.556655518,15.3366875 0.623759197,15.016125 0.757966555,14.69125 C0.254688963,14.0141875 0,13.268125 0,12.4616875 C0,11.6049375 0.353819398,10.3945625 2.04056187,9.499 C3.03644147,8.9771875 4.28395987,8.6724375 5.7602408,8.5890625 C5.7236388,8.52725 5.68093645,8.461125 5.63365886,8.3878125 C5.52232776,8.2181875 5.38202007,8.0025625 5.22951171,7.72225 L4.97634783,7.3096875 C4.23668227,5.98 4.1787291,3.841 4.1787291,3.217125 C4.1787291,1.515125 5.74346488,0 6.97573244,0 C7.48053512,0 7.90450836,0.238625 8.14089632,0.6540625 C8.24765217,0.8409375 8.38033445,1.1399375 8.56334448,1.5525 C9.34723746,3.3163125 11.1834381,7.4448125 14.1985284,9.329375 C14.846689,9.697375 15.9630502,10.33275 16.2131639,10.490875 C16.3153445,10.5225 16.615786,10.5670625 16.9421538,10.5670625 L17.8267023,10.5670625 C18.6121204,10.5670625 18.6319465,11.11475 18.7021003,12.9274375 C18.7387023,13.9164375 18.7600535,15.2188125 18.7600535,16.4176875 C18.7600535,17.2945625 18.7478528,18.046375 18.7280268,18.58975 C18.6929498,19.458 18.6639732,20.1465625 17.9044816,20.1465625 L15.9554247,20.1465625 C15.0052977,21.065125 13.9926421,21.4546875 13.0089632,21.835625 C12.7176722,21.9491875 12.4172308,22.0641875 12.1152642,22.1964375 C11.9734314,22.2568125 11.8285485,22.2913125 11.6836656,22.30425 C11.2307157,22.341625 10.9150234,22.3545625 10.6832107,22.3545625 Z" id="Shape"></path>
                        </g>
                    </g>
                </g>
            </g>
        </g>
    </g>
</svg>