<?xml version="1.0" encoding="UTF-8"?>
<svg width="25px" height="25px" viewBox="0 0 25 25" version="1.1" xmlns="http://www.w3.org/2000/svg" xmlns:xlink="http://www.w3.org/1999/xlink">
    <!-- Generator: Sketch 42 (36781) - http://www.bohemiancoding.com/sketch -->
    <title>Shape</title>
    <desc>Created with Sketch.</desc>
    <defs>
        <path d="M12.5,25 C5.59644063,25 0,19.4035594 0,12.5 C0,5.59644063 5.59644063,0 12.5,0 C19.4035594,0 25,5.59644063 25,12.5 C25,19.4035594 19.4035594,25 12.5,25 Z M12.5001327,6 C11.9808756,6 11.4784672,6.06739463 10.9943668,6.18241657 L11.2232167,6.33219716 L12.1246862,6.45942443 L12.5408613,6.36695581 L13.3200122,6.46207776 L13.4762935,6.67036432 L12.9336871,6.59806103 L12.3788754,6.82916624 L12.538208,7.24348403 L13.1113277,7.50390856 L13.1877436,6.9794775 L13.731146,6.94471885 L14.5053883,7.68420247 L14.7248189,7.97341565 L14.8289621,8.15822023 L14.2278498,8.39529544 L13.3198796,8.80682723 L13.2454536,9.20973569 L12.6446066,9.77622206 L12.6679559,10.3196245 L12.48607,10.3178998 L12.4135014,9.85714869 L12.0690989,9.74464741 L11.0790081,9.79678539 L10.6799469,10.5272477 L11.0268701,10.9434228 L11.5999898,10.6307276 L11.6391264,11.139902 L11.8588223,11.3132973 L12.2513828,11.7640984 L12.2320135,12.3333708 L12.9567711,12.503582 L13.4882335,12.1221655 L13.7310134,12.2029595 L14.6224002,12.5587713 L15.8734463,13.0277477 L16.1338708,13.6530054 L17.024727,14.0868252 L17.2281049,14.8515155 L16.6202266,15.5314318 L15.9035616,16.2825901 L15.14378,16.6756812 L14.3619757,17.1965303 L13.3198796,17.8740586 L12.7427799,18.4612409 L12.5380753,18.2386264 L13.0010817,17.065323 L13.117961,15.705225 L12.1212369,14.7995102 L12.1277375,14.0374732 L12.3884274,13.724778 L12.6944892,12.8194612 L12.0759976,12.4739973 L11.6587611,11.7967344 L11.0068374,11.5461272 L9.98490662,10.9955608 L9.5679355,9.84892336 L9.35964894,10.4220431 L9.04695377,9.48435555 L9.15109705,8.07742627 L9.67221145,7.60844984 L9.5159302,7.29575467 L9.88049801,6.72263496 L9.17006837,6.92574753 C7.27373201,8.06071028 6,10.1289825 6,12.4998673 C6,16.0892948 8.91004184,18.9997347 12.5001327,18.9997347 C16.0895602,18.9997347 19,16.0892948 19,12.4998673 C19,8.91004184 16.0895602,6 12.5001327,6 Z" id="path-1"></path>
    </defs>
    <g id="Métiers-du-web---Interview" stroke="none" stroke-width="1" fill="none" fill-rule="evenodd">
        <g transform="translate(-708.000000, -477.000000)" id="Shape">
            <g transform="translate(708.000000, 477.000000)">
                <mask id="mask-2" fill="white">
                    <use xlink:href="#path-1"></use>
                </mask>
                <use id="Combined-Shape" fill="#000000" xlink:href="#path-1"></use>
            </g>
        </g>
    </g>
</svg>