<?xml version="1.0" encoding="UTF-8"?>
<svg width="15px" height="13px" viewBox="0 0 15 13" version="1.1" xmlns="http://www.w3.org/2000/svg" xmlns:xlink="http://www.w3.org/1999/xlink">
    <!-- Generator: Sketch 42 (36781) - http://www.bohemiancoding.com/sketch -->
    <title>Shape</title>
    <desc>Created with Sketch.</desc>
    <defs></defs>
    <g id="Vue-articles-blog/tuto" stroke="none" stroke-width="1" fill="none" fill-rule="evenodd">
        <g transform="translate(-493.000000, -3376.000000)" id="Comment-1" fill="#253D59">
            <g transform="translate(316.000000, 3161.000000)">
                <g id="Reply" transform="translate(177.000000, 212.000000)">
                    <g transform="translate(0.000000, 3.000000)" id="Shape">
                        <path d="M14.761,9.692 L11.424,12.83 C11.242,13 10.95,13 10.809,13 C10.397,13 10.278,12.807 10.246,12.663 C9.989,12.365 10.009,11.953 10.306,11.674 L12.233,9.863 L3.022,9.863 C1.327,9.863 0,8.615 0,7.023 L0,0.748 C0,0.308 0.328,0 0.796,0 C1.265,0 1.592,0.308 1.592,0.748 L1.592,7.023 C1.592,7.739 2.26,8.366 3.021,8.366 L12.233,8.366 L10.306,6.555 C9.987,6.255 9.987,5.803 10.306,5.504 C10.459,5.36 10.657,5.281 10.865,5.281 C11.072,5.281 11.271,5.36 11.424,5.504 L14.761,8.641 C15.08,8.941 15.08,9.393 14.761,9.692 L14.761,9.692 Z"></path>
                    </g>
                </g>
            </g>
        </g>
    </g>
</svg>