<?xml version="1.0" encoding="UTF-8"?>
<svg width="22px" height="23px" viewBox="0 0 22 23" version="1.1" xmlns="http://www.w3.org/2000/svg" xmlns:xlink="http://www.w3.org/1999/xlink">
    <!-- Generator: Sketch 42 (36781) - http://www.bohemiancoding.com/sketch -->
    <title>Group</title>
    <desc>Created with Sketch.</desc>
    <defs></defs>
    <g id="Métiers-du-web---Formation" stroke="none" stroke-width="1" fill="none" fill-rule="evenodd">
        <g transform="translate(-734.000000, -1263.000000)" id="tips-formation" fill="#136A8A">
            <g transform="translate(289.000000, 1114.000000)">
                <g id="sûrs" transform="translate(445.000000, 146.000000)">
                    <g id="safe-shield-protection" transform="translate(0.000000, 3.000000)">
                        <g id="Capa_1">
                            <g id="Layer_5_88_">
                                <g id="Group">
                                    <path d="M12.1926983,18.2086098 C12.1926983,15.1719311 14.6271661,12.7104033 17.6301288,12.7104033 C18.2622373,12.7104033 18.6712136,12.786718 19.0999525,12.9148393 C19.3886373,13.0385869 19.4990847,12.7947869 19.5292136,12.6810689 C19.7256475,11.9391115 19.8357966,11.1824492 19.8357966,10.4201311 C19.8357966,10.3690787 19.8076068,3.87945902 19.8076068,3.79929836 C19.8076068,3.15929508 19.4449424,3.16080328 19.2830373,3.16163279 C18.1212881,3.16721311 16.9370915,3.16774098 15.6913695,2.80464262 C13.1032746,2.0500918 10.8023729,0 9.9276678,0 C9.08040678,0 7.37201356,2.05016721 4.78384407,2.80464262 C3.32438644,3.23010492 1.92481356,3.15115082 0.615477966,3.08976721 C0.461627119,3.08260328 0.216718644,3.0413541 0.139010169,3.58053443 C0.11939661,3.71642295 0.0195389831,10.3471344 0.0195389831,10.4201311 C0.0195389831,16.8976852 7.9448339,22.981977 9.92751864,22.981977 C10.561939,22.981977 11.5841559,22.466777 12.959939,21.4314754 C13.1432475,21.2713803 13.0450305,21.1652033 12.9908136,21.0757672 C12.4850373,20.2409803 12.1926983,19.2595213 12.1926983,18.2086098 Z" id="Shape"></path>
                                    <path d="M17.6642847,21.0121213 C17.4811254,21.2117311 17.1541831,21.2426492 16.9376881,21.0807443 L13.494278,18.5060262 C13.2778576,18.3441967 13.2331864,18.0338098 13.3950915,17.8163279 L13.8369559,17.2232295 C13.998861,17.0057475 14.3089492,16.9595967 14.5260407,17.1206721 L16.7341695,18.759177 C16.9511864,18.920177 17.2785763,18.8886557 17.461661,18.6889705 L20.5782034,15.3903934 C20.7612881,15.1907082 21.0723458,15.1790951 21.2694508,15.3646033 L21.806922,15.8704525 C22.0040271,16.0559607 22.0155119,16.371023 21.8324271,16.5706328 L17.6642847,21.0121213 Z" id="Shape"></path>
                                </g>
                            </g>
                        </g>
                    </g>
                </g>
            </g>
        </g>
    </g>
</svg>