<?xml version="1.0" encoding="UTF-8"?>
<svg width="43px" height="45px" viewBox="0 0 43 45" version="1.1" xmlns="http://www.w3.org/2000/svg" xmlns:xlink="http://www.w3.org/1999/xlink">
    <!-- Generator: Sketch 42 (36781) - http://www.bohemiancoding.com/sketch -->
    <title>user-rd</title>
    <desc>Created with Sketch.</desc>
    <defs></defs>
    <g id="Métiers-du-web---Formation-Test" stroke="none" stroke-width="1" fill="none" fill-rule="evenodd">
        <g id="Métiers-du-web---Formation" transform="translate(-699.000000, -1319.000000)" fill-rule="nonzero" fill="#FFFFFF">
            <g id="web-critères" transform="translate(184.000000, 868.000000)">
                <g id="Group-7" transform="translate(106.000000, 223.000000)">
                    <g id="sûrs" transform="translate(315.000000, 228.000000)">
                        <g id="user-interaction-review-lock-user-rd" transform="translate(94.000000, 0.000000)">
                            <g id="user-rd">
                                <path d="M21.1349219,27.2621262 C17.9406304,27.2621262 15.1475022,23.8967248 14.201793,21.0138963 C14.1208545,20.9627549 14.069699,20.9297624 14.0196059,20.8955671 C13.8078895,20.7510418 13.7253242,20.6833848 13.6063904,20.4693365 C12.3710165,18.2442402 12.4275679,16.6109453 13.5442237,15.7049251 C13.5777163,15.6777502 13.6112276,15.6519943 13.6446923,15.6275975 C13.6514851,14.7720739 13.7358584,13.8143892 13.946809,12.8740785 C13.9646735,12.7944476 13.9833719,12.7156016 14.002924,12.6375697 C14.0742937,11.9506643 14.3774131,11.0367101 15.0881128,10.1274225 C16.2923026,8.58675105 18.2844482,7.67888185 21.134922,7.67888185 C23.9980841,7.67888185 25.993674,8.58689108 27.1937502,10.1291165 C27.90146,11.0385988 28.2001644,11.9527047 28.2677,12.6406847 C28.2869695,12.7176998 28.3054082,12.795507 28.323035,12.8740785 C28.5339856,13.8143893 28.6183589,14.772074 28.6251517,15.6275975 C28.6586164,15.6519943 28.6921277,15.6777502 28.7256203,15.7049251 C29.842276,16.6109454 29.8988275,18.2442402 28.6632904,20.4696303 C28.5445198,20.6833849 28.4619545,20.7510419 28.2502381,20.8955671 C28.200128,20.929774 28.1489549,20.9627772 28.0679689,21.0139481 C27.1213627,23.8979041 24.3286539,27.2621262 21.1349219,27.2621262 Z M15.306371,19.3460069 C15.4284866,19.4235211 15.4965159,19.4685078 15.5642221,19.5182659 C15.6226413,19.561199 15.6747109,19.6034535 15.7261215,19.6526541 C15.8616388,19.7823459 15.961189,19.9135316 16.0261903,20.1419033 C16.6442709,22.327497 18.9779783,25.2621262 21.1349219,25.2621262 C23.2918655,25.2621262 25.6255726,22.3274974 26.2441181,20.1402665 C26.3086549,19.9135319 26.4082051,19.7823461 26.5437223,19.6526542 C26.5951329,19.6034536 26.6472026,19.5611991 26.7056218,19.518266 C26.773328,19.4685078 26.8413573,19.4235211 26.9453705,19.3574848 C26.9832669,19.3334968 27.0003454,19.3226935 27.0152253,19.3132631 C27.4232996,18.5400214 27.5882395,17.9647582 27.574895,17.5793491 C27.5682306,17.3868687 27.5285368,17.3091639 27.4654931,17.2580121 C27.4326664,17.2313775 27.4016173,17.2191035 27.4314499,17.2246906 C26.9383163,17.1323359 26.589949,16.6888726 26.6169836,16.1878943 C26.6175221,16.1786915 26.6190085,16.1434569 26.6204436,16.0945871 C26.6446648,15.2697976 26.5839566,14.2587222 26.3715406,13.3118795 C26.3522877,13.2260598 26.3319372,13.1418634 26.3104799,13.0593931 L26.2805863,12.875772 C26.2766757,12.8185464 26.2509179,12.6667963 26.1860775,12.4541627 C26.0724437,12.0815192 25.88726,11.706822 25.6153273,11.3573596 C24.8074409,10.3191397 23.4003052,9.67888185 21.134922,9.67888185 C18.8818124,9.67888185 17.4765814,10.3192798 16.6638935,11.3590536 C16.3899343,11.7095641 16.2023605,12.0854191 16.0862309,12.4591896 C16.0199481,12.6725246 15.9931113,12.8248731 15.9887654,12.8826285 L15.9593641,13.0593931 C15.9379068,13.1418634 15.9175563,13.2260598 15.8983034,13.3118795 C15.6858874,14.2587222 15.6251792,15.2697976 15.6494004,16.0945871 C15.6508355,16.1434569 15.6523219,16.1786915 15.6528604,16.1878943 C15.679895,16.6888726 15.3315277,17.1323359 14.8383941,17.2246906 C14.8682267,17.2191035 14.8371776,17.2313776 14.8043509,17.2580121 C14.7413071,17.3091639 14.7016134,17.3868687 14.6949489,17.5793491 C14.6816032,17.9647961 14.8465768,18.5401346 15.254609,19.313257 C15.2694912,19.3226889 15.2865728,19.3334942 15.306371,19.3460069 Z" id="Shape"></path>
                                <path d="M8.30282738,36.0014881 C8.30282738,32.0100772 10.5211355,29.6049546 14.4621816,28.3390952 C15.1738418,28.1104601 15.8369671,27.8303202 16.4508641,27.5097375 C17.5286834,26.9468902 18.2741879,26.3732199 18.6808513,25.9632072 C19.0697707,25.5710846 19.0671741,24.9379249 18.6750515,24.5490055 C18.2829289,24.1600861 17.6497693,24.1626827 17.2608498,24.5548053 C17.2066673,24.6094341 17.0721574,24.7291363 16.8594227,24.892837 C16.4886386,25.1781577 16.0431707,25.4663564 15.525077,25.7369097 C15.0098672,26.0059571 14.4514499,26.2418627 13.8504984,26.4349304 C9.15378188,27.9435102 6.30282738,31.0345575 6.30282738,36.0014881 C6.30282738,36.5537728 6.75054263,37.0014881 7.30282738,37.0014881 C7.85511213,37.0014881 8.30282738,36.5537728 8.30282738,36.0014881 Z" id="Shape"></path>
                                <path d="M23.5889931,25.9632076 C23.9956568,26.3732201 24.7411617,26.9468902 25.8189815,27.5097373 C25.9041781,27.5539459 25.9041781,27.5539459 25.9914807,27.5980834 C26.4850218,27.8459456 27.0860478,27.6467835 27.33391,27.1532424 C27.5817721,26.6597013 27.38261,26.0586752 26.8890689,25.8108131 C26.8159932,25.7738682 26.8159932,25.7738682 26.744768,25.7369092 C26.226674,25.4663559 25.7812057,25.1781572 25.4104213,24.8928366 C25.1976865,24.729136 25.0631764,24.6094337 25.0089938,24.5548049 C24.6200742,24.1626825 23.9869145,24.1600862 23.5947921,24.5490059 C23.2026698,24.9379255 23.2000735,25.5710852 23.5889931,25.9632076 Z" id="Shape"></path>
                                <path d="M29.6428571,41.952381 C29.6428571,42.5309648 30.1118921,43 30.6904762,43 L38.8809524,43 C39.4595354,43 39.9285714,42.530964 39.9285714,41.952381 L39.9285714,36.8095238 L29.6428571,36.8095238 L29.6428571,41.952381 Z M38.8809524,45 L30.6904762,45 C29.0073223,45 27.6428571,43.635534 27.6428571,41.952381 L27.6428571,35.8095238 C27.6428571,35.2572391 28.0905724,34.8095238 28.6428571,34.8095238 L40.9285714,34.8095238 C41.4808562,34.8095238 41.9285714,35.2572391 41.9285714,35.8095238 L41.9285714,41.952381 C41.9285714,43.6355335 40.5641049,45 38.8809524,45 Z" id="Shape"></path>
                                <path d="M30.1547619,34.5297619 C30.1547619,31.9721565 32.2281089,29.8988095 34.7857143,29.8988095 C37.3433197,29.8988095 39.4166667,31.9721565 39.4166667,34.5297619 L39.4166667,35.5297619 L41.4166667,35.5297619 L41.4166667,34.5297619 C41.4166667,30.867587 38.4478892,27.8988095 34.7857143,27.8988095 C31.1235394,27.8988095 28.1547619,30.867587 28.1547619,34.5297619 L28.1547619,35.5297619 L30.1547619,35.5297619 L30.1547619,34.5297619 Z" id="Shape"></path>
                                <path d="M21.4761905,40.952381 C10.7197868,40.952381 2,32.2325944 2,21.4761905 C2,10.7197865 10.7197868,2 21.4761905,2 C32.2325938,2 40.952381,10.7197872 40.952381,21.4761905 C40.952381,22.748864 40.8304485,24.0053304 40.5903694,25.233937 C40.4844519,25.7759701 40.8379936,26.3012378 41.3800267,26.4071553 C41.9220599,26.5130727 42.4473276,26.1595311 42.553245,25.6174979 C42.8179836,24.2626966 42.952381,22.8777845 42.952381,21.4761905 C42.952381,9.61521768 33.3371633,0 21.4761905,0 C9.61521734,0 0,9.615217 0,21.4761905 C0,33.3371639 9.61521734,42.952381 21.4761905,42.952381 C22.0284752,42.952381 22.4761905,42.5046657 22.4761905,41.952381 C22.4761905,41.4000962 22.0284752,40.952381 21.4761905,40.952381 Z" id="Shape"></path>
                            </g>
                        </g>
                    </g>
                </g>
            </g>
        </g>
    </g>
</svg>