<?xml version="1.0" encoding="UTF-8"?>
<svg width="15px" height="20px" viewBox="0 0 15 20" version="1.1" xmlns="http://www.w3.org/2000/svg" xmlns:xlink="http://www.w3.org/1999/xlink">
    <!-- Generator: Sketch 42 (36781) - http://www.bohemiancoding.com/sketch -->
    <title>Group</title>
    <desc>Created with Sketch.</desc>
    <defs></defs>
    <g id="Métiers-du-web---Profil-d’un-prof" stroke="none" stroke-width="1" fill="none" fill-rule="evenodd">
        <g transform="translate(-200.000000, -298.000000)" id="Group-4" fill="#FFFFFF">
            <g transform="translate(200.000000, 296.000000)">
                <g id="teacher-giving-lecture" transform="translate(0.000000, 2.000000)">
                    <g id="Capa_1">
                        <g id="Group">
                            <path d="M14.765042,17.6074715 C14.765042,15.1912073 13.3591444,12.5585421 13.3591444,12.5585421 C12.8143316,11.474123 12.1969595,10.2452392 10.874851,9.5205467 C10.8502827,9.5070615 10.7241406,9.44537585 10.682521,9.42596811 L9.2467838,8.7690205 L8.55708174,8.1909795 L7.44880061,9.28665148 L7.90496562,12.5551253 L7.38440031,12.6979043 L6.86378915,12.5551253 L7.32013751,9.28665148 L6.21181054,8.1909795 L5.5218793,8.7690205 L4.08605042,9.42596811 C4.04433919,9.44542141 3.91824293,9.50710706 3.89376623,9.5205467 C2.57165775,10.2451481 1.95419404,11.474123 1.40942704,12.5585421 C1.40942704,12.5585421 0.23381207,14.9463326 0.00357524828,17.6074715 C0.00110007639,17.6358542 0.000504201681,17.6644191 0.000504201681,17.6929841 C0.000504201681,18.4809112 0.686539343,19.1218679 1.52979374,19.1218679 C1.59130634,19.1218679 1.65272727,19.1171298 1.71355233,19.1078815 C2.13932773,19.0427335 2.50601986,18.9073349 2.83599694,18.7367654 L7.24038197,19.9441458 C7.25147441,19.9471982 7.26265852,19.9494305 7.27384263,19.9515262 L7.27893048,19.9524829 C7.2878686,19.9544419 7.29685256,19.9564009 7.30340718,19.957221 C7.33173415,19.9614123 7.35818182,19.9635535 7.38440031,19.9635535 C7.41057296,19.9635535 7.43702063,19.9614123 7.46255157,19.9574943 C7.47208556,19.9564465 7.48148205,19.9544875 7.49408709,19.9517084 C7.50563789,19.9495216 7.51718869,19.9471982 7.5283728,19.9442369 L11.932712,18.7367654 C12.2626432,18.9072893 12.6293354,19.042779 13.0550649,19.1078815 C13.11589,19.117221 13.1773109,19.1218679 13.2388694,19.1218679 C14.0820779,19.1218679 14.7681131,18.4809112 14.7681131,17.6930752 C14.7680672,17.6644191 14.765042,17.6360364 14.765042,17.6074715 Z M6.84307105,18.7192255 L3.97063407,17.931754 C4.30221543,17.5159453 4.32646295,16.9154897 3.99277311,16.4695216 C3.82822002,16.2495672 3.60220015,16.1022323 3.35601222,16.0322096 L3.35601222,12.709385 L6.84302521,13.6652392 L6.84307105,18.7192255 L6.84307105,18.7192255 Z M11.412605,16.0322551 C11.1663713,16.1020957 10.9403514,16.2495672 10.7757066,16.4696128 C10.4420168,16.9155809 10.4662643,17.5160364 10.7978457,17.9318451 L7.92550038,18.7193166 L7.92550038,13.6653759 L11.4124675,12.7094761 L11.412605,16.0322551 L11.412605,16.0322551 Z" id="Shape"></path>
                            <path d="M7.3842628,8.19093394 C8.83815126,8.19093394 10.7885867,6.38551253 10.8216807,3.35808656 C10.8428113,1.25726651 9.83619557,0 7.3842628,0 C4.93223835,0 3.92543927,1.25726651 3.94689076,3.35808656 C3.97993888,6.38555809 5.68258212,8.19093394 7.3842628,8.19093394 Z M6.69327731,4.20186788 C8.4710466,4.39006834 10.0208709,1.91899772 9.99566081,4.13148064 C9.98062643,5.45594533 8.74446142,7.45585421 7.38449198,7.45585421 C5.95695951,7.45585421 4.97211612,5.79375854 4.77341482,4.13220957 C4.55789152,2.33029613 7.88543927,2.7408656 6.69327731,4.20186788 Z" id="Shape"></path>
                        </g>
                    </g>
                </g>
            </g>
        </g>
    </g>
</svg>