<?xml version="1.0" encoding="UTF-8"?>
<svg width="16px" height="12px" viewBox="0 0 16 12" version="1.1" xmlns="http://www.w3.org/2000/svg" xmlns:xlink="http://www.w3.org/1999/xlink">
    <!-- Generator: Sketch 42 (36781) - http://www.bohemiancoding.com/sketch -->
    <title>Shape</title>
    <desc>Created with Sketch.</desc>
    <defs></defs>
    <g id="Vue-articles-blog/tuto" stroke="none" stroke-width="1" fill="none" fill-rule="evenodd">
        <g transform="translate(-719.000000, -2870.000000)" id="Group-16" fill="#566273">
            <g transform="translate(195.000000, 2827.000000)">
                <g id="Group-15" transform="translate(40.000000, 1.000000)">
                    <g id="Group-17" transform="translate(0.000000, 25.000000)">
                        <g id="follow" transform="translate(384.000000, 7.000000)">
                            <g id="Group-12" transform="translate(100.000000, 10.000000)">
                                <g id="Group-13">
                                    <path d="M15.6190476,1.42500004 C15.1763757,2.03750003 14.6412052,2.55937521 14.0135362,2.99062504 C14.0201434,3.07812504 14.0234467,3.20937503 14.0234467,3.38437503 C14.0234467,4.19687509 13.8979132,5.00781219 13.6468451,5.81718744 C13.3957776,6.62656214 13.0142211,7.40312476 12.5021755,8.14687474 C11.9901294,8.89062472 11.3806303,9.54843711 10.6736764,10.1203125 C9.9667232,10.6921872 9.11441427,11.1484371 8.11675143,11.4890622 C7.119088,11.8296872 6.05205033,12 4.91563961,12 C3.12513097,12 1.48658463,11.5468749 0,10.6406247 C0.231246471,10.6656248 0.488921195,10.6781251 0.773024172,10.6781251 C2.25960821,10.6781251 3.5843206,10.2468747 4.74715957,9.38437503 C4.05342016,9.37187471 3.43235829,9.17031224 2.88397397,8.77968761 C2.33558965,8.38906242 1.95898809,7.89062491 1.75416987,7.28437509 C1.97220192,7.31562476 2.17371683,7.33124988 2.35871401,7.33124988 C2.64281698,7.33124988 2.92361606,7.29687485 3.20111182,7.22812477 C2.46112311,7.08437501 1.84832011,6.73593742 1.36270223,6.18281256 C0.877084936,5.62968769 0.634276289,4.98749987 0.634276289,4.25625021 L0.634276289,4.21874981 C1.08355481,4.45624972 1.56586879,4.58437492 2.08121824,4.60312484 C1.64515355,4.32812508 1.29828414,3.96875013 1.04060942,3.52499999 C0.782934692,3.08124984 0.65409733,2.59999985 0.65409733,2.08125002 C0.65409733,1.53124996 0.799452424,1.02187509 1.09016202,0.553124865 C1.88961385,1.48437516 2.86250128,2.22968754 4.00882311,2.78906257 C5.15514436,3.34843759 6.3824026,3.65937478 7.69059726,3.7218747 C7.63774076,3.48437479 7.61131251,3.25312503 7.61131251,3.02812488 C7.61131251,2.1906253 7.92349539,1.4765626 8.54786057,0.885937336 C9.17222633,0.295312632 9.92708053,0 10.8124243,0 C11.7374102,0 12.517041,0.318750311 13.1513173,0.956249815 C13.871485,0.824999818 14.5487066,0.581250304 15.1829829,0.225000154 C14.938522,0.943750055 14.4694219,1.50000028 13.7756825,1.89375027 C14.3901377,1.83124979 15.0045924,1.67500028 15.6190476,1.42500004 Z" id="Shape"></path>
                                </g>
                            </g>
                        </g>
                    </g>
                </g>
            </g>
        </g>
    </g>
</svg>