<?xml version="1.0" encoding="UTF-8"?>
<svg width="25px" height="25px" viewBox="0 0 25 25" version="1.1" xmlns="http://www.w3.org/2000/svg" xmlns:xlink="http://www.w3.org/1999/xlink">
    <!-- Generator: Sketch 42 (36781) - http://www.bohemiancoding.com/sketch -->
    <title>twitter with circle</title>
    <desc>Created with Sketch.</desc>
    <defs></defs>
    <g id="Métiers-du-web---Interview" stroke="none" stroke-width="1" fill="none" fill-rule="evenodd">
        <g transform="translate(-743.000000, -477.000000)" id="twitter-with-circle" fill-rule="nonzero" fill="#000000">
            <g transform="translate(743.000000, 477.000000)">
                <g id="Twitter_w_x2F__circle">
                    <path d="M12.5,0.5 C5.8725,0.5 0.5,5.8725 0.5,12.5 C0.5,19.1275 5.8725,24.5 12.5,24.5 C19.1275,24.5 24.5,19.1275 24.5,12.5 C24.5,5.8725 19.1275,0.5 12.5,0.5 Z M17.38125,10.33 C17.38625,10.4325 17.3875,10.535 17.3875,10.635 C17.3875,13.76 15.01125,17.36125 10.66375,17.36125 C9.32875,17.36125 8.08625,16.97125 7.04125,16.29875 C7.225,16.32125 7.41375,16.33 7.605,16.33 C8.7125,16.33 9.73125,15.95375 10.54,15.31875 C9.50625,15.29875 8.63375,14.61625 8.3325,13.67875 C8.47625,13.705 8.62375,13.72 8.77625,13.72 C8.99125,13.72 9.20125,13.69125 9.39875,13.6375 C8.3175,13.42 7.5025,12.465 7.5025,11.32 L7.5025,11.29125 C7.82125,11.4675 8.18625,11.575 8.57375,11.5875 C7.93875,11.1625 7.5225,10.44 7.5225,9.61875 C7.5225,9.18625 7.63875,8.77875 7.8425,8.43 C9.00875,9.86 10.74875,10.8 12.71375,10.90125 C12.6725,10.7275 12.6525,10.5475 12.6525,10.36125 C12.6525,9.0575 13.71,7.9975 15.01625,7.9975 C15.695,7.9975 16.31,8.285 16.74125,8.745 C17.28,8.6375 17.785,8.4425 18.24125,8.17125 C18.065,8.7225 17.69125,9.18625 17.2025,9.48 C17.68125,9.42125 18.13625,9.295 18.56,9.10625 C18.24375,9.58 17.8425,9.9975 17.38125,10.33 Z" id="Shape"></path>
                </g>
            </g>
        </g>
    </g>
</svg>