<?xml version="1.0" encoding="UTF-8"?>
<svg width="15px" height="15px" viewBox="0 0 15 15" version="1.1" xmlns="http://www.w3.org/2000/svg" xmlns:xlink="http://www.w3.org/1999/xlink">
    <!-- Generator: Sketch 42 (36781) - http://www.bohemiancoding.com/sketch -->
    <title>Capa_1</title>
    <desc>Created with Sketch.</desc>
    <defs></defs>
    <g id="Métiers-du-web---Profil-d’un-prof" stroke="none" stroke-width="1" fill="none" fill-rule="evenodd">
        <g transform="translate(-1025.000000, -694.000000)" id="card-copy-3" fill="#136A8A">
            <g transform="translate(940.000000, 431.000000)">
                <g id="site" transform="translate(85.000000, 257.000000)">
                    <g id="Group-13">
                        <g id="earth-globe" transform="translate(0.000000, 6.000000)">
                            <g id="Capa_1">
                                <path d="M13.9794875,3.73130979 C13.3095103,2.58351936 12.4007289,1.67473804 11.2529043,1.00479499 C10.1048747,0.334886105 8.85164009,0 7.49224374,0 C6.13298405,0 4.87951025,0.334886105 3.73154897,1.00479499 C2.58365604,1.67463554 1.67487472,2.58341686 1.00489749,3.73130979 C0.334886105,4.87927107 0,6.13288155 0,7.49203872 C0,8.8511959 0.33498861,10.1046697 1.00479499,11.2526993 C1.67473804,12.4002506 2.58351936,13.3092711 3.7314123,13.9792825 C4.87937358,14.6491572 6.13288155,14.9840774 7.49210706,14.9840774 C8.85133257,14.9840774 10.1049772,14.6491572 11.2528702,13.9792825 C12.4006948,13.3095103 13.3094419,12.4004897 13.9793508,11.2526993 C14.6491572,10.1046697 14.9840091,8.85109339 14.9840091,7.49203872 C14.9840433,6.13288155 14.6491572,4.87910023 13.9794875,3.73130979 Z M8.42928246,11.4339294 C8.363918,11.3560592 8.34133257,11.2908998 8.3609795,11.238656 C8.3544533,11.2712528 8.33166287,11.3005011 8.29271071,11.3264351 C8.2602164,11.2874829 8.20148064,11.238656 8.11705011,11.1801936 C8.03238041,11.1214579 7.97395216,11.0728018 7.94142369,11.0335421 C7.92830296,11.0141344 7.91056948,10.9865262 7.88774487,10.9507517 C7.86495444,10.9149772 7.83574032,10.8678588 7.79996583,10.8092597 C7.76439636,10.7507973 7.73842825,10.7002961 7.72209567,10.6579271 C7.70593394,10.6156264 7.70443052,10.5912984 7.7171754,10.5849772 C7.59369021,10.6371185 7.4147836,10.601344 7.18069476,10.4776196 C7.1352164,10.4516515 7.06681093,10.3833485 6.97582005,10.2727449 C6.88482916,10.1621412 6.79048975,10.1134852 6.69290433,10.1263667 C6.66044419,10.1328929 6.61650342,10.1442369 6.56118451,10.1605011 C6.50600228,10.1768679 6.45881549,10.1848292 6.41976082,10.1848292 C6.38070615,10.1848292 6.32866743,10.1719818 6.26361048,10.1457403 C6.21167426,10.1263667 6.14176538,10.0888155 6.05395216,10.0336333 C5.96620729,9.97845103 5.90596811,9.94407745 5.87354214,9.93133257 C5.78900911,9.88571754 5.7467426,9.86302961 5.7467426,9.86302961 L5.59066059,9.78515945 C5.55160592,9.76578588 5.51091116,9.73486333 5.46864465,9.69256264 C5.42637813,9.65022779 5.39883827,9.60628702 5.38582005,9.56077449 C5.37283599,9.52185649 5.35657175,9.44374715 5.3370615,9.32658314 C5.31755125,9.20938497 5.29148064,9.12498861 5.2590205,9.07305239 C5.22006834,9.00806378 5.1647836,8.94300683 5.09316629,8.87801822 C5.02171982,8.81302961 4.95669704,8.78026196 4.89813212,8.78026196 C4.95020501,8.78026196 4.95020501,8.73666287 4.89813212,8.64861048 C4.84605923,8.56066059 4.8005467,8.4972779 4.76149203,8.45849658 C4.7484738,8.44537585 4.70941913,8.40317768 4.64439636,8.33149203 C4.57937358,8.25990888 4.52408884,8.19830296 4.47857631,8.14602506 C4.43309795,8.0940205 4.39390661,8.033918 4.36148064,7.96551253 C4.3290205,7.89720957 4.32242597,7.84038724 4.34197039,7.79477221 C4.34842825,7.78834852 4.34197039,7.77850797 4.32242597,7.76555809 C4.30291572,7.75271071 4.27862187,7.73948747 4.24927107,7.72650342 C4.22005695,7.71362187 4.19238041,7.7021754 4.16644647,7.69236902 C4.14030752,7.68276765 4.12079727,7.67784738 4.10784738,7.67784738 C4.12093394,7.70405467 4.13552392,7.75107062 4.15182232,7.81933941 C4.16808656,7.88774487 4.18595672,7.93817768 4.2054328,7.97067198 C4.21851936,7.99664009 4.27373576,8.091082 4.37128702,8.25338269 C4.54048975,8.5265262 4.61839408,8.72835991 4.60547836,8.8583713 C4.56642369,8.87125285 4.54035308,8.86489749 4.52736902,8.83896355 C4.5143508,8.81302961 4.50451025,8.77722096 4.49808656,8.73164009 C4.49159453,8.68626424 4.48517084,8.65376993 4.47854214,8.63412301 C4.45903189,8.59506834 4.40863326,8.55273349 4.3272779,8.50711845 C4.24602506,8.46177677 4.19555809,8.41616173 4.176082,8.3705467 C4.18264237,8.3705467 4.19063781,8.36750569 4.20047836,8.36074032 C4.21028474,8.35421412 4.21848519,8.35117312 4.22490888,8.35117312 C4.23150342,8.29267654 4.19736902,8.21788155 4.12253986,8.12665148 C4.04771071,8.03569476 4.016959,7.97070615 4.02987472,7.93161731 C3.97780182,7.89256264 3.93228929,7.81609339 3.89323462,7.70244875 C3.85421412,7.58856492 3.82165148,7.51534169 3.7956492,7.48277904 C3.76968109,7.44389522 3.73725513,7.40976082 3.69816629,7.38041002 C3.65911162,7.35123007 3.61042141,7.31873576 3.55182232,7.28292711 C3.49329157,7.24715262 3.4542369,7.2228246 3.43472665,7.20977221 C3.42167426,7.20338269 3.39574032,7.1742369 3.35668565,7.12216401 C3.14210706,6.86193622 3.07708428,6.72208428 3.16165148,6.7026082 C3.07711845,6.72208428 3.0071754,6.65873576 2.95189066,6.51228929 C2.89657175,6.36601367 2.87873576,6.25370159 2.89821185,6.17569476 L2.87873576,6.16599089 C2.88529613,6.13992027 2.88850797,6.06362187 2.88850797,5.93668565 C2.88850797,5.80981777 2.89670843,5.69436219 2.9129385,5.59035308 C2.92927107,5.48630979 2.96012528,5.43420273 3.00560364,5.43420273 C2.96012528,5.44069476 2.92602506,5.39996583 2.90323462,5.31232346 C2.88047836,5.22444191 2.87887244,5.1642369 2.89831435,5.13177677 C2.90480638,5.11223235 2.93415718,5.12538724 2.98612756,5.17083144 C3.03806378,5.21620729 3.06738041,5.24566059 3.07387244,5.25857631 C3.15843964,5.21292711 3.19100228,5.15449886 3.17145786,5.08288155 C3.15843964,5.05691344 3.09013667,4.98864465 2.96658314,4.87800683 C2.68687927,4.69599089 2.54374715,4.60814351 2.53735763,4.6145672 C2.57624146,4.54312073 2.56653759,4.48134396 2.50800683,4.4292369 C2.44301822,4.46829157 2.40563781,4.47799544 2.39583144,4.4585877 C2.38612756,4.43904328 2.37799544,4.40340547 2.37140091,4.35129841 C2.36497722,4.29932802 2.34864465,4.27007973 2.32271071,4.26355353 C2.29014806,4.2570615 2.25109339,4.23109339 2.20561503,4.1855467 C2.78439636,3.26203872 3.54854214,2.54015945 4.49808656,2.01977221 C4.53707289,2.01334852 4.6085877,2.01006834 4.71263098,2.01006834 C4.76460137,2.01656036 4.81342825,2.03285877 4.85890661,2.05882688 C4.9044533,2.08479499 4.95164009,2.12063781 5.0003303,2.16611617 C5.04919134,2.21149203 5.08657175,2.24405467 5.11253986,2.26359909 C5.12555809,2.22454442 5.10932802,2.16601367 5.06381549,2.08797267 C5.07673121,2.048918 5.14831435,2.00986333 5.27839408,1.97087699 C5.42788155,1.95136674 5.52553531,1.95454442 5.57101367,1.98068337 C5.5320615,1.92211845 5.46707289,1.84079727 5.3759795,1.73678815 L5.32722096,1.78547836 C5.27514806,1.74 5.13867882,1.7627221 4.91750569,1.85378132 C4.90458998,1.86020501 4.87202733,1.87821185 4.81995444,1.9073918 C4.76798405,1.93660592 4.72558087,1.95779043 4.6931549,1.97077449 C4.65410023,1.98379271 4.6151139,1.98703872 4.57605923,1.9805467 C4.88818907,1.81151481 5.19392938,1.67798405 5.49314351,1.58053531 C5.51248292,1.59345103 5.54507973,1.62112756 5.59062642,1.66335991 C5.63610478,1.70562642 5.67187927,1.73658314 5.69791572,1.75602506 C5.67840547,1.74310934 5.66535308,1.74946469 5.65886105,1.77553531 C5.63289294,1.85354214 5.63289294,1.91856492 5.65886105,1.97056948 C5.69132118,2.01621868 5.73526196,2.04208428 5.79058087,2.04867882 C5.84589977,2.05510251 5.91249431,2.05189066 5.99053531,2.03883827 C6.06857631,2.02592255 6.12068337,2.01932802 6.14668565,2.01932802 L6.24427107,2.02916856 C6.45232346,2.04867882 6.53367882,2.02916856 6.48816629,1.97056948 C6.50764237,1.99670843 6.53039863,2.05031891 6.55640091,2.13164009 C6.58236902,2.21296128 6.61171982,2.2698861 6.64414579,2.30241458 C6.67670843,2.27627563 6.68320046,2.23079727 6.66365604,2.16577449 C6.64414579,2.10075171 6.64414579,2.05510251 6.66365604,2.0291344 C6.67007973,2.01621868 6.68962415,2.00306378 6.72218679,1.99007973 C6.75474943,1.97716401 6.79209567,1.96253986 6.83439636,1.94627563 C6.87666287,1.92994305 6.90430524,1.91859909 6.91742597,1.91214123 C6.9564123,1.88607062 6.93034169,1.84052392 6.83931663,1.77550114 C6.82629841,1.76897494 6.79872437,1.7592369 6.75649203,1.74621868 C6.71422551,1.73340547 6.6767426,1.7202164 6.64428246,1.70726651 C6.61182232,1.6943508 6.57768793,1.6764123 6.54191344,1.65365604 C6.50613895,1.6308656 6.48984055,1.60489749 6.49301822,1.5755467 C6.49629841,1.5461959 6.51427107,1.50888383 6.54669704,1.46333713 C6.58575171,1.43091116 6.64920273,1.41785877 6.73694761,1.4243508 C6.82469248,1.43077449 6.89142369,1.44700456 6.93690205,1.473041 C7.11259681,1.57062642 7.13853075,1.65857631 7.01501139,1.73648064 C7.08013667,1.74290433 7.15817768,1.76894077 7.24920273,1.81441913 C7.34015945,1.86 7.37593394,1.90879271 7.35649203,1.9608656 C7.40853075,1.86331435 7.46050114,1.81441913 7.5126082,1.81441913 C7.54506834,1.82101367 7.57609339,1.86495444 7.60527335,1.94624146 C7.63448747,2.02749431 7.65232346,2.07136674 7.65878132,2.07796128 C7.71092255,2.14940774 7.76261959,2.16570615 7.815,2.12665148 C7.86693622,2.08766515 7.92071754,2.03077449 7.97589977,1.95594533 C8.031082,1.88121868 8.06197039,1.84708428 8.06853075,1.85357631 C8.00350797,1.82767654 7.99670843,1.80160592 8.04912301,1.77556948 C8.14640091,1.71703872 8.2343508,1.70074032 8.31246014,1.72687927 C8.33183371,1.73979499 8.358041,1.76914579 8.39029613,1.81452164 C8.44865604,1.93175399 8.43895216,1.98693622 8.361082,1.98044419 C8.41954442,2.03251708 8.44376993,2.0976082 8.43430524,2.1755467 C8.42449886,2.2535877 8.37382688,2.28939636 8.28287016,2.28283599 C8.25047836,2.28283599 8.20312073,2.26650342 8.14124146,2.23407745 C8.07949886,2.20161731 8.03238041,2.18378132 7.99974943,2.18046697 C7.96725513,2.17708428 7.92164009,2.19502278 7.86317768,2.23407745 C7.83720957,2.26664009 7.80307517,2.321959 7.76074032,2.39993166 C7.71843964,2.47810934 7.68099089,2.53329157 7.64849658,2.56575171 C7.55101367,2.66330296 7.38826879,2.69914579 7.16067198,2.673041 C7.1802164,2.673041 7.17850797,2.69255125 7.15575171,2.73160592 C7.13289294,2.77059226 7.10214123,2.8145672 7.06308656,2.86329157 C7.02403189,2.91205011 7.00127563,2.93969248 6.99485194,2.94618451 C6.93628702,3.01120729 6.89730068,3.08603645 6.87775626,3.17056948 C6.87775626,3.1835877 6.87447608,3.22752847 6.86791572,3.30222096 C6.86132118,3.37705011 6.84840547,3.43404328 6.82886105,3.47299544 C6.90690205,3.45348519 6.96871298,3.49264237 7.01419134,3.59009112 C7.05324601,3.68118451 7.05324601,3.72994305 7.01419134,3.73650342 C7.22887244,3.70411162 7.41748292,3.71702733 7.58019362,3.77555809 C7.81428246,3.86009112 7.94781321,3.94462415 7.98030752,4.02919134 C8.01915718,3.97059226 8.11339408,3.9672779 8.26305239,4.0193508 C8.32161731,4.05181093 8.37341686,4.14949886 8.4192369,4.31197039 C8.44520501,4.4094533 8.48917995,4.49408884 8.55092255,4.56556948 C8.61280182,4.63708428 8.67932802,4.65656036 8.7509795,4.62410023 L8.78012528,4.60458998 C8.8061959,4.59167426 8.82724374,4.58022779 8.8434738,4.57048975 C8.85984055,4.56078588 8.8776082,4.54773349 8.89701595,4.53143508 C8.91666287,4.51517084 8.92810934,4.5005467 8.93115034,4.48763098 C8.93419134,4.47464692 8.92951025,4.46149203 8.91666287,4.44857631 C8.87104784,4.40952164 8.83691344,4.35591116 8.81422551,4.28771071 C8.79167426,4.21940774 8.79656036,4.15920273 8.82898633,4.10709567 C8.84835991,4.08112756 8.9004328,4.04207289 8.98493166,3.99 C9.06960137,3.93789294 9.12164009,3.88592255 9.14101367,3.83388383 C9.16735763,3.7493508 9.13458998,3.67940774 9.04359909,3.62405467 C8.95253986,3.56887244 8.90692483,3.5184738 8.90692483,3.47285877 C8.90692483,3.44029613 8.92807517,3.40134396 8.97027335,3.3557631 C9.01271071,3.31028474 9.03061503,3.26788155 9.02395216,3.22896355 C9.02395216,3.20931663 9.01247153,3.16875854 8.9897836,3.10694761 C8.96723235,3.04503417 8.95400911,2.99955581 8.95083144,2.97030752 C8.94755125,2.94102506 8.96231207,2.90689066 8.9946697,2.8679385 C9.04004556,2.84186788 9.14740319,2.84350797 9.31646925,2.8727221 C9.48556948,2.90207289 9.59620729,2.93296128 9.64834852,2.96538724 C9.66796128,2.97830296 9.71019362,2.99784738 9.7752164,3.02395216 C9.84020501,3.0497836 9.89716401,3.07742597 9.94605923,3.10681093 C9.99457859,3.13602506 10.0222551,3.16356492 10.028713,3.18963554 L9.98005695,3.18963554 C10.0255353,3.22879271 10.0532802,3.27416856 10.0628474,3.32627563 C10.0726879,3.37848519 10.0483599,3.41740319 9.98989749,3.44350797 C10.028713,3.43691344 10.0809567,3.44671982 10.1459795,3.4727221 C10.2500569,3.51170843 10.2533371,3.54755125 10.1557859,3.58001139 C10.1751936,3.57341686 10.2028018,3.56702733 10.2384738,3.56046697 C10.2742483,3.55397494 10.301754,3.54416856 10.3213667,3.53125285 C10.3342483,3.52469248 10.3505809,3.51341686 10.3700228,3.49708428 C10.3896697,3.48082005 10.4041572,3.47101367 10.4139977,3.46790433 C10.4238041,3.46469248 10.4382916,3.46130979 10.4579385,3.45806378 C10.4773462,3.45485194 10.4967882,3.45977221 10.5161617,3.47268793 C10.5229613,3.47268793 10.5374487,3.45638952 10.5601367,3.42392938 C10.5826879,3.39150342 10.6073918,3.35894077 10.6332232,3.32648064 C10.659328,3.2940205 10.6818793,3.27779043 10.7015262,3.27779043 C10.7207973,3.27779043 10.7388383,3.28578588 10.7549317,3.30205011 C10.7714009,3.31838269 10.7841458,3.33618451 10.7940205,3.35572893 C10.8038269,3.37527335 10.8133941,3.39642369 10.8232346,3.41904328 C10.833041,3.44179954 10.8410023,3.45980638 10.8475626,3.4727221 C10.86041,3.50518223 10.8915034,3.5394533 10.9401595,3.57509112 C10.9888155,3.6107631 11.0196697,3.645 11.0327563,3.67746014 C11.0393166,3.69700456 11.0520615,3.74579727 11.0717084,3.82394077 C11.0911162,3.90198178 11.1173235,3.95559226 11.1497153,3.98480638 C11.1822096,4.01415718 11.2309681,4.03848519 11.2959567,4.05796128 C11.3089749,4.06455581 11.3384282,4.06124146 11.3837699,4.04832574 C11.4291458,4.03523918 11.466697,4.03199317 11.4959112,4.03848519 C11.5253645,4.04490888 11.5398519,4.07087699 11.5398519,4.1165262 C11.5788041,4.07747153 11.5982118,4.05140091 11.5982118,4.03848519 C11.6048747,4.12305239 11.62582,4.19138952 11.6618337,4.24335991 C11.6976082,4.29529613 11.7544305,4.31818907 11.8325399,4.31159453 L11.8128929,4.52627563 C11.7934852,4.55873576 11.7447267,4.58306378 11.6665148,4.59929385 C11.5884055,4.61562642 11.5397494,4.63035308 11.5201025,4.64326879 C11.5006948,4.64976082 11.4534738,4.68878132 11.3786105,4.76039863 C11.3037813,4.83201595 11.2731321,4.87428246 11.2860137,4.88719818 C11.1756492,4.76361048 11.0095558,4.72783599 10.7885535,4.77990888 C10.5415148,4.81892938 10.3722779,4.85794989 10.2813212,4.89700456 C10.1773462,4.94911162 10.1056606,4.99780182 10.0666401,5.04328018 C10.0601139,5.04977221 10.0489749,5.07263098 10.0326082,5.11158314 C10.016344,5.15056948 10.0001139,5.1864123 9.98395216,5.21887244 C9.96748292,5.25133257 9.95309795,5.26759681 9.9401139,5.26759681 C9.97927107,5.26127563 10.023041,5.2302164 10.0717995,5.17503417 C10.1206948,5.11971526 10.151549,5.08896355 10.1644305,5.08236902 C10.3333599,4.97186788 10.4732118,4.93281321 10.5844305,4.96609339 C10.7274601,5.00514806 10.7502506,5.05722096 10.6525968,5.12224374 C10.6398519,5.13515945 10.6054784,5.14004556 10.5502961,5.13686788 C10.4951139,5.13365604 10.4576651,5.13515945 10.4380524,5.14178815 C10.496754,5.15470387 10.5453759,5.17264237 10.5846697,5.19526196 C10.6234852,5.21801822 10.6333257,5.24894077 10.6137813,5.28792711 C10.7177563,5.34649203 10.737369,5.41151481 10.6723804,5.48313212 C10.5877107,5.56780182 10.4871526,5.60343964 10.3699886,5.59042141 C10.3896355,5.59042141 10.3896355,5.6034738 10.3699886,5.62944191 L10.2039636,5.73673121 C10.191082,5.74312073 10.1487813,5.7593508 10.0771982,5.78548975 C10.0056492,5.81132118 9.95678815,5.84080866 9.93082005,5.87323462 C9.9114123,5.89927107 9.90160592,5.9382574 9.90160592,5.99046697 C9.90160592,6.04257403 9.89832574,6.0816287 9.89179954,6.10759681 C9.88537585,6.13373576 9.85927107,6.14002278 9.81392938,6.12710706 C9.79428246,6.16609339 9.73417995,6.19701595 9.63338269,6.21963554 C9.53258542,6.2423918 9.46595672,6.2765262 9.43342825,6.32200456 C9.47224374,6.37411162 9.46920273,6.426082 9.4235877,6.4781549 C9.34547836,6.54328018 9.27720957,6.53668565 9.21874715,6.45864465 C9.18625285,6.47166287 9.16178815,6.50412301 9.14552392,6.55623007 C9.12939636,6.60830296 9.10486333,6.64407745 9.07253986,6.66351936 C9.1181549,6.73506834 9.11138952,6.78724374 9.05316629,6.81960137 C9.05948747,6.81960137 9.07421412,6.8261959 9.09686788,6.83914579 C9.11955581,6.85212984 9.14388383,6.86835991 9.17009112,6.88790433 C9.19605923,6.90744875 9.21215262,6.91725513 9.21874715,6.91725513 C9.19277904,6.9756492 9.15686788,7.00489749 9.11138952,7.00489749 C9.15044419,7.10900911 9.10178815,7.22289294 8.96525057,7.34637813 C8.93900911,7.37234624 8.89834852,7.39831435 8.84316629,7.42441913 C8.7876082,7.45038724 8.73734624,7.47146925 8.69173121,7.48776765 C8.64611617,7.50406606 8.62028474,7.51541002 8.61375854,7.52190205 C8.54873576,7.58053531 8.49984055,7.64063781 8.46748292,7.70238041 C8.43509112,7.76425968 8.43017084,7.82432802 8.4527221,7.88292711 C8.4755467,7.9416287 8.5356492,7.98044419 8.6333713,8.00009112 L8.64283599,8.07806378 L8.64283599,8.2535877 L8.65264237,8.33169704 C8.65930524,8.3771754 8.66422551,8.41787016 8.66740319,8.45374715 C8.67058087,8.48955581 8.67058087,8.53489749 8.66740319,8.59031891 C8.66422551,8.64550114 8.64953303,8.67649203 8.62356492,8.68281321 C8.59773349,8.68947608 8.56192483,8.68281321 8.51630979,8.66330296 C8.46406606,8.63733485 8.40242597,8.4942369 8.33074032,8.23414579 C8.31775626,8.16915718 8.27859909,8.09125285 8.21357631,8.00005695 C8.181082,8.03255125 8.1534738,8.05359909 8.13078588,8.06333713 C8.10820046,8.07314351 8.09169704,8.07492027 8.08223235,8.0682574 C8.07242597,8.06183371 8.05452164,8.04710706 8.02848519,8.02441913 C8.00251708,8.00173121 7.97993166,7.98372437 7.96031891,7.97087699 C7.92779043,7.95146925 7.87096811,7.93506834 7.78947608,7.92222096 C7.70832574,7.9092369 7.65765376,7.89287016 7.63838269,7.87346241 C7.48212984,7.99072893 7.38775626,7.96124146 7.35529613,7.78588838 C7.34238041,7.81828018 7.34395216,7.86211845 7.3602164,7.91757403 C7.37654897,7.97285877 7.38464692,8.00364465 7.38464692,8.01017084 C7.33916856,8.09484055 7.26765376,8.10112756 7.17006834,8.02957859 C7.13101367,7.99072893 7.04156036,7.98584282 6.90170843,8.01505695 C6.76185649,8.04420273 6.66919134,8.04908884 6.62371298,8.02957859 C6.63030752,8.02957859 6.64322323,8.03928246 6.66276765,8.05889522 C6.68224374,8.07164009 6.6953303,8.08148064 6.70178815,8.088041 C6.69522779,8.11414579 6.68552392,8.13351936 6.67243736,8.14650342 C6.65938497,8.15938497 6.64636674,8.16430524 6.63341686,8.16126424 C6.62039863,8.15798405 6.60577449,8.15798405 6.58944191,8.16126424 C6.57317768,8.16430524 6.5585877,8.16919134 6.54553531,8.17575171 C6.51953303,8.19515945 6.48707289,8.22929385 6.44801822,8.27805239 C6.40903189,8.3268451 6.3797836,8.35769932 6.36027335,8.3705467 C6.39922551,8.47462415 6.41716401,8.55437358 6.41395216,8.60955581 C6.41056948,8.66497722 6.40093394,8.74626424 6.38460137,8.85348519 C6.36826879,8.96070615 6.36017084,9.04701595 6.36017084,9.11214123 C6.36017084,9.21594533 6.39109339,9.3366287 6.45283599,9.47299544 C6.51464692,9.6095672 6.58776765,9.7038041 6.67233485,9.75594533 C6.71798405,9.78191344 6.79605923,9.798041 6.9065262,9.80449886 C7.0170615,9.81112756 7.09513667,9.80449886 7.14061503,9.78509112 C7.1796697,9.76582005 7.20884966,9.74289294 7.22835991,9.71692483 C7.24787016,9.69095672 7.26420273,9.65330296 7.27711845,9.60468109 C7.29013667,9.55602506 7.29997722,9.52189066 7.30646925,9.50248292 C7.35194761,9.37875854 7.43648064,9.31376993 7.55989749,9.30720957 C7.63824601,9.30068337 7.69482916,9.30908884 7.73084282,9.33153759 C7.76661731,9.35432802 7.78113895,9.38518223 7.77457859,9.42427107 C7.76801822,9.46318907 7.75506834,9.50388383 7.73572893,9.54618451 C7.71611617,9.58851936 7.69178815,9.63553531 7.66247153,9.68771071 C7.63339408,9.73995444 7.61538724,9.77890661 7.60910023,9.80501139 C7.596082,9.85701595 7.58453303,9.93010251 7.57496583,10.0246128 C7.56515945,10.1188497 7.55692483,10.1758087 7.55039863,10.1954214 C7.56351936,10.2017768 7.61220957,10.2050228 7.69667426,10.2050228 C7.69667426,10.1921412 7.70159453,10.1708542 7.71140091,10.1416401 C7.72100228,10.112426 7.72592255,10.0945216 7.72592255,10.0880979 C7.75855353,10.1402392 7.81059226,10.1692483 7.88214123,10.1758087 C7.95369021,10.1823349 8.00583144,10.1564009 8.03832574,10.0978018 C8.05144647,10.1173462 8.09046697,10.1662073 8.15552392,10.2443166 C8.22051253,10.3221868 8.25628702,10.3872096 8.26288155,10.4393508 C8.26940774,10.4655581 8.28225513,10.5076538 8.30169704,10.5663554 C8.32134396,10.6248178 8.32790433,10.6655125 8.32134396,10.6884055 C8.31481777,10.7108542 8.28225513,10.7224374 8.22382688,10.7224374 C8.19785877,10.7224374 8.1815262,10.7322437 8.17517084,10.7516515 C8.16840547,10.7712984 8.16840547,10.7954897 8.17517084,10.824738 C8.18173121,10.8539522 8.18993166,10.881697 8.19949886,10.9076651 C8.20920273,10.9334966 8.22218679,10.961344 8.23834852,10.9905923 C8.25492027,11.0196014 8.26291572,11.037574 8.26291572,11.0441002 C8.37984055,11.2585421 8.53933941,11.3171412 8.74089977,11.2197608 C8.74089977,11.4082688 8.69531891,11.5123121 8.60408884,11.5317198 C8.55266515,11.5446355 8.49430524,11.5117995 8.42928246,11.4339294 Z M8.57497722,13.637836 C8.56212984,13.5728132 8.55556948,13.520877 8.55628702,13.4820615 C8.54948747,13.4299203 8.57241458,13.3599772 8.62431663,13.2722665 C8.67632118,13.18459 8.70228929,13.1177904 8.70228929,13.0723121 C8.59824601,13.046344 8.55925968,12.9617084 8.58502278,12.8186788 C8.59810934,12.7210592 8.69234624,12.5910137 8.86797267,12.4284738 C8.99166287,12.3178702 9.03051253,12.1616173 8.98513667,11.9601936 C8.96548975,11.8756264 8.94912301,11.7519362 8.93624146,11.5893622 C8.92339408,11.4267198 8.91027335,11.3129385 8.89718679,11.2479499 C8.89718679,11.2673576 8.928041,11.285262 8.99002278,11.301492 C9.05179954,11.3176196 9.08917995,11.3389066 9.10216401,11.3646355 C9.11514806,11.3453645 9.13130979,11.3094533 9.15092255,11.2575171 C9.1703303,11.2053759 9.19001139,11.1664579 9.20914579,11.1403531 C9.22226651,11.1208428 9.24984055,11.0965148 9.29220957,11.0671298 C9.33451025,11.0379157 9.36211845,11.0201481 9.37510251,11.0135877 C9.38784738,11.007164 9.41730068,10.9861162 9.46267654,10.9502392 C9.5082574,10.9144647 9.54570615,10.886959 9.57502278,10.8674487 C9.60447608,10.8479385 9.64318907,10.8333144 9.69208428,10.823713 C9.7409795,10.8139066 9.77501139,10.8284282 9.79438497,10.8674487 C9.82701595,10.9065376 9.82059226,10.9666059 9.77501139,11.0479954 C9.72939636,11.129385 9.72939636,11.1863098 9.77501139,11.2189408 C9.78164009,11.1992938 9.78799544,11.1568565 9.79438497,11.0918337 C9.80104784,11.0268109 9.82059226,10.9780524 9.85298405,10.9453189 C9.89203872,10.9065034 9.92931663,10.8835763 9.96522779,10.8772551 C10.0010023,10.8704897 10.0333941,10.8753759 10.0625399,10.8918793 C10.0919932,10.9081435 10.1261276,10.9305923 10.1649772,10.9600456 C10.2040319,10.9892597 10.2397722,11.0071982 10.2723007,11.0135877 C10.3698178,11.0461162 10.4869818,11.1176651 10.6235535,11.2282688 C10.6170273,11.2216401 10.6170273,11.2135421 10.6235535,11.2037016 C10.6301139,11.1941344 10.6429613,11.184328 10.6626424,11.1744875 C10.6820501,11.1649203 10.6998178,11.1551139 10.7161845,11.1452733 C10.7323121,11.1355695 10.7500797,11.1277449 10.7697267,11.121082 L10.7989408,11.1112756 C10.8443166,11.1112756 10.8769134,11.1080979 10.8963554,11.1014351 C10.9157289,11.0950114 10.943713,11.1014351 10.9792483,11.121082 C11.0148178,11.1404897 11.039385,11.1551139 11.0522323,11.1649203 C11.0653189,11.1744875 11.0880068,11.1923918 11.1205353,11.2184624 C11.1530296,11.2444305 11.1759567,11.2640774 11.1885649,11.2769248 C11.2082118,11.2897722 11.2439863,11.3126993 11.2959226,11.3452278 C11.3480638,11.3777221 11.3887585,11.4036902 11.4180068,11.4230638 C11.4474601,11.4424715 11.4733941,11.471959 11.4958428,11.5106378 C11.5185308,11.5499317 11.5269704,11.592164 11.52041,11.6377449 C11.5594989,11.6443052 11.637369,11.6701367 11.754533,11.715615 C11.77418,11.7284966 11.8146355,11.7400797 11.8765831,11.7496469 C11.9383599,11.7594533 11.9790205,11.7742141 11.9985308,11.7934852 C11.0562301,12.789123 9.91465831,13.403713 8.57497722,13.637836 Z" id="Shape"></path>
                            </g>
                        </g>
                    </g>
                </g>
            </g>
        </g>
    </g>
</svg>