<?xml version="1.0" encoding="UTF-8"?>
<svg width="14px" height="14px" viewBox="0 0 14 14" version="1.1" xmlns="http://www.w3.org/2000/svg" xmlns:xlink="http://www.w3.org/1999/xlink">
    <!-- Generator: Sketch 42 (36781) - http://www.bohemiancoding.com/sketch -->
    <title>Shape</title>
    <desc>Created with Sketch.</desc>
    <defs></defs>
    <g id="Métiers-du-web---Interview" stroke="none" stroke-width="1" fill="none" fill-rule="evenodd">
        <g transform="translate(-1009.000000, -749.000000)" id="card-copy-2" fill-rule="nonzero" fill="#FFFFFF">
            <g transform="translate(939.000000, 398.000000)">
                <g id="Group-4" transform="translate(70.000000, 349.000000)">
                    <path d="M7.00028575,2 C6.44107442,2 5.90000816,2.07258032 5.37865861,2.19645263 L5.62511736,2.35775809 L6.59595052,2.49477487 L7.04414826,2.39519125 L7.88325101,2.49763236 L8.05155733,2.72194554 L7.46720007,2.64407887 L6.86969833,2.89296649 L7.04129077,3.33916398 L7.65850921,3.61962689 L7.740805,3.05484345 L8.32601951,3.0174103 L9.1598359,3.81379353 L9.39615055,4.12526024 L9.50830714,4.32428461 L8.86094216,4.57960158 L7.88310814,5.02279871 L7.80295546,5.45670898 L7.15587623,6.06678369 L7.18102217,6.6519982 L6.98514104,6.65014083 L6.90698861,6.15393722 L6.53608605,6.03277952 L5.46981263,6.08892926 L5.04004572,6.87559701 L5.4136629,7.32379475 L6.03088133,6.98703923 L6.07302935,7.53539209 L6.30962975,7.72212924 L6.7323958,8.20761726 L6.71153611,8.82069233 L7.49206025,9.00400049 L8.06441605,8.59323591 L8.32587664,8.68024656 L9.28585133,9.06343634 L10.6331592,9.56849818 L10.9136221,10.2418664 L11.8730253,10.7090664 L12.0920521,11.5325958 L11.4374005,12.2648283 L10.6655917,13.0737845 L9.84734865,13.4971221 L9.00538841,14.0580479 L7.88310814,14.7877087 L7.26160346,15.4200718 L7.0411479,15.1803282 L7.53978038,13.9167449 L7.66565294,12.4519941 L6.59223578,11.476589 L6.59923664,10.6559171 L6.8799853,10.3191615 L7.20959709,9.344185 L6.54351553,8.97213945 L6.0941748,8.24276442 L5.39208883,7.97287423 L4.29152549,7.37994448 L3.84247051,6.14507899 L3.61815733,6.76229742 L3.2814018,5.75245948 L3.39355839,4.23727395 L3.95476997,3.73221211 L3.78646365,3.39545659 L4.17908315,2.77823815 L3.41398947,2.99697922 C1.3717394,4.21927175 0,6.44668735 0,9 C0,12.8656162 3.13395518,16 7.00028575,16 C10.8659019,16 14.0002857,12.8656162 14.0002857,9 C14.0002857,5.13395518 10.8659019,2 7.00028575,2 Z" id="Shape"></path>
                </g>
            </g>
        </g>
    </g>
</svg>