<?xml version="1.0" encoding="UTF-8"?>
<svg width="25px" height="25px" viewBox="0 0 25 25" version="1.1" xmlns="http://www.w3.org/2000/svg" xmlns:xlink="http://www.w3.org/1999/xlink">
    <!-- Generator: Sketch 42 (36781) - http://www.bohemiancoding.com/sketch -->
    <title>youtube with circle</title>
    <desc>Created with Sketch.</desc>
    <defs></defs>
    <g id="Métiers-du-web---Interview" stroke="none" stroke-width="1" fill="none" fill-rule="evenodd">
        <g transform="translate(-823.000000, -477.000000)" id="youtube-with-circle" fill-rule="nonzero" fill="#000000">
            <g transform="translate(823.000000, 477.000000)">
                <g id="Youtube_w_x2F__circle">
                    <path d="M14.50375,12.29125 L11.69625,10.98125 C11.45125,10.8675 11.25,10.995 11.25,11.26625 L11.25,13.73375 C11.25,14.005 11.45125,14.1325 11.69625,14.01875 L14.5025,12.70875 C14.74875,12.59375 14.74875,12.40625 14.50375,12.29125 Z M12.5,0.5 C5.8725,0.5 0.5,5.8725 0.5,12.5 C0.5,19.1275 5.8725,24.5 12.5,24.5 C19.1275,24.5 24.5,19.1275 24.5,12.5 C24.5,5.8725 19.1275,0.5 12.5,0.5 Z M12.5,17.375 C6.3575,17.375 6.25,16.82125 6.25,12.5 C6.25,8.17875 6.3575,7.625 12.5,7.625 C18.6425,7.625 18.75,8.17875 18.75,12.5 C18.75,16.82125 18.6425,17.375 12.5,17.375 Z" id="Shape"></path>
                </g>
            </g>
        </g>
    </g>
</svg>